STARTFONT 2.1
FONT -FontForge-Lode Sans-Medium-R-Normal--15-140-75-75-P-79-ISO10646-1
SIZE 14 75 75
FONTBOUNDINGBOX 14 17 -1 -4
COMMENT "Generated by fontforge, http://fontforge.sourceforge.net"
COMMENT "Copyright (c) 2016, Hisham Muhammad"
STARTPROPERTIES 32
FOUNDRY "FontForge"
FAMILY_NAME "Lode Sans"
WEIGHT_NAME "Medium"
SLANT "R"
SETWIDTH_NAME "Normal"
ADD_STYLE_NAME ""
PIXEL_SIZE 15
POINT_SIZE 140
RESOLUTION_X 75
RESOLUTION_Y 75
SPACING "P"
AVERAGE_WIDTH 79
CHARSET_REGISTRY "ISO10646"
CHARSET_ENCODING "1"
FONTNAME_REGISTRY ""
CHARSET_COLLECTIONS "ASCII ISOLatin1Encoding ISO8859-2 ISO8859-5 ISO8859-7 ISO8859-9 ISO8859-8 ISO8859-6 ISO8859-4 ISO8859-11 ISO10646-1"
FONT_NAME "LodeSans"
FACE_NAME "Lode Sans"
COPYRIGHT "Copyright (c) 2016, Hisham Muhammad"
FONT_VERSION "001.000"
FONT_ASCENT 12
FONT_DESCENT 3
UNDERLINE_POSITION -2
UNDERLINE_THICKNESS 1
X_HEIGHT 5
CAP_HEIGHT 8
RAW_ASCENT 800
RAW_DESCENT 200
NORM_SPACE 8
FIGURE_WIDTH 8
AVG_LOWERCASE_WIDTH 79
AVG_UPPERCASE_WIDTH 79
ENDPROPERTIES
CHARS 4489
STARTCHAR uni0000
ENCODING 0
SWIDTH 576 0
DWIDTH 8 0
BBX 7 10 0 0
BITMAP
DA
02
80
82
02
80
82
02
80
B6
ENDCHAR
STARTCHAR space
ENCODING 32
SWIDTH 333 0
DWIDTH 5 0
BBX 1 1 7 -4
BITMAP
00
ENDCHAR
STARTCHAR exclam
ENCODING 33
SWIDTH 333 0
DWIDTH 5 0
BBX 2 10 1 0
BITMAP
C0
C0
C0
C0
C0
C0
C0
00
C0
C0
ENDCHAR
STARTCHAR quotedbl
ENCODING 34
SWIDTH 576 0
DWIDTH 8 0
BBX 6 4 1 7
BITMAP
CC
CC
CC
CC
ENDCHAR
STARTCHAR numbersign
ENCODING 35
SWIDTH 576 0
DWIDTH 8 0
BBX 8 10 0 0
BITMAP
1B
1B
36
7F
36
6C
FE
6C
D8
D8
ENDCHAR
STARTCHAR dollar
ENCODING 36
SWIDTH 576 0
DWIDTH 8 0
BBX 7 14 0 -2
BITMAP
18
18
7E
C0
C0
60
38
0C
06
06
06
FC
18
18
ENDCHAR
STARTCHAR percent
ENCODING 37
SWIDTH 576 0
DWIDTH 8 0
BBX 7 8 0 0
BITMAP
E2
A6
EC
18
30
6E
CA
8E
ENDCHAR
STARTCHAR ampersand
ENCODING 38
SWIDTH 576 0
DWIDTH 8 0
BBX 7 10 0 0
BITMAP
38
6C
6C
38
72
DE
CC
CC
CE
72
ENDCHAR
STARTCHAR quotesingle
ENCODING 39
SWIDTH 333 0
DWIDTH 5 0
BBX 2 4 1 7
BITMAP
C0
C0
C0
C0
ENDCHAR
STARTCHAR parenleft
ENCODING 40
SWIDTH 400 0
DWIDTH 6 0
BBX 4 10 1 0
BITMAP
30
60
C0
C0
C0
C0
C0
C0
60
30
ENDCHAR
STARTCHAR parenright
ENCODING 41
SWIDTH 400 0
DWIDTH 6 0
BBX 4 10 1 0
BITMAP
C0
60
30
30
30
30
30
30
60
C0
ENDCHAR
STARTCHAR asterisk
ENCODING 42
SWIDTH 576 0
DWIDTH 8 0
BBX 7 7 0 1
BITMAP
10
D6
7C
38
7C
D6
10
ENDCHAR
STARTCHAR plus
ENCODING 43
SWIDTH 576 0
DWIDTH 8 0
BBX 6 5 1 2
BITMAP
30
30
FC
30
30
ENDCHAR
STARTCHAR comma
ENCODING 44
SWIDTH 266 0
DWIDTH 4 0
BBX 3 4 0 -1
BITMAP
60
60
60
C0
ENDCHAR
STARTCHAR hyphen
ENCODING 45
SWIDTH 400 0
DWIDTH 6 0
BBX 5 1 0 4
BITMAP
F8
ENDCHAR
STARTCHAR period
ENCODING 46
SWIDTH 333 0
DWIDTH 5 0
BBX 2 2 1 0
BITMAP
C0
C0
ENDCHAR
STARTCHAR slash
ENCODING 47
SWIDTH 576 0
DWIDTH 8 0
BBX 7 8 0 0
BITMAP
02
06
0C
18
30
60
C0
80
ENDCHAR
STARTCHAR zero
ENCODING 48
SWIDTH 576 0
DWIDTH 8 0
BBX 7 10 0 0
BITMAP
7C
C6
CE
CE
D6
D6
E6
E6
C6
7C
ENDCHAR
STARTCHAR one
ENCODING 49
SWIDTH 576 0
DWIDTH 8 0
BBX 4 10 2 0
BITMAP
20
60
E0
60
60
60
60
60
60
F0
ENDCHAR
STARTCHAR two
ENCODING 50
SWIDTH 576 0
DWIDTH 8 0
BBX 7 10 0 0
BITMAP
7C
06
06
06
3C
60
C0
C0
C0
FE
ENDCHAR
STARTCHAR three
ENCODING 51
SWIDTH 576 0
DWIDTH 8 0
BBX 7 10 0 0
BITMAP
FC
06
06
06
3C
06
06
06
06
FC
ENDCHAR
STARTCHAR four
ENCODING 52
SWIDTH 576 0
DWIDTH 8 0
BBX 7 10 0 0
BITMAP
02
06
46
C6
C6
FE
06
06
06
06
ENDCHAR
STARTCHAR five
ENCODING 53
SWIDTH 576 0
DWIDTH 8 0
BBX 7 10 0 0
BITMAP
FE
C0
C0
C0
FC
06
06
06
06
FC
ENDCHAR
STARTCHAR six
ENCODING 54
SWIDTH 576 0
DWIDTH 8 0
BBX 7 10 0 0
BITMAP
3E
60
C0
C0
FC
C6
C6
C6
C6
7C
ENDCHAR
STARTCHAR seven
ENCODING 55
SWIDTH 576 0
DWIDTH 8 0
BBX 7 10 0 0
BITMAP
FE
06
06
06
0C
18
30
30
30
30
ENDCHAR
STARTCHAR eight
ENCODING 56
SWIDTH 576 0
DWIDTH 8 0
BBX 7 10 0 0
BITMAP
7C
C6
C6
C6
7C
C6
C6
C6
C6
7C
ENDCHAR
STARTCHAR nine
ENCODING 57
SWIDTH 576 0
DWIDTH 8 0
BBX 7 10 0 0
BITMAP
7C
C6
C6
C6
7E
06
06
06
0C
F8
ENDCHAR
STARTCHAR colon
ENCODING 58
SWIDTH 333 0
DWIDTH 5 0
BBX 2 7 1 1
BITMAP
C0
C0
00
00
00
C0
C0
ENDCHAR
STARTCHAR semicolon
ENCODING 59
SWIDTH 333 0
DWIDTH 5 0
BBX 3 8 0 0
BITMAP
60
60
00
00
00
60
60
C0
ENDCHAR
STARTCHAR less
ENCODING 60
SWIDTH 576 0
DWIDTH 8 0
BBX 6 9 1 0
BITMAP
0C
18
30
60
C0
60
30
18
0C
ENDCHAR
STARTCHAR equal
ENCODING 61
SWIDTH 576 0
DWIDTH 8 0
BBX 6 4 1 3
BITMAP
FC
00
00
FC
ENDCHAR
STARTCHAR greater
ENCODING 62
SWIDTH 576 0
DWIDTH 8 0
BBX 6 9 1 0
BITMAP
C0
60
30
18
0C
18
30
60
C0
ENDCHAR
STARTCHAR question
ENCODING 63
SWIDTH 576 0
DWIDTH 8 0
BBX 6 10 1 0
BITMAP
F8
0C
0C
18
30
30
30
00
30
30
ENDCHAR
STARTCHAR at
ENCODING 64
SWIDTH 576 0
DWIDTH 8 0
BBX 7 10 0 0
BITMAP
38
44
82
9A
AA
AA
AA
94
40
3E
ENDCHAR
STARTCHAR A
ENCODING 65
SWIDTH 576 0
DWIDTH 8 0
BBX 7 10 0 0
BITMAP
3E
66
C6
C6
C6
FE
C6
C6
C6
C6
ENDCHAR
STARTCHAR B
ENCODING 66
SWIDTH 576 0
DWIDTH 8 0
BBX 7 10 0 0
BITMAP
FC
C6
C6
C6
FC
C6
C6
C6
C6
FC
ENDCHAR
STARTCHAR C
ENCODING 67
SWIDTH 576 0
DWIDTH 8 0
BBX 7 10 0 0
BITMAP
3E
60
C0
C0
C0
C0
C0
C0
60
3E
ENDCHAR
STARTCHAR D
ENCODING 68
SWIDTH 576 0
DWIDTH 8 0
BBX 7 10 0 0
BITMAP
FC
C6
C6
C6
C6
C6
C6
C6
C6
FC
ENDCHAR
STARTCHAR E
ENCODING 69
SWIDTH 576 0
DWIDTH 8 0
BBX 7 10 0 0
BITMAP
FE
C0
C0
C0
F8
C0
C0
C0
C0
FE
ENDCHAR
STARTCHAR F
ENCODING 70
SWIDTH 576 0
DWIDTH 8 0
BBX 7 10 0 0
BITMAP
FE
C0
C0
C0
F8
C0
C0
C0
C0
C0
ENDCHAR
STARTCHAR G
ENCODING 71
SWIDTH 576 0
DWIDTH 8 0
BBX 7 10 0 0
BITMAP
7E
C0
C0
C0
DE
C6
C6
C6
C6
7E
ENDCHAR
STARTCHAR H
ENCODING 72
SWIDTH 576 0
DWIDTH 8 0
BBX 7 10 0 0
BITMAP
C6
C6
C6
C6
FE
C6
C6
C6
C6
C6
ENDCHAR
STARTCHAR I
ENCODING 73
SWIDTH 333 0
DWIDTH 5 0
BBX 2 10 1 0
BITMAP
C0
C0
C0
C0
C0
C0
C0
C0
C0
C0
ENDCHAR
STARTCHAR J
ENCODING 74
SWIDTH 576 0
DWIDTH 8 0
BBX 7 10 0 0
BITMAP
06
06
06
06
06
06
06
06
0C
F8
ENDCHAR
STARTCHAR K
ENCODING 75
SWIDTH 576 0
DWIDTH 8 0
BBX 7 10 0 0
BITMAP
C6
C6
C6
CC
F8
CC
C6
C6
C6
C6
ENDCHAR
STARTCHAR L
ENCODING 76
SWIDTH 576 0
DWIDTH 8 0
BBX 7 10 0 0
BITMAP
C0
C0
C0
C0
C0
C0
C0
C0
C0
FE
ENDCHAR
STARTCHAR M
ENCODING 77
SWIDTH 576 0
DWIDTH 8 0
BBX 7 10 0 0
BITMAP
C6
EE
FE
FE
D6
C6
C6
C6
C6
C6
ENDCHAR
STARTCHAR N
ENCODING 78
SWIDTH 576 0
DWIDTH 8 0
BBX 7 10 0 0
BITMAP
F8
CC
C6
C6
C6
C6
C6
C6
C6
C6
ENDCHAR
STARTCHAR O
ENCODING 79
SWIDTH 576 0
DWIDTH 8 0
BBX 7 10 0 0
BITMAP
7C
C6
C6
C6
C6
C6
C6
C6
C6
7C
ENDCHAR
STARTCHAR P
ENCODING 80
SWIDTH 576 0
DWIDTH 8 0
BBX 7 10 0 0
BITMAP
FC
C6
C6
CC
F8
C0
C0
C0
C0
C0
ENDCHAR
STARTCHAR Q
ENCODING 81
SWIDTH 576 0
DWIDTH 8 0
BBX 7 12 0 -2
BITMAP
7C
C6
C6
C6
C6
C6
C6
D6
DE
7C
0E
06
ENDCHAR
STARTCHAR R
ENCODING 82
SWIDTH 576 0
DWIDTH 8 0
BBX 7 10 0 0
BITMAP
FC
C6
C6
CC
F8
CC
C6
C6
C6
C6
ENDCHAR
STARTCHAR S
ENCODING 83
SWIDTH 576 0
DWIDTH 8 0
BBX 7 10 0 0
BITMAP
7E
C0
C0
60
38
0C
06
06
06
FC
ENDCHAR
STARTCHAR T
ENCODING 84
SWIDTH 576 0
DWIDTH 8 0
BBX 6 10 1 0
BITMAP
FC
30
30
30
30
30
30
30
30
30
ENDCHAR
STARTCHAR U
ENCODING 85
SWIDTH 576 0
DWIDTH 8 0
BBX 7 10 0 0
BITMAP
C6
C6
C6
C6
C6
C6
C6
C6
C6
7C
ENDCHAR
STARTCHAR V
ENCODING 86
SWIDTH 576 0
DWIDTH 8 0
BBX 7 10 0 0
BITMAP
C6
C6
C6
C6
C6
C6
C6
6C
38
10
ENDCHAR
STARTCHAR W
ENCODING 87
SWIDTH 576 0
DWIDTH 8 0
BBX 7 10 0 0
BITMAP
C6
C6
C6
C6
D6
D6
D6
FE
EE
6C
ENDCHAR
STARTCHAR X
ENCODING 88
SWIDTH 576 0
DWIDTH 8 0
BBX 7 10 0 0
BITMAP
C6
C6
C6
6C
38
6C
C6
C6
C6
C6
ENDCHAR
STARTCHAR Y
ENCODING 89
SWIDTH 576 0
DWIDTH 8 0
BBX 7 10 0 0
BITMAP
C6
C6
C6
66
3E
0E
06
06
06
FC
ENDCHAR
STARTCHAR Z
ENCODING 90
SWIDTH 576 0
DWIDTH 8 0
BBX 7 10 0 0
BITMAP
FE
06
06
0C
18
30
60
C0
C0
FE
ENDCHAR
STARTCHAR bracketleft
ENCODING 91
SWIDTH 466 0
DWIDTH 7 0
BBX 4 10 1 0
BITMAP
F0
C0
C0
C0
C0
C0
C0
C0
C0
F0
ENDCHAR
STARTCHAR backslash
ENCODING 92
SWIDTH 576 0
DWIDTH 8 0
BBX 7 9 0 0
BITMAP
80
C0
E0
70
38
1C
0E
06
02
ENDCHAR
STARTCHAR bracketright
ENCODING 93
SWIDTH 466 0
DWIDTH 7 0
BBX 4 10 1 0
BITMAP
F0
30
30
30
30
30
30
30
30
F0
ENDCHAR
STARTCHAR asciicircum
ENCODING 94
SWIDTH 576 0
DWIDTH 8 0
BBX 7 4 0 7
BITMAP
10
38
6C
C6
ENDCHAR
STARTCHAR underscore
ENCODING 95
SWIDTH 576 0
DWIDTH 8 0
BBX 8 1 0 -2
BITMAP
FF
ENDCHAR
STARTCHAR grave
ENCODING 96
SWIDTH 400 0
DWIDTH 6 0
BBX 4 3 1 8
BITMAP
C0
60
30
ENDCHAR
STARTCHAR a
ENCODING 97
SWIDTH 576 0
DWIDTH 8 0
BBX 7 7 0 0
BITMAP
7C
06
7E
C6
C6
C6
7E
ENDCHAR
STARTCHAR b
ENCODING 98
SWIDTH 576 0
DWIDTH 8 0
BBX 7 10 0 0
BITMAP
C0
C0
C0
FC
C6
C6
C6
C6
C6
FC
ENDCHAR
STARTCHAR c
ENCODING 99
SWIDTH 576 0
DWIDTH 8 0
BBX 7 7 0 0
BITMAP
7E
C0
C0
C0
C0
C0
7E
ENDCHAR
STARTCHAR d
ENCODING 100
SWIDTH 576 0
DWIDTH 8 0
BBX 7 10 0 0
BITMAP
06
06
06
7E
C6
C6
C6
C6
C6
7E
ENDCHAR
STARTCHAR e
ENCODING 101
SWIDTH 576 0
DWIDTH 8 0
BBX 7 7 0 0
BITMAP
7C
C6
C6
FE
C0
C0
7E
ENDCHAR
STARTCHAR f
ENCODING 102
SWIDTH 466 0
DWIDTH 7 0
BBX 6 10 0 0
BITMAP
3C
60
60
60
F8
60
60
60
60
60
ENDCHAR
STARTCHAR g
ENCODING 103
SWIDTH 576 0
DWIDTH 8 0
BBX 7 10 0 -3
BITMAP
7E
C6
C6
C6
C6
C6
7E
06
06
FC
ENDCHAR
STARTCHAR h
ENCODING 104
SWIDTH 576 0
DWIDTH 8 0
BBX 7 10 0 0
BITMAP
C0
C0
C0
FC
C6
C6
C6
C6
C6
C6
ENDCHAR
STARTCHAR i
ENCODING 105
SWIDTH 333 0
DWIDTH 5 0
BBX 2 10 1 0
BITMAP
C0
C0
00
C0
C0
C0
C0
C0
C0
C0
ENDCHAR
STARTCHAR j
ENCODING 106
SWIDTH 400 0
DWIDTH 6 0
BBX 6 12 -1 -3
BITMAP
0C
0C
00
0C
0C
0C
0C
0C
0C
0C
18
F0
ENDCHAR
STARTCHAR k
ENCODING 107
SWIDTH 576 0
DWIDTH 8 0
BBX 7 10 0 0
BITMAP
C0
C0
C0
C6
CC
F8
CC
C6
C6
C6
ENDCHAR
STARTCHAR l
ENCODING 108
SWIDTH 333 0
DWIDTH 5 0
BBX 3 10 0 0
BITMAP
E0
60
60
60
60
60
60
60
60
60
ENDCHAR
STARTCHAR m
ENCODING 109
SWIDTH 600 0
DWIDTH 9 0
BBX 8 7 0 0
BITMAP
FE
DB
DB
DB
DB
DB
DB
ENDCHAR
STARTCHAR n
ENCODING 110
SWIDTH 576 0
DWIDTH 8 0
BBX 7 7 0 0
BITMAP
FC
C6
C6
C6
C6
C6
C6
ENDCHAR
STARTCHAR o
ENCODING 111
SWIDTH 576 0
DWIDTH 8 0
BBX 7 7 0 0
BITMAP
7C
C6
C6
C6
C6
C6
7C
ENDCHAR
STARTCHAR p
ENCODING 112
SWIDTH 576 0
DWIDTH 8 0
BBX 7 10 0 -3
BITMAP
FC
C6
C6
C6
C6
C6
FC
C0
C0
C0
ENDCHAR
STARTCHAR q
ENCODING 113
SWIDTH 576 0
DWIDTH 8 0
BBX 7 10 0 -3
BITMAP
7E
C6
C6
C6
C6
C6
7E
06
06
06
ENDCHAR
STARTCHAR r
ENCODING 114
SWIDTH 576 0
DWIDTH 8 0
BBX 7 7 0 0
BITMAP
DE
E0
C0
C0
C0
C0
C0
ENDCHAR
STARTCHAR s
ENCODING 115
SWIDTH 576 0
DWIDTH 8 0
BBX 7 7 0 0
BITMAP
7E
C0
C0
7C
06
06
FC
ENDCHAR
STARTCHAR t
ENCODING 116
SWIDTH 466 0
DWIDTH 7 0
BBX 6 10 0 0
BITMAP
20
60
60
FC
60
60
60
60
60
3C
ENDCHAR
STARTCHAR u
ENCODING 117
SWIDTH 576 0
DWIDTH 8 0
BBX 7 7 0 0
BITMAP
C6
C6
C6
C6
C6
C6
7E
ENDCHAR
STARTCHAR v
ENCODING 118
SWIDTH 576 0
DWIDTH 8 0
BBX 7 7 0 0
BITMAP
C6
C6
C6
C6
C6
6C
38
ENDCHAR
STARTCHAR w
ENCODING 119
SWIDTH 576 0
DWIDTH 8 0
BBX 7 7 0 0
BITMAP
C6
C6
D6
D6
D6
FE
6C
ENDCHAR
STARTCHAR x
ENCODING 120
SWIDTH 576 0
DWIDTH 8 0
BBX 7 7 0 0
BITMAP
C6
6C
38
38
38
6C
C6
ENDCHAR
STARTCHAR y
ENCODING 121
SWIDTH 576 0
DWIDTH 8 0
BBX 7 10 0 -3
BITMAP
C6
C6
C6
C6
C6
C6
7E
06
0C
F8
ENDCHAR
STARTCHAR z
ENCODING 122
SWIDTH 576 0
DWIDTH 8 0
BBX 7 7 0 0
BITMAP
FE
0C
18
30
60
C0
FE
ENDCHAR
STARTCHAR braceleft
ENCODING 123
SWIDTH 576 0
DWIDTH 8 0
BBX 6 10 1 0
BITMAP
1C
30
30
30
E0
30
30
30
30
1C
ENDCHAR
STARTCHAR bar
ENCODING 124
SWIDTH 333 0
DWIDTH 5 0
BBX 2 12 1 -1
BITMAP
C0
C0
C0
C0
C0
C0
C0
C0
C0
C0
C0
C0
ENDCHAR
STARTCHAR braceright
ENCODING 125
SWIDTH 576 0
DWIDTH 8 0
BBX 6 10 1 0
BITMAP
E0
30
30
30
1C
30
30
30
30
E0
ENDCHAR
STARTCHAR asciitilde
ENCODING 126
SWIDTH 576 0
DWIDTH 8 0
BBX 7 2 0 9
BITMAP
76
DC
ENDCHAR
STARTCHAR uni00A0
ENCODING 160
SWIDTH 576 0
DWIDTH 8 0
BBX 7 2 0 0
BITMAP
82
FE
ENDCHAR
STARTCHAR exclamdown
ENCODING 161
SWIDTH 576 0
DWIDTH 8 0
BBX 2 10 3 0
BITMAP
C0
C0
00
C0
C0
C0
C0
C0
C0
C0
ENDCHAR
STARTCHAR cent
ENCODING 162
SWIDTH 576 0
DWIDTH 8 0
BBX 7 10 0 0
BITMAP
18
18
7E
C0
C0
C0
C0
7E
18
18
ENDCHAR
STARTCHAR sterling
ENCODING 163
SWIDTH 576 0
DWIDTH 8 0
BBX 7 11 0 0
BITMAP
38
6C
64
60
F0
60
60
60
60
E6
FC
ENDCHAR
STARTCHAR currency
ENCODING 164
SWIDTH 576 0
DWIDTH 8 0
BBX 7 8 0 0
BITMAP
82
7C
44
82
82
44
7C
82
ENDCHAR
STARTCHAR yen
ENCODING 165
SWIDTH 576 0
DWIDTH 8 0
BBX 6 9 1 0
BITMAP
CC
CC
78
30
FC
30
FC
30
30
ENDCHAR
STARTCHAR brokenbar
ENCODING 166
SWIDTH 576 0
DWIDTH 8 0
BBX 2 12 3 -1
BITMAP
C0
C0
C0
C0
C0
00
00
C0
C0
C0
C0
C0
ENDCHAR
STARTCHAR section
ENCODING 167
SWIDTH 576 0
DWIDTH 8 0
BBX 7 12 0 -1
BITMAP
7C
C6
60
38
6C
C6
C6
6C
38
0C
C6
7C
ENDCHAR
STARTCHAR dieresis
ENCODING 168
SWIDTH 576 0
DWIDTH 8 0
BBX 7 1 0 10
BITMAP
C6
ENDCHAR
STARTCHAR copyright
ENCODING 169
SWIDTH 576 0
DWIDTH 8 0
BBX 8 9 0 1
BITMAP
3C
42
99
A5
A1
A5
99
42
3C
ENDCHAR
STARTCHAR ordfeminine
ENCODING 170
SWIDTH 576 0
DWIDTH 8 0
BBX 6 6 1 4
BITMAP
78
D8
D8
7C
00
FC
ENDCHAR
STARTCHAR guillemotleft
ENCODING 171
SWIDTH 576 0
DWIDTH 8 0
BBX 7 5 0 2
BITMAP
36
6C
D8
6C
36
ENDCHAR
STARTCHAR logicalnot
ENCODING 172
SWIDTH 576 0
DWIDTH 8 0
BBX 7 5 0 1
BITMAP
FE
06
06
06
06
ENDCHAR
STARTCHAR uni00AD
ENCODING 173
SWIDTH 576 0
DWIDTH 8 0
BBX 6 1 1 4
BITMAP
FC
ENDCHAR
STARTCHAR registered
ENCODING 174
SWIDTH 576 0
DWIDTH 8 0
BBX 8 9 0 1
BITMAP
3C
42
B9
A5
B9
A5
A5
42
3C
ENDCHAR
STARTCHAR macron
ENCODING 175
SWIDTH 576 0
DWIDTH 8 0
BBX 8 1 0 11
BITMAP
FF
ENDCHAR
STARTCHAR degree
ENCODING 176
SWIDTH 576 0
DWIDTH 8 0
BBX 5 4 1 7
BITMAP
70
D8
D8
70
ENDCHAR
STARTCHAR plusminus
ENCODING 177
SWIDTH 576 0
DWIDTH 8 0
BBX 6 7 1 0
BITMAP
30
30
FC
30
30
00
FC
ENDCHAR
STARTCHAR uni00B2
ENCODING 178
SWIDTH 576 0
DWIDTH 8 0
BBX 6 6 1 5
BITMAP
F8
0C
38
60
C0
FC
ENDCHAR
STARTCHAR uni00B3
ENCODING 179
SWIDTH 576 0
DWIDTH 8 0
BBX 6 6 1 5
BITMAP
F8
0C
78
0C
0C
F8
ENDCHAR
STARTCHAR acute
ENCODING 180
SWIDTH 576 0
DWIDTH 8 0
BBX 4 3 1 8
BITMAP
30
60
C0
ENDCHAR
STARTCHAR mu
ENCODING 181
SWIDTH 576 0
DWIDTH 8 0
BBX 7 10 0 -3
BITMAP
CC
CC
CC
CC
CC
CC
F6
C0
C0
C0
ENDCHAR
STARTCHAR paragraph
ENCODING 182
SWIDTH 576 0
DWIDTH 8 0
BBX 8 10 0 0
BITMAP
7F
D6
D6
76
36
36
36
36
36
36
ENDCHAR
STARTCHAR periodcentered
ENCODING 183
SWIDTH 576 0
DWIDTH 8 0
BBX 2 2 3 4
BITMAP
C0
C0
ENDCHAR
STARTCHAR cedilla
ENCODING 184
SWIDTH 576 0
DWIDTH 8 0
BBX 5 3 1 -3
BITMAP
30
D8
70
ENDCHAR
STARTCHAR uni00B9
ENCODING 185
SWIDTH 576 0
DWIDTH 8 0
BBX 4 6 2 5
BITMAP
60
E0
60
60
60
F0
ENDCHAR
STARTCHAR ordmasculine
ENCODING 186
SWIDTH 576 0
DWIDTH 8 0
BBX 5 6 1 4
BITMAP
70
D8
D8
70
00
F8
ENDCHAR
STARTCHAR guillemotright
ENCODING 187
SWIDTH 576 0
DWIDTH 8 0
BBX 7 5 0 2
BITMAP
D8
6C
36
6C
D8
ENDCHAR
STARTCHAR onequarter
ENCODING 188
SWIDTH 576 0
DWIDTH 8 0
BBX 8 14 0 -2
BITMAP
60
E0
60
60
F6
0C
18
30
66
CE
1A
3F
06
06
ENDCHAR
STARTCHAR onehalf
ENCODING 189
SWIDTH 576 0
DWIDTH 8 0
BBX 8 13 0 -1
BITMAP
60
E0
60
60
F6
0C
18
30
6E
DB
06
0C
1F
ENDCHAR
STARTCHAR threequarters
ENCODING 190
SWIDTH 576 0
DWIDTH 8 0
BBX 8 14 0 -2
BITMAP
70
D8
30
D8
76
0C
18
30
66
CE
1A
3F
06
06
ENDCHAR
STARTCHAR questiondown
ENCODING 191
SWIDTH 576 0
DWIDTH 8 0
BBX 7 10 0 0
BITMAP
30
30
00
30
30
60
C0
C6
C6
7C
ENDCHAR
STARTCHAR Agrave
ENCODING 192
SWIDTH 576 0
DWIDTH 8 0
BBX 7 13 0 0
BITMAP
30
18
00
3E
66
C6
C6
C6
FE
C6
C6
C6
C6
ENDCHAR
STARTCHAR Aacute
ENCODING 193
SWIDTH 576 0
DWIDTH 8 0
BBX 7 13 0 0
BITMAP
0C
18
00
3E
66
C6
C6
C6
FE
C6
C6
C6
C6
ENDCHAR
STARTCHAR Acircumflex
ENCODING 194
SWIDTH 576 0
DWIDTH 8 0
BBX 7 13 0 0
BITMAP
10
28
00
3E
66
C6
C6
C6
FE
C6
C6
C6
C6
ENDCHAR
STARTCHAR Atilde
ENCODING 195
SWIDTH 576 0
DWIDTH 8 0
BBX 7 13 0 0
BITMAP
34
58
00
3E
66
C6
C6
C6
FE
C6
C6
C6
C6
ENDCHAR
STARTCHAR Adieresis
ENCODING 196
SWIDTH 576 0
DWIDTH 8 0
BBX 7 12 0 0
BITMAP
C6
00
3E
66
C6
C6
C6
FE
C6
C6
C6
C6
ENDCHAR
STARTCHAR Aring
ENCODING 197
SWIDTH 576 0
DWIDTH 8 0
BBX 7 13 0 0
BITMAP
10
28
10
3E
66
C6
C6
C6
FE
C6
C6
C6
C6
ENDCHAR
STARTCHAR AE
ENCODING 198
SWIDTH 576 0
DWIDTH 8 0
BBX 7 10 0 0
BITMAP
3E
78
D8
D8
FE
D8
D8
D8
D8
DE
ENDCHAR
STARTCHAR Ccedilla
ENCODING 199
SWIDTH 576 0
DWIDTH 8 0
BBX 7 12 0 -2
BITMAP
3E
60
C0
C0
C0
C0
C0
C0
60
3E
18
38
ENDCHAR
STARTCHAR Egrave
ENCODING 200
SWIDTH 576 0
DWIDTH 8 0
BBX 7 12 0 0
BITMAP
30
18
FE
C0
C0
C0
F8
C0
C0
C0
C0
FE
ENDCHAR
STARTCHAR Eacute
ENCODING 201
SWIDTH 576 0
DWIDTH 8 0
BBX 7 12 0 0
BITMAP
0C
18
FE
C0
C0
C0
F8
C0
C0
C0
C0
FE
ENDCHAR
STARTCHAR Ecircumflex
ENCODING 202
SWIDTH 576 0
DWIDTH 8 0
BBX 7 12 0 0
BITMAP
10
28
FE
C0
C0
C0
F8
C0
C0
C0
C0
FE
ENDCHAR
STARTCHAR Edieresis
ENCODING 203
SWIDTH 576 0
DWIDTH 8 0
BBX 7 12 0 0
BITMAP
C6
00
FE
C0
C0
C0
F8
C0
C0
C0
C0
FE
ENDCHAR
STARTCHAR Igrave
ENCODING 204
SWIDTH 333 0
DWIDTH 5 0
BBX 3 12 0 0
BITMAP
C0
60
60
60
60
60
60
60
60
60
60
60
ENDCHAR
STARTCHAR Iacute
ENCODING 205
SWIDTH 333 0
DWIDTH 5 0
BBX 3 12 1 0
BITMAP
60
C0
C0
C0
C0
C0
C0
C0
C0
C0
C0
C0
ENDCHAR
STARTCHAR Icircumflex
ENCODING 206
SWIDTH 333 0
DWIDTH 5 0
BBX 4 12 0 0
BITMAP
60
90
60
60
60
60
60
60
60
60
60
60
ENDCHAR
STARTCHAR Idieresis
ENCODING 207
SWIDTH 333 0
DWIDTH 5 0
BBX 6 12 -1 0
BITMAP
CC
00
30
30
30
30
30
30
30
30
30
30
ENDCHAR
STARTCHAR Eth
ENCODING 208
SWIDTH 576 0
DWIDTH 8 0
BBX 7 10 0 0
BITMAP
78
6C
66
66
F6
66
66
66
6C
78
ENDCHAR
STARTCHAR Ntilde
ENCODING 209
SWIDTH 576 0
DWIDTH 8 0
BBX 7 12 0 0
BITMAP
34
58
FC
C6
C6
C6
C6
C6
C6
C6
C6
C6
ENDCHAR
STARTCHAR Ograve
ENCODING 210
SWIDTH 576 0
DWIDTH 8 0
BBX 7 12 0 0
BITMAP
60
30
7C
C6
C6
C6
C6
C6
C6
C6
C6
7C
ENDCHAR
STARTCHAR Oacute
ENCODING 211
SWIDTH 576 0
DWIDTH 8 0
BBX 7 12 0 0
BITMAP
0C
18
7C
C6
C6
C6
C6
C6
C6
C6
C6
7C
ENDCHAR
STARTCHAR Ocircumflex
ENCODING 212
SWIDTH 576 0
DWIDTH 8 0
BBX 7 12 0 0
BITMAP
10
28
7C
C6
C6
C6
C6
C6
C6
C6
C6
7C
ENDCHAR
STARTCHAR Otilde
ENCODING 213
SWIDTH 576 0
DWIDTH 8 0
BBX 7 12 0 0
BITMAP
34
58
7C
C6
C6
C6
C6
C6
C6
C6
C6
7C
ENDCHAR
STARTCHAR Odieresis
ENCODING 214
SWIDTH 576 0
DWIDTH 8 0
BBX 7 12 0 0
BITMAP
C6
00
7C
C6
C6
C6
C6
C6
C6
C6
C6
7C
ENDCHAR
STARTCHAR multiply
ENCODING 215
SWIDTH 576 0
DWIDTH 8 0
BBX 7 6 0 1
BITMAP
C6
6C
38
38
6C
C6
ENDCHAR
STARTCHAR Oslash
ENCODING 216
SWIDTH 576 0
DWIDTH 8 0
BBX 7 12 0 -1
BITMAP
04
7C
CE
CE
D6
D6
D6
D6
E6
E6
7C
40
ENDCHAR
STARTCHAR Ugrave
ENCODING 217
SWIDTH 576 0
DWIDTH 8 0
BBX 7 12 0 0
BITMAP
30
18
C6
C6
C6
C6
C6
C6
C6
C6
C6
7C
ENDCHAR
STARTCHAR Uacute
ENCODING 218
SWIDTH 576 0
DWIDTH 8 0
BBX 7 12 0 0
BITMAP
18
30
C6
C6
C6
C6
C6
C6
C6
C6
C6
7C
ENDCHAR
STARTCHAR Ucircumflex
ENCODING 219
SWIDTH 576 0
DWIDTH 8 0
BBX 7 12 0 0
BITMAP
10
28
C6
C6
C6
C6
C6
C6
C6
C6
C6
7C
ENDCHAR
STARTCHAR Udieresis
ENCODING 220
SWIDTH 576 0
DWIDTH 8 0
BBX 7 12 0 0
BITMAP
C6
00
C6
C6
C6
C6
C6
C6
C6
C6
C6
7C
ENDCHAR
STARTCHAR Yacute
ENCODING 221
SWIDTH 576 0
DWIDTH 8 0
BBX 7 12 0 0
BITMAP
0C
18
C6
C6
C6
66
3E
0E
06
06
06
FC
ENDCHAR
STARTCHAR Thorn
ENCODING 222
SWIDTH 466 0
DWIDTH 7 0
BBX 6 10 0 0
BITMAP
C0
C0
F8
CC
CC
CC
CC
F8
C0
C0
ENDCHAR
STARTCHAR germandbls
ENCODING 223
SWIDTH 576 0
DWIDTH 8 0
BBX 7 11 0 -1
BITMAP
78
CC
CC
CC
D8
CC
C6
C6
C6
CC
C0
ENDCHAR
STARTCHAR agrave
ENCODING 224
SWIDTH 576 0
DWIDTH 8 0
BBX 7 11 0 0
BITMAP
60
30
18
00
7C
06
7E
C6
C6
C6
7E
ENDCHAR
STARTCHAR aacute
ENCODING 225
SWIDTH 576 0
DWIDTH 8 0
BBX 7 11 0 0
BITMAP
18
30
60
00
7C
06
7E
C6
C6
C6
7E
ENDCHAR
STARTCHAR acircumflex
ENCODING 226
SWIDTH 576 0
DWIDTH 8 0
BBX 7 11 0 0
BITMAP
10
38
6C
00
7C
06
7E
C6
C6
C6
7E
ENDCHAR
STARTCHAR atilde
ENCODING 227
SWIDTH 576 0
DWIDTH 8 0
BBX 7 10 0 0
BITMAP
76
DC
00
7C
06
7E
C6
C6
C6
7E
ENDCHAR
STARTCHAR adieresis
ENCODING 228
SWIDTH 576 0
DWIDTH 8 0
BBX 7 10 0 0
BITMAP
CC
CC
00
7C
06
7E
C6
C6
C6
7E
ENDCHAR
STARTCHAR aring
ENCODING 229
SWIDTH 576 0
DWIDTH 8 0
BBX 7 11 0 0
BITMAP
38
6C
38
00
7C
06
7E
C6
C6
C6
7E
ENDCHAR
STARTCHAR ae
ENCODING 230
SWIDTH 576 0
DWIDTH 8 0
BBX 7 7 0 0
BITMAP
EC
36
36
7E
D8
D8
6E
ENDCHAR
STARTCHAR ccedilla
ENCODING 231
SWIDTH 576 0
DWIDTH 8 0
BBX 7 9 0 -2
BITMAP
7E
C0
C0
C0
C0
C0
7E
18
38
ENDCHAR
STARTCHAR egrave
ENCODING 232
SWIDTH 576 0
DWIDTH 8 0
BBX 7 11 0 0
BITMAP
60
30
18
00
7C
C6
C6
FE
C0
C0
7E
ENDCHAR
STARTCHAR eacute
ENCODING 233
SWIDTH 576 0
DWIDTH 8 0
BBX 7 11 0 0
BITMAP
0C
18
30
00
7C
C6
C6
FE
C0
C0
7E
ENDCHAR
STARTCHAR ecircumflex
ENCODING 234
SWIDTH 576 0
DWIDTH 8 0
BBX 7 11 0 0
BITMAP
10
38
6C
00
7C
C6
C6
FE
C0
C0
7E
ENDCHAR
STARTCHAR edieresis
ENCODING 235
SWIDTH 576 0
DWIDTH 8 0
BBX 7 10 0 0
BITMAP
C6
00
00
7C
C6
C6
FE
C0
C0
7E
ENDCHAR
STARTCHAR igrave
ENCODING 236
SWIDTH 333 0
DWIDTH 5 0
BBX 4 11 -1 0
BITMAP
C0
60
30
00
30
30
30
30
30
30
30
ENDCHAR
STARTCHAR iacute
ENCODING 237
SWIDTH 333 0
DWIDTH 5 0
BBX 4 11 1 0
BITMAP
30
60
C0
00
C0
C0
C0
C0
C0
C0
C0
ENDCHAR
STARTCHAR icircumflex
ENCODING 238
SWIDTH 333 0
DWIDTH 5 0
BBX 6 11 -1 0
BITMAP
30
78
CC
00
30
30
30
30
30
30
30
ENDCHAR
STARTCHAR idieresis
ENCODING 239
SWIDTH 333 0
DWIDTH 5 0
BBX 5 10 0 0
BITMAP
D8
D8
00
60
60
60
60
60
60
60
ENDCHAR
STARTCHAR eth
ENCODING 240
SWIDTH 576 0
DWIDTH 8 0
BBX 7 10 0 0
BITMAP
34
18
2C
06
7E
C6
C6
C6
C6
7C
ENDCHAR
STARTCHAR ntilde
ENCODING 241
SWIDTH 576 0
DWIDTH 8 0
BBX 7 10 0 0
BITMAP
76
DC
00
FC
C6
C6
C6
C6
C6
C6
ENDCHAR
STARTCHAR ograve
ENCODING 242
SWIDTH 576 0
DWIDTH 8 0
BBX 7 11 0 0
BITMAP
60
30
18
00
7C
C6
C6
C6
C6
C6
7C
ENDCHAR
STARTCHAR oacute
ENCODING 243
SWIDTH 576 0
DWIDTH 8 0
BBX 7 11 0 0
BITMAP
0C
18
30
00
7C
C6
C6
C6
C6
C6
7C
ENDCHAR
STARTCHAR ocircumflex
ENCODING 244
SWIDTH 576 0
DWIDTH 8 0
BBX 7 11 0 0
BITMAP
10
38
6C
00
7C
C6
C6
C6
C6
C6
7C
ENDCHAR
STARTCHAR otilde
ENCODING 245
SWIDTH 576 0
DWIDTH 8 0
BBX 7 10 0 0
BITMAP
34
58
00
7C
C6
C6
C6
C6
C6
7C
ENDCHAR
STARTCHAR odieresis
ENCODING 246
SWIDTH 576 0
DWIDTH 8 0
BBX 7 10 0 0
BITMAP
C6
C6
00
7C
C6
C6
C6
C6
C6
7C
ENDCHAR
STARTCHAR divide
ENCODING 247
SWIDTH 576 0
DWIDTH 8 0
BBX 6 5 1 2
BITMAP
30
00
FC
00
30
ENDCHAR
STARTCHAR oslash
ENCODING 248
SWIDTH 576 0
DWIDTH 8 0
BBX 7 7 0 0
BITMAP
7C
CE
DE
F6
E6
C6
7C
ENDCHAR
STARTCHAR ugrave
ENCODING 249
SWIDTH 576 0
DWIDTH 8 0
BBX 7 11 0 0
BITMAP
60
30
18
00
C6
C6
C6
C6
C6
C6
7E
ENDCHAR
STARTCHAR uacute
ENCODING 250
SWIDTH 576 0
DWIDTH 8 0
BBX 7 11 0 0
BITMAP
18
30
60
00
C6
C6
C6
C6
C6
C6
7E
ENDCHAR
STARTCHAR ucircumflex
ENCODING 251
SWIDTH 576 0
DWIDTH 8 0
BBX 7 11 0 0
BITMAP
30
78
CC
00
C6
C6
C6
C6
C6
C6
7E
ENDCHAR
STARTCHAR udieresis
ENCODING 252
SWIDTH 576 0
DWIDTH 8 0
BBX 7 10 0 0
BITMAP
C6
C6
00
C6
C6
C6
C6
C6
C6
7E
ENDCHAR
STARTCHAR yacute
ENCODING 253
SWIDTH 576 0
DWIDTH 8 0
BBX 7 14 0 -3
BITMAP
0C
18
30
00
C6
C6
C6
C6
C6
C6
7E
06
0C
F8
ENDCHAR
STARTCHAR thorn
ENCODING 254
SWIDTH 466 0
DWIDTH 7 0
BBX 6 13 0 -3
BITMAP
C0
C0
C0
F8
CC
CC
CC
CC
CC
F8
C0
C0
C0
ENDCHAR
STARTCHAR ydieresis
ENCODING 255
SWIDTH 576 0
DWIDTH 8 0
BBX 7 13 0 -3
BITMAP
C6
C6
00
C6
C6
C6
C6
C6
C6
7E
06
0C
78
ENDCHAR
STARTCHAR Amacron
ENCODING 256
SWIDTH 576 0
DWIDTH 8 0
BBX 7 10 0 0
BITMAP
3E
66
C6
C6
C6
FE
C6
C6
C6
C6
ENDCHAR
STARTCHAR amacron
ENCODING 257
SWIDTH 576 0
DWIDTH 8 0
BBX 7 7 0 0
BITMAP
7C
06
7E
C6
C6
C6
7E
ENDCHAR
STARTCHAR Abreve
ENCODING 258
SWIDTH 576 0
DWIDTH 8 0
BBX 7 10 0 0
BITMAP
3E
66
C6
C6
C6
FE
C6
C6
C6
C6
ENDCHAR
STARTCHAR abreve
ENCODING 259
SWIDTH 576 0
DWIDTH 8 0
BBX 7 7 0 0
BITMAP
7C
06
7E
C6
C6
C6
7E
ENDCHAR
STARTCHAR Aogonek
ENCODING 260
SWIDTH 576 0
DWIDTH 8 0
BBX 7 10 0 0
BITMAP
3E
66
C6
C6
C6
FE
C6
C6
C6
C6
ENDCHAR
STARTCHAR aogonek
ENCODING 261
SWIDTH 576 0
DWIDTH 8 0
BBX 7 7 0 0
BITMAP
7C
06
7E
C6
C6
C6
7E
ENDCHAR
STARTCHAR Cacute
ENCODING 262
SWIDTH 576 0
DWIDTH 8 0
BBX 7 10 0 0
BITMAP
3E
60
C0
C0
C0
C0
C0
C0
60
3E
ENDCHAR
STARTCHAR cacute
ENCODING 263
SWIDTH 576 0
DWIDTH 8 0
BBX 7 7 0 0
BITMAP
7E
C0
C0
C0
C0
C0
7E
ENDCHAR
STARTCHAR Ccircumflex
ENCODING 264
SWIDTH 576 0
DWIDTH 8 0
BBX 7 10 0 0
BITMAP
3E
60
C0
C0
C0
C0
C0
C0
60
3E
ENDCHAR
STARTCHAR ccircumflex
ENCODING 265
SWIDTH 576 0
DWIDTH 8 0
BBX 7 7 0 0
BITMAP
7E
C0
C0
C0
C0
C0
7E
ENDCHAR
STARTCHAR Cdotaccent
ENCODING 266
SWIDTH 576 0
DWIDTH 8 0
BBX 7 10 0 0
BITMAP
3E
60
C0
C0
C0
C0
C0
C0
60
3E
ENDCHAR
STARTCHAR cdotaccent
ENCODING 267
SWIDTH 576 0
DWIDTH 8 0
BBX 7 7 0 0
BITMAP
7E
C0
C0
C0
C0
C0
7E
ENDCHAR
STARTCHAR Ccaron
ENCODING 268
SWIDTH 576 0
DWIDTH 8 0
BBX 7 10 0 0
BITMAP
3E
60
C0
C0
C0
C0
C0
C0
60
3E
ENDCHAR
STARTCHAR ccaron
ENCODING 269
SWIDTH 576 0
DWIDTH 8 0
BBX 7 7 0 0
BITMAP
7E
C0
C0
C0
C0
C0
7E
ENDCHAR
STARTCHAR Dcaron
ENCODING 270
SWIDTH 576 0
DWIDTH 8 0
BBX 7 10 0 0
BITMAP
FC
C6
C6
C6
C6
C6
C6
C6
C6
FC
ENDCHAR
STARTCHAR dcaron
ENCODING 271
SWIDTH 576 0
DWIDTH 8 0
BBX 7 10 0 0
BITMAP
06
06
06
7E
C6
C6
C6
C6
C6
7E
ENDCHAR
STARTCHAR Dcroat
ENCODING 272
SWIDTH 576 0
DWIDTH 8 0
BBX 7 10 0 0
BITMAP
FC
C6
C6
C6
C6
C6
C6
C6
C6
FC
ENDCHAR
STARTCHAR dcroat
ENCODING 273
SWIDTH 576 0
DWIDTH 8 0
BBX 7 10 0 0
BITMAP
06
06
06
7E
C6
C6
C6
C6
C6
7E
ENDCHAR
STARTCHAR Emacron
ENCODING 274
SWIDTH 576 0
DWIDTH 8 0
BBX 7 10 0 0
BITMAP
FE
C0
C0
C0
F8
C0
C0
C0
C0
FE
ENDCHAR
STARTCHAR emacron
ENCODING 275
SWIDTH 576 0
DWIDTH 8 0
BBX 7 7 0 0
BITMAP
7C
C6
C6
FE
C0
C0
7E
ENDCHAR
STARTCHAR Ebreve
ENCODING 276
SWIDTH 576 0
DWIDTH 8 0
BBX 7 10 0 0
BITMAP
FE
C0
C0
C0
F8
C0
C0
C0
C0
FE
ENDCHAR
STARTCHAR ebreve
ENCODING 277
SWIDTH 576 0
DWIDTH 8 0
BBX 7 7 0 0
BITMAP
7C
C6
C6
FE
C0
C0
7E
ENDCHAR
STARTCHAR Edotaccent
ENCODING 278
SWIDTH 576 0
DWIDTH 8 0
BBX 7 10 0 0
BITMAP
FE
C0
C0
C0
F8
C0
C0
C0
C0
FE
ENDCHAR
STARTCHAR edotaccent
ENCODING 279
SWIDTH 576 0
DWIDTH 8 0
BBX 7 7 0 0
BITMAP
7C
C6
C6
FE
C0
C0
7E
ENDCHAR
STARTCHAR Eogonek
ENCODING 280
SWIDTH 576 0
DWIDTH 8 0
BBX 7 12 0 -2
BITMAP
FE
C0
C0
C0
F8
C0
C0
C0
C0
FE
0C
06
ENDCHAR
STARTCHAR eogonek
ENCODING 281
SWIDTH 576 0
DWIDTH 8 0
BBX 7 9 0 -2
BITMAP
7C
C6
C6
FE
C0
C0
7E
0C
06
ENDCHAR
STARTCHAR Ecaron
ENCODING 282
SWIDTH 576 0
DWIDTH 8 0
BBX 7 10 0 0
BITMAP
FE
C0
C0
C0
F8
C0
C0
C0
C0
FE
ENDCHAR
STARTCHAR ecaron
ENCODING 283
SWIDTH 576 0
DWIDTH 8 0
BBX 7 7 0 0
BITMAP
7C
C6
C6
FE
C0
C0
7E
ENDCHAR
STARTCHAR Gcircumflex
ENCODING 284
SWIDTH 576 0
DWIDTH 8 0
BBX 7 10 0 0
BITMAP
7E
C0
C0
C0
DE
C6
C6
C6
C6
7E
ENDCHAR
STARTCHAR gcircumflex
ENCODING 285
SWIDTH 576 0
DWIDTH 8 0
BBX 7 10 0 -3
BITMAP
7E
C6
C6
C6
C6
C6
7E
06
06
FC
ENDCHAR
STARTCHAR Gbreve
ENCODING 286
SWIDTH 576 0
DWIDTH 8 0
BBX 7 10 0 0
BITMAP
7E
C0
C0
C0
DE
C6
C6
C6
C6
7E
ENDCHAR
STARTCHAR gbreve
ENCODING 287
SWIDTH 576 0
DWIDTH 8 0
BBX 7 10 0 -3
BITMAP
7E
C6
C6
C6
C6
C6
7E
06
06
FC
ENDCHAR
STARTCHAR Gdotaccent
ENCODING 288
SWIDTH 576 0
DWIDTH 8 0
BBX 7 10 0 0
BITMAP
7E
C0
C0
C0
DE
C6
C6
C6
C6
7E
ENDCHAR
STARTCHAR gdotaccent
ENCODING 289
SWIDTH 576 0
DWIDTH 8 0
BBX 7 10 0 -3
BITMAP
7E
C6
C6
C6
C6
C6
7E
06
06
FC
ENDCHAR
STARTCHAR uni0122
ENCODING 290
SWIDTH 576 0
DWIDTH 8 0
BBX 7 10 0 0
BITMAP
7E
C0
C0
C0
DE
C6
C6
C6
C6
7E
ENDCHAR
STARTCHAR uni0123
ENCODING 291
SWIDTH 576 0
DWIDTH 8 0
BBX 7 10 0 -3
BITMAP
7E
C6
C6
C6
C6
C6
7E
06
06
FC
ENDCHAR
STARTCHAR Hcircumflex
ENCODING 292
SWIDTH 576 0
DWIDTH 8 0
BBX 7 10 0 0
BITMAP
C6
C6
C6
C6
FE
C6
C6
C6
C6
C6
ENDCHAR
STARTCHAR hcircumflex
ENCODING 293
SWIDTH 576 0
DWIDTH 8 0
BBX 7 10 0 -1
BITMAP
C0
C0
C0
FC
C6
C6
C6
C6
C6
C6
ENDCHAR
STARTCHAR Hbar
ENCODING 294
SWIDTH 576 0
DWIDTH 8 0
BBX 7 10 0 0
BITMAP
C6
C6
C6
C6
FE
C6
C6
C6
C6
C6
ENDCHAR
STARTCHAR hbar
ENCODING 295
SWIDTH 576 0
DWIDTH 8 0
BBX 7 10 0 -1
BITMAP
C0
C0
C0
FC
C6
C6
C6
C6
C6
C6
ENDCHAR
STARTCHAR Itilde
ENCODING 296
SWIDTH 576 0
DWIDTH 5 0
BBX 2 10 1 0
BITMAP
C0
C0
C0
C0
C0
C0
C0
C0
C0
C0
ENDCHAR
STARTCHAR itilde
ENCODING 297
SWIDTH 576 0
DWIDTH 5 0
BBX 2 7 1 0
BITMAP
C0
C0
C0
C0
C0
C0
C0
ENDCHAR
STARTCHAR Imacron
ENCODING 298
SWIDTH 576 0
DWIDTH 5 0
BBX 2 10 1 0
BITMAP
C0
C0
C0
C0
C0
C0
C0
C0
C0
C0
ENDCHAR
STARTCHAR imacron
ENCODING 299
SWIDTH 576 0
DWIDTH 5 0
BBX 2 7 1 0
BITMAP
C0
C0
C0
C0
C0
C0
C0
ENDCHAR
STARTCHAR Ibreve
ENCODING 300
SWIDTH 576 0
DWIDTH 5 0
BBX 2 10 1 0
BITMAP
C0
C0
C0
C0
C0
C0
C0
C0
C0
C0
ENDCHAR
STARTCHAR ibreve
ENCODING 301
SWIDTH 576 0
DWIDTH 5 0
BBX 2 7 1 0
BITMAP
C0
C0
C0
C0
C0
C0
C0
ENDCHAR
STARTCHAR Iogonek
ENCODING 302
SWIDTH 576 0
DWIDTH 5 0
BBX 2 10 1 0
BITMAP
C0
C0
C0
C0
C0
C0
C0
C0
C0
C0
ENDCHAR
STARTCHAR iogonek
ENCODING 303
SWIDTH 576 0
DWIDTH 5 0
BBX 2 7 1 0
BITMAP
C0
C0
C0
C0
C0
C0
C0
ENDCHAR
STARTCHAR Idotaccent
ENCODING 304
SWIDTH 576 0
DWIDTH 5 0
BBX 2 10 1 0
BITMAP
C0
C0
C0
C0
C0
C0
C0
C0
C0
C0
ENDCHAR
STARTCHAR dotlessi
ENCODING 305
SWIDTH 576 0
DWIDTH 5 0
BBX 2 7 1 0
BITMAP
C0
C0
C0
C0
C0
C0
C0
ENDCHAR
STARTCHAR IJ
ENCODING 306
SWIDTH 576 0
DWIDTH 8 0
BBX 7 10 1 0
BITMAP
EE
42
42
42
42
42
42
42
52
EC
ENDCHAR
STARTCHAR ij
ENCODING 307
SWIDTH 576 0
DWIDTH 8 0
BBX 8 13 0 -3
BITMAP
63
00
00
67
21
21
21
21
21
F9
01
11
0E
ENDCHAR
STARTCHAR Jcircumflex
ENCODING 308
SWIDTH 576 0
DWIDTH 8 0
BBX 7 10 0 0
BITMAP
06
06
06
06
06
06
06
06
0C
F8
ENDCHAR
STARTCHAR jcircumflex
ENCODING 309
SWIDTH 576 0
DWIDTH 6 0
BBX 6 12 -1 -3
BITMAP
0C
0C
00
0C
0C
0C
0C
0C
0C
0C
18
F0
ENDCHAR
STARTCHAR uni0136
ENCODING 310
SWIDTH 576 0
DWIDTH 8 0
BBX 7 10 0 0
BITMAP
C6
C6
C6
CC
F8
CC
C6
C6
C6
C6
ENDCHAR
STARTCHAR uni0137
ENCODING 311
SWIDTH 576 0
DWIDTH 8 0
BBX 7 10 0 0
BITMAP
C0
C0
C0
C6
CC
F8
CC
C6
C6
C6
ENDCHAR
STARTCHAR kgreenlandic
ENCODING 312
SWIDTH 576 0
DWIDTH 8 0
BBX 7 10 0 0
BITMAP
C6
C6
C6
CC
F8
CC
C6
C6
C6
C6
ENDCHAR
STARTCHAR Lacute
ENCODING 313
SWIDTH 576 0
DWIDTH 8 0
BBX 7 10 0 0
BITMAP
C0
C0
C0
C0
C0
C0
C0
C0
C0
FE
ENDCHAR
STARTCHAR lacute
ENCODING 314
SWIDTH 576 0
DWIDTH 5 0
BBX 2 10 1 0
BITMAP
C0
C0
00
C0
C0
C0
C0
C0
C0
C0
ENDCHAR
STARTCHAR uni013B
ENCODING 315
SWIDTH 576 0
DWIDTH 8 0
BBX 7 10 0 0
BITMAP
C0
C0
C0
C0
C0
C0
C0
C0
C0
FE
ENDCHAR
STARTCHAR uni013C
ENCODING 316
SWIDTH 576 0
DWIDTH 5 0
BBX 3 10 0 0
BITMAP
E0
60
60
60
60
60
60
60
60
60
ENDCHAR
STARTCHAR Lcaron
ENCODING 317
SWIDTH 576 0
DWIDTH 8 0
BBX 7 10 0 0
BITMAP
C0
C0
C0
C0
C0
C0
C0
C0
C0
FE
ENDCHAR
STARTCHAR lcaron
ENCODING 318
SWIDTH 576 0
DWIDTH 5 0
BBX 3 10 0 0
BITMAP
E0
60
60
60
60
60
60
60
60
60
ENDCHAR
STARTCHAR Ldot
ENCODING 319
SWIDTH 576 0
DWIDTH 8 0
BBX 7 10 0 0
BITMAP
C0
C0
C0
C0
C0
C0
C0
C0
C0
FE
ENDCHAR
STARTCHAR ldot
ENCODING 320
SWIDTH 576 0
DWIDTH 5 0
BBX 3 10 0 0
BITMAP
E0
60
60
60
60
60
60
60
60
60
ENDCHAR
STARTCHAR Lslash
ENCODING 321
SWIDTH 576 0
DWIDTH 8 0
BBX 8 10 -1 0
BITMAP
60
60
60
68
70
60
E0
60
60
7F
ENDCHAR
STARTCHAR lslash
ENCODING 322
SWIDTH 576 0
DWIDTH 5 0
BBX 5 10 0 0
BITMAP
E0
60
60
68
70
60
E0
60
60
60
ENDCHAR
STARTCHAR Nacute
ENCODING 323
SWIDTH 576 0
DWIDTH 8 0
BBX 7 12 0 0
BITMAP
18
30
F8
CC
C6
C6
C6
C6
C6
C6
C6
C6
ENDCHAR
STARTCHAR nacute
ENCODING 324
SWIDTH 576 0
DWIDTH 8 0
BBX 7 10 0 0
BITMAP
18
30
00
FC
C6
C6
C6
C6
C6
C6
ENDCHAR
STARTCHAR uni0145
ENCODING 325
SWIDTH 576 0
DWIDTH 8 0
BBX 7 10 0 0
BITMAP
F8
CC
C6
C6
C6
C6
C6
C6
C6
C6
ENDCHAR
STARTCHAR uni0146
ENCODING 326
SWIDTH 576 0
DWIDTH 8 0
BBX 7 7 0 0
BITMAP
FC
C6
C6
C6
C6
C6
C6
ENDCHAR
STARTCHAR Ncaron
ENCODING 327
SWIDTH 576 0
DWIDTH 8 0
BBX 7 10 0 0
BITMAP
F8
CC
C6
C6
C6
C6
C6
C6
C6
C6
ENDCHAR
STARTCHAR ncaron
ENCODING 328
SWIDTH 576 0
DWIDTH 8 0
BBX 7 7 0 0
BITMAP
FC
C6
C6
C6
C6
C6
C6
ENDCHAR
STARTCHAR napostrophe
ENCODING 329
SWIDTH 576 0
DWIDTH 8 0
BBX 7 7 0 0
BITMAP
FC
C6
C6
C6
C6
C6
C6
ENDCHAR
STARTCHAR Eng
ENCODING 330
SWIDTH 576 0
DWIDTH 8 0
BBX 7 10 0 0
BITMAP
F8
CC
C6
C6
C6
C6
C6
C6
C6
C6
ENDCHAR
STARTCHAR eng
ENCODING 331
SWIDTH 576 0
DWIDTH 8 0
BBX 7 7 0 0
BITMAP
FC
C6
C6
C6
C6
C6
C6
ENDCHAR
STARTCHAR Omacron
ENCODING 332
SWIDTH 576 0
DWIDTH 8 0
BBX 7 10 0 0
BITMAP
7C
C6
C6
C6
C6
C6
C6
C6
C6
7C
ENDCHAR
STARTCHAR omacron
ENCODING 333
SWIDTH 576 0
DWIDTH 8 0
BBX 7 7 0 0
BITMAP
7C
C6
C6
C6
C6
C6
7C
ENDCHAR
STARTCHAR Obreve
ENCODING 334
SWIDTH 576 0
DWIDTH 8 0
BBX 7 10 0 0
BITMAP
7C
C6
C6
C6
C6
C6
C6
C6
C6
7C
ENDCHAR
STARTCHAR obreve
ENCODING 335
SWIDTH 576 0
DWIDTH 8 0
BBX 7 7 0 0
BITMAP
7C
C6
C6
C6
C6
C6
7C
ENDCHAR
STARTCHAR Ohungarumlaut
ENCODING 336
SWIDTH 576 0
DWIDTH 8 0
BBX 7 10 0 0
BITMAP
7C
C6
C6
C6
C6
C6
C6
C6
C6
7C
ENDCHAR
STARTCHAR ohungarumlaut
ENCODING 337
SWIDTH 576 0
DWIDTH 8 0
BBX 7 7 0 0
BITMAP
7C
C6
C6
C6
C6
C6
7C
ENDCHAR
STARTCHAR OE
ENCODING 338
SWIDTH 576 0
DWIDTH 8 0
BBX 7 10 1 0
BITMAP
7E
90
90
90
9C
90
90
90
90
7E
ENDCHAR
STARTCHAR oe
ENCODING 339
SWIDTH 576 0
DWIDTH 8 0
BBX 7 7 1 0
BITMAP
6C
92
92
9E
90
92
6C
ENDCHAR
STARTCHAR Racute
ENCODING 340
SWIDTH 576 0
DWIDTH 8 0
BBX 7 10 0 0
BITMAP
FC
C6
C6
CC
F8
CC
C6
C6
C6
C6
ENDCHAR
STARTCHAR racute
ENCODING 341
SWIDTH 576 0
DWIDTH 8 0
BBX 7 7 0 0
BITMAP
DE
E0
C0
C0
C0
C0
C0
ENDCHAR
STARTCHAR uni0156
ENCODING 342
SWIDTH 576 0
DWIDTH 8 0
BBX 7 10 0 0
BITMAP
FC
C6
C6
CC
F8
CC
C6
C6
C6
C6
ENDCHAR
STARTCHAR uni0157
ENCODING 343
SWIDTH 576 0
DWIDTH 8 0
BBX 7 7 0 0
BITMAP
DE
E0
C0
C0
C0
C0
C0
ENDCHAR
STARTCHAR Rcaron
ENCODING 344
SWIDTH 576 0
DWIDTH 8 0
BBX 7 10 0 0
BITMAP
FC
C6
C6
CC
F8
CC
C6
C6
C6
C6
ENDCHAR
STARTCHAR rcaron
ENCODING 345
SWIDTH 576 0
DWIDTH 8 0
BBX 7 7 0 0
BITMAP
DE
E0
C0
C0
C0
C0
C0
ENDCHAR
STARTCHAR Sacute
ENCODING 346
SWIDTH 576 0
DWIDTH 8 0
BBX 7 10 0 0
BITMAP
7E
C0
C0
60
38
0C
06
06
06
FC
ENDCHAR
STARTCHAR sacute
ENCODING 347
SWIDTH 576 0
DWIDTH 8 0
BBX 7 7 0 0
BITMAP
7E
C0
C0
7C
06
06
FC
ENDCHAR
STARTCHAR Scircumflex
ENCODING 348
SWIDTH 576 0
DWIDTH 8 0
BBX 7 10 0 0
BITMAP
7E
C0
C0
60
38
0C
06
06
06
FC
ENDCHAR
STARTCHAR scircumflex
ENCODING 349
SWIDTH 576 0
DWIDTH 8 0
BBX 7 7 0 0
BITMAP
7E
C0
C0
7C
06
06
FC
ENDCHAR
STARTCHAR Scedilla
ENCODING 350
SWIDTH 576 0
DWIDTH 8 0
BBX 7 10 0 0
BITMAP
7E
C0
C0
60
38
0C
06
06
06
FC
ENDCHAR
STARTCHAR scedilla
ENCODING 351
SWIDTH 576 0
DWIDTH 8 0
BBX 7 7 0 0
BITMAP
7E
C0
C0
7C
06
06
FC
ENDCHAR
STARTCHAR Scaron
ENCODING 352
SWIDTH 576 0
DWIDTH 8 0
BBX 7 10 0 0
BITMAP
7E
C0
C0
60
38
0C
06
06
06
FC
ENDCHAR
STARTCHAR scaron
ENCODING 353
SWIDTH 576 0
DWIDTH 8 0
BBX 7 7 0 0
BITMAP
7E
C0
C0
7C
06
06
FC
ENDCHAR
STARTCHAR uni0162
ENCODING 354
SWIDTH 576 0
DWIDTH 8 0
BBX 6 10 1 0
BITMAP
FC
30
30
30
30
30
30
30
30
30
ENDCHAR
STARTCHAR uni0163
ENCODING 355
SWIDTH 576 0
DWIDTH 7 0
BBX 6 10 0 0
BITMAP
20
60
60
FC
60
60
60
60
60
3C
ENDCHAR
STARTCHAR Tcaron
ENCODING 356
SWIDTH 576 0
DWIDTH 8 0
BBX 6 10 1 0
BITMAP
FC
30
30
30
30
30
30
30
30
30
ENDCHAR
STARTCHAR tcaron
ENCODING 357
SWIDTH 576 0
DWIDTH 7 0
BBX 6 10 0 0
BITMAP
20
60
60
FC
60
60
60
60
60
3C
ENDCHAR
STARTCHAR Tbar
ENCODING 358
SWIDTH 576 0
DWIDTH 8 0
BBX 6 10 1 0
BITMAP
FC
30
30
30
30
30
30
30
30
30
ENDCHAR
STARTCHAR tbar
ENCODING 359
SWIDTH 576 0
DWIDTH 7 0
BBX 6 10 0 0
BITMAP
20
60
60
FC
60
60
60
60
60
3C
ENDCHAR
STARTCHAR Utilde
ENCODING 360
SWIDTH 576 0
DWIDTH 8 0
BBX 7 10 0 0
BITMAP
C6
C6
C6
C6
C6
C6
C6
C6
C6
7C
ENDCHAR
STARTCHAR utilde
ENCODING 361
SWIDTH 576 0
DWIDTH 8 0
BBX 7 7 0 0
BITMAP
C6
C6
C6
C6
C6
C6
7E
ENDCHAR
STARTCHAR Umacron
ENCODING 362
SWIDTH 576 0
DWIDTH 8 0
BBX 7 10 0 0
BITMAP
C6
C6
C6
C6
C6
C6
C6
C6
C6
7C
ENDCHAR
STARTCHAR umacron
ENCODING 363
SWIDTH 576 0
DWIDTH 8 0
BBX 7 7 0 0
BITMAP
C6
C6
C6
C6
C6
C6
7E
ENDCHAR
STARTCHAR Ubreve
ENCODING 364
SWIDTH 576 0
DWIDTH 8 0
BBX 7 10 0 0
BITMAP
C6
C6
C6
C6
C6
C6
C6
C6
C6
7C
ENDCHAR
STARTCHAR ubreve
ENCODING 365
SWIDTH 576 0
DWIDTH 8 0
BBX 7 7 0 0
BITMAP
C6
C6
C6
C6
C6
C6
7E
ENDCHAR
STARTCHAR Uring
ENCODING 366
SWIDTH 576 0
DWIDTH 8 0
BBX 7 10 0 0
BITMAP
C6
C6
C6
C6
C6
C6
C6
C6
C6
7C
ENDCHAR
STARTCHAR uring
ENCODING 367
SWIDTH 576 0
DWIDTH 8 0
BBX 7 7 0 0
BITMAP
C6
C6
C6
C6
C6
C6
7E
ENDCHAR
STARTCHAR Uhungarumlaut
ENCODING 368
SWIDTH 576 0
DWIDTH 8 0
BBX 7 10 0 0
BITMAP
C6
C6
C6
C6
C6
C6
C6
C6
C6
7C
ENDCHAR
STARTCHAR uhungarumlaut
ENCODING 369
SWIDTH 576 0
DWIDTH 8 0
BBX 7 7 0 0
BITMAP
C6
C6
C6
C6
C6
C6
7E
ENDCHAR
STARTCHAR Uogonek
ENCODING 370
SWIDTH 576 0
DWIDTH 8 0
BBX 7 10 0 0
BITMAP
C6
C6
C6
C6
C6
C6
C6
C6
C6
7C
ENDCHAR
STARTCHAR uogonek
ENCODING 371
SWIDTH 576 0
DWIDTH 8 0
BBX 7 7 0 0
BITMAP
C6
C6
C6
C6
C6
C6
7E
ENDCHAR
STARTCHAR Wcircumflex
ENCODING 372
SWIDTH 576 0
DWIDTH 8 0
BBX 7 10 0 0
BITMAP
C6
C6
C6
C6
D6
D6
D6
FE
EE
6C
ENDCHAR
STARTCHAR wcircumflex
ENCODING 373
SWIDTH 576 0
DWIDTH 8 0
BBX 7 7 0 0
BITMAP
C6
C6
D6
D6
D6
FE
6C
ENDCHAR
STARTCHAR Ycircumflex
ENCODING 374
SWIDTH 576 0
DWIDTH 8 0
BBX 7 10 0 0
BITMAP
C6
C6
C6
66
3E
0E
06
06
06
FC
ENDCHAR
STARTCHAR ycircumflex
ENCODING 375
SWIDTH 576 0
DWIDTH 8 0
BBX 7 10 0 -3
BITMAP
C6
C6
C6
C6
C6
C6
7E
06
0C
F8
ENDCHAR
STARTCHAR Ydieresis
ENCODING 376
SWIDTH 576 0
DWIDTH 8 0
BBX 7 10 0 0
BITMAP
C6
C6
C6
66
3E
0E
06
06
06
FC
ENDCHAR
STARTCHAR Zacute
ENCODING 377
SWIDTH 576 0
DWIDTH 8 0
BBX 7 10 0 0
BITMAP
FE
06
06
0C
18
30
60
C0
C0
FE
ENDCHAR
STARTCHAR zacute
ENCODING 378
SWIDTH 576 0
DWIDTH 8 0
BBX 7 7 0 0
BITMAP
FE
0C
18
30
60
C0
FE
ENDCHAR
STARTCHAR Zdotaccent
ENCODING 379
SWIDTH 576 0
DWIDTH 8 0
BBX 7 10 0 0
BITMAP
FE
06
06
0C
18
30
60
C0
C0
FE
ENDCHAR
STARTCHAR zdotaccent
ENCODING 380
SWIDTH 576 0
DWIDTH 8 0
BBX 7 7 0 0
BITMAP
FE
0C
18
30
60
C0
FE
ENDCHAR
STARTCHAR Zcaron
ENCODING 381
SWIDTH 576 0
DWIDTH 8 0
BBX 7 10 0 0
BITMAP
FE
06
06
0C
18
30
60
C0
C0
FE
ENDCHAR
STARTCHAR zcaron
ENCODING 382
SWIDTH 576 0
DWIDTH 8 0
BBX 7 7 0 0
BITMAP
FE
0C
18
30
60
C0
FE
ENDCHAR
STARTCHAR longs
ENCODING 383
SWIDTH 576 0
DWIDTH 8 0
BBX 6 10 2 0
BITMAP
38
44
40
40
C0
40
40
40
40
40
ENDCHAR
STARTCHAR uni0180
ENCODING 384
SWIDTH 576 0
DWIDTH 8 0
BBX 8 10 0 0
BITMAP
40
F8
40
5E
61
41
41
41
61
5E
ENDCHAR
STARTCHAR uni0181
ENCODING 385
SWIDTH 576 0
DWIDTH 8 0
BBX 8 10 0 0
BITMAP
7E
91
91
11
1E
11
11
11
11
3E
ENDCHAR
STARTCHAR uni0182
ENCODING 386
SWIDTH 576 0
DWIDTH 8 0
BBX 7 10 1 0
BITMAP
FC
40
40
40
7C
42
42
42
42
FC
ENDCHAR
STARTCHAR uni0183
ENCODING 387
SWIDTH 576 0
DWIDTH 8 0
BBX 5 10 2 0
BITMAP
F8
80
80
80
F0
88
88
88
88
F0
ENDCHAR
STARTCHAR uni0184
ENCODING 388
SWIDTH 576 0
DWIDTH 8 0
BBX 7 10 1 0
BITMAP
40
C0
C0
40
7C
42
42
42
42
FC
ENDCHAR
STARTCHAR uni0185
ENCODING 389
SWIDTH 576 0
DWIDTH 8 0
BBX 6 10 1 0
BITMAP
40
C0
C0
40
78
44
44
44
44
78
ENDCHAR
STARTCHAR uni0186
ENCODING 390
SWIDTH 576 0
DWIDTH 8 0
BBX 7 10 1 0
BITMAP
7C
82
02
02
02
02
02
02
82
7C
ENDCHAR
STARTCHAR uni0187
ENCODING 391
SWIDTH 576 0
DWIDTH 8 0
BBX 7 11 1 0
BITMAP
02
7C
84
80
80
80
80
80
80
84
78
ENDCHAR
STARTCHAR uni0188
ENCODING 392
SWIDTH 576 0
DWIDTH 8 0
BBX 7 9 1 0
BITMAP
02
04
7C
82
80
80
80
82
7C
ENDCHAR
STARTCHAR uni0189
ENCODING 393
SWIDTH 576 0
DWIDTH 8 0
BBX 8 10 0 0
BITMAP
7C
42
41
41
E1
41
41
41
42
7C
ENDCHAR
STARTCHAR uni018A
ENCODING 394
SWIDTH 576 0
DWIDTH 8 0
BBX 8 10 0 0
BITMAP
7E
91
91
11
11
11
11
11
11
3E
ENDCHAR
STARTCHAR uni018B
ENCODING 395
SWIDTH 576 0
DWIDTH 8 0
BBX 7 10 1 0
BITMAP
7E
04
04
04
7C
84
84
84
84
7E
ENDCHAR
STARTCHAR uni018C
ENCODING 396
SWIDTH 576 0
DWIDTH 8 0
BBX 5 10 2 0
BITMAP
F8
08
08
08
78
88
88
88
88
78
ENDCHAR
STARTCHAR uni018D
ENCODING 397
SWIDTH 576 0
DWIDTH 8 0
BBX 7 10 1 -3
BITMAP
7C
82
82
82
82
82
7C
04
82
7C
ENDCHAR
STARTCHAR uni018E
ENCODING 398
SWIDTH 576 0
DWIDTH 8 0
BBX 7 10 1 0
BITMAP
FE
02
02
02
3E
02
02
02
02
FE
ENDCHAR
STARTCHAR uni018F
ENCODING 399
SWIDTH 576 0
DWIDTH 8 0
BBX 7 10 1 0
BITMAP
38
44
82
02
02
FE
82
82
44
38
ENDCHAR
STARTCHAR uni0190
ENCODING 400
SWIDTH 576 0
DWIDTH 8 0
BBX 7 10 1 0
BITMAP
7C
82
80
80
70
80
80
80
82
7C
ENDCHAR
STARTCHAR uni0191
ENCODING 401
SWIDTH 576 0
DWIDTH 8 0
BBX 8 12 0 -2
BITMAP
3F
20
20
38
20
20
20
20
20
20
20
C0
ENDCHAR
STARTCHAR florin
ENCODING 402
SWIDTH 576 0
DWIDTH 8 0
BBX 7 12 1 -2
BITMAP
1C
22
22
20
20
F8
20
20
20
20
20
C0
ENDCHAR
STARTCHAR uni0193
ENCODING 403
SWIDTH 576 0
DWIDTH 8 0
BBX 7 11 1 0
BITMAP
06
04
7C
82
80
80
8E
82
82
82
7C
ENDCHAR
STARTCHAR uni0194
ENCODING 404
SWIDTH 576 0
DWIDTH 8 0
BBX 7 10 1 0
BITMAP
82
82
44
44
28
28
10
28
28
10
ENDCHAR
STARTCHAR uni0195
ENCODING 405
SWIDTH 576 0
DWIDTH 8 0
BBX 7 10 1 0
BITMAP
80
80
80
A0
D2
92
92
92
92
8C
ENDCHAR
STARTCHAR uni0196
ENCODING 406
SWIDTH 576 0
DWIDTH 8 0
BBX 5 10 2 0
BITMAP
C0
40
40
40
40
40
40
40
48
30
ENDCHAR
STARTCHAR uni0197
ENCODING 407
SWIDTH 576 0
DWIDTH 8 0
BBX 5 10 2 0
BITMAP
F8
20
20
20
F8
20
20
20
20
F8
ENDCHAR
STARTCHAR uni0198
ENCODING 408
SWIDTH 576 0
DWIDTH 8 0
BBX 7 10 1 0
BITMAP
84
8A
92
A0
C0
A0
90
88
84
82
ENDCHAR
STARTCHAR uni0199
ENCODING 409
SWIDTH 576 0
DWIDTH 8 0
BBX 7 10 1 0
BITMAP
60
90
80
82
8C
B0
C0
B0
8C
82
ENDCHAR
STARTCHAR uni019A
ENCODING 410
SWIDTH 576 0
DWIDTH 8 0
BBX 5 10 2 0
BITMAP
E0
20
20
20
F8
20
20
20
20
F8
ENDCHAR
STARTCHAR uni019B
ENCODING 411
SWIDTH 576 0
DWIDTH 8 0
BBX 7 10 1 0
BITMAP
90
60
60
90
10
28
44
44
82
82
ENDCHAR
STARTCHAR uni019C
ENCODING 412
SWIDTH 576 0
DWIDTH 8 0
BBX 7 10 1 0
BITMAP
92
92
92
92
92
92
92
92
92
6E
ENDCHAR
STARTCHAR uni019D
ENCODING 413
SWIDTH 576 0
DWIDTH 8 0
BBX 8 12 0 -2
BITMAP
41
41
61
51
49
45
43
41
41
41
40
80
ENDCHAR
STARTCHAR uni019E
ENCODING 414
SWIDTH 576 0
DWIDTH 8 0
BBX 7 10 1 -3
BITMAP
BC
C2
82
82
82
82
82
02
02
02
ENDCHAR
STARTCHAR uni019F
ENCODING 415
SWIDTH 576 0
DWIDTH 8 0
BBX 7 10 1 0
BITMAP
7C
82
82
82
FE
82
82
82
82
7C
ENDCHAR
STARTCHAR Ohorn
ENCODING 416
SWIDTH 576 0
DWIDTH 8 0
BBX 7 10 1 0
BITMAP
78
84
86
84
84
84
84
84
84
78
ENDCHAR
STARTCHAR ohorn
ENCODING 417
SWIDTH 576 0
DWIDTH 8 0
BBX 7 7 1 0
BITMAP
78
84
86
84
84
84
78
ENDCHAR
STARTCHAR uni01A2
ENCODING 418
SWIDTH 576 0
DWIDTH 8 0
BBX 7 10 1 0
BITMAP
74
8A
8A
8A
8A
8A
8A
8A
8A
72
ENDCHAR
STARTCHAR uni01A3
ENCODING 419
SWIDTH 576 0
DWIDTH 8 0
BBX 7 10 1 -3
BITMAP
74
8A
8A
8A
8A
8A
72
02
02
02
ENDCHAR
STARTCHAR uni01A4
ENCODING 420
SWIDTH 576 0
DWIDTH 8 0
BBX 8 10 0 0
BITMAP
7E
91
91
11
1E
10
10
10
10
10
ENDCHAR
STARTCHAR uni01A5
ENCODING 421
SWIDTH 576 0
DWIDTH 8 0
BBX 7 13 1 -3
BITMAP
60
80
80
BC
C2
82
82
82
C2
BC
80
80
80
ENDCHAR
STARTCHAR uni01A6
ENCODING 422
SWIDTH 576 0
DWIDTH 8 0
BBX 7 12 1 -2
BITMAP
E0
40
7C
42
42
44
78
44
44
E4
04
02
ENDCHAR
STARTCHAR uni01A7
ENCODING 423
SWIDTH 576 0
DWIDTH 8 0
BBX 7 10 1 0
BITMAP
7C
82
82
02
1C
60
80
82
82
7C
ENDCHAR
STARTCHAR uni01A8
ENCODING 424
SWIDTH 576 0
DWIDTH 8 0
BBX 7 7 1 0
BITMAP
7C
82
02
7C
80
82
7C
ENDCHAR
STARTCHAR uni01A9
ENCODING 425
SWIDTH 576 0
DWIDTH 8 0
BBX 7 10 1 0
BITMAP
FE
82
40
20
10
10
20
40
82
FE
ENDCHAR
STARTCHAR uni01AA
ENCODING 426
SWIDTH 576 0
DWIDTH 8 0
BBX 7 12 1 -2
BITMAP
60
90
90
70
10
10
10
10
10
10
12
0C
ENDCHAR
STARTCHAR uni01AB
ENCODING 427
SWIDTH 576 0
DWIDTH 8 0
BBX 6 11 1 -2
BITMAP
20
20
FC
20
20
20
20
24
18
04
18
ENDCHAR
STARTCHAR uni01AC
ENCODING 428
SWIDTH 576 0
DWIDTH 8 0
BBX 7 10 1 0
BITMAP
7E
90
90
10
10
10
10
10
10
10
ENDCHAR
STARTCHAR uni01AD
ENCODING 429
SWIDTH 576 0
DWIDTH 8 0
BBX 7 10 1 0
BITMAP
18
20
20
FC
20
20
20
20
22
1C
ENDCHAR
STARTCHAR uni01AE
ENCODING 430
SWIDTH 576 0
DWIDTH 8 0
BBX 7 12 1 -2
BITMAP
FE
10
10
10
10
10
10
10
10
10
10
0C
ENDCHAR
STARTCHAR Uhorn
ENCODING 431
SWIDTH 576 0
DWIDTH 8 0
BBX 7 10 1 0
BITMAP
84
84
86
84
84
84
84
84
84
78
ENDCHAR
STARTCHAR uhorn
ENCODING 432
SWIDTH 576 0
DWIDTH 8 0
BBX 7 7 1 0
BITMAP
84
84
86
84
84
84
7A
ENDCHAR
STARTCHAR uni01B1
ENCODING 433
SWIDTH 576 0
DWIDTH 8 0
BBX 7 10 1 0
BITMAP
C6
44
44
82
82
82
82
82
44
38
ENDCHAR
STARTCHAR uni01B2
ENCODING 434
SWIDTH 576 0
DWIDTH 8 0
BBX 7 10 1 0
BITMAP
88
84
82
82
82
82
82
82
44
38
ENDCHAR
STARTCHAR uni01B3
ENCODING 435
SWIDTH 576 0
DWIDTH 8 0
BBX 8 10 0 0
BITMAP
01
41
A2
94
08
08
08
08
08
08
ENDCHAR
STARTCHAR uni01B4
ENCODING 436
SWIDTH 576 0
DWIDTH 8 0
BBX 7 12 1 -3
BITMAP
02
04
84
84
84
84
84
8C
74
04
84
78
ENDCHAR
STARTCHAR uni01B5
ENCODING 437
SWIDTH 576 0
DWIDTH 8 0
BBX 7 10 1 0
BITMAP
FE
02
04
08
7C
20
40
80
80
FE
ENDCHAR
STARTCHAR uni01B6
ENCODING 438
SWIDTH 576 0
DWIDTH 8 0
BBX 7 7 1 0
BITMAP
FE
04
08
7C
20
40
FE
ENDCHAR
STARTCHAR uni01B7
ENCODING 439
SWIDTH 576 0
DWIDTH 8 0
BBX 7 10 1 0
BITMAP
FE
04
08
10
38
04
02
02
84
78
ENDCHAR
STARTCHAR uni01B8
ENCODING 440
SWIDTH 576 0
DWIDTH 8 0
BBX 7 10 1 0
BITMAP
FE
40
20
10
38
40
80
80
42
3C
ENDCHAR
STARTCHAR uni01B9
ENCODING 441
SWIDTH 576 0
DWIDTH 8 0
BBX 6 10 1 -3
BITMAP
FC
40
20
10
38
40
80
80
44
38
ENDCHAR
STARTCHAR uni01BA
ENCODING 442
SWIDTH 576 0
DWIDTH 8 0
BBX 6 10 1 -3
BITMAP
FC
08
10
20
70
08
08
30
44
38
ENDCHAR
STARTCHAR uni01BB
ENCODING 443
SWIDTH 576 0
DWIDTH 8 0
BBX 7 10 1 0
BITMAP
7C
82
82
02
04
7C
20
40
80
FE
ENDCHAR
STARTCHAR uni01BC
ENCODING 444
SWIDTH 576 0
DWIDTH 8 0
BBX 7 10 1 0
BITMAP
FE
82
80
BC
C2
02
02
02
82
7C
ENDCHAR
STARTCHAR uni01BD
ENCODING 445
SWIDTH 576 0
DWIDTH 8 0
BBX 5 9 2 0
BITMAP
F8
80
80
B0
C8
08
08
88
70
ENDCHAR
STARTCHAR uni01BE
ENCODING 446
SWIDTH 576 0
DWIDTH 8 0
BBX 5 10 2 0
BITMAP
20
20
F8
20
20
10
08
08
88
70
ENDCHAR
STARTCHAR uni01BF
ENCODING 447
SWIDTH 576 0
DWIDTH 8 0
BBX 6 8 2 -2
BITMAP
B8
C4
84
88
90
E0
80
80
ENDCHAR
STARTCHAR uni01C0
ENCODING 448
SWIDTH 576 0
DWIDTH 8 0
BBX 1 10 4 0
BITMAP
80
80
80
80
80
80
80
80
80
80
ENDCHAR
STARTCHAR uni01C1
ENCODING 449
SWIDTH 576 0
DWIDTH 8 0
BBX 3 10 3 0
BITMAP
A0
A0
A0
A0
A0
A0
A0
A0
A0
A0
ENDCHAR
STARTCHAR uni01C2
ENCODING 450
SWIDTH 576 0
DWIDTH 8 0
BBX 5 10 2 0
BITMAP
20
20
20
F8
20
20
F8
20
20
20
ENDCHAR
STARTCHAR uni01C3
ENCODING 451
SWIDTH 576 0
DWIDTH 8 0
BBX 1 10 4 0
BITMAP
80
80
80
80
80
80
00
00
80
80
ENDCHAR
STARTCHAR uni01C4
ENCODING 452
SWIDTH 576 0
DWIDTH 8 0
BBX 8 11 0 0
BITMAP
05
02
00
F7
48
49
49
4A
4A
4C
F7
ENDCHAR
STARTCHAR uni01C5
ENCODING 453
SWIDTH 576 0
DWIDTH 8 0
BBX 8 10 0 0
BITMAP
F2
49
48
4F
48
49
49
4A
4A
F7
ENDCHAR
STARTCHAR uni01C6
ENCODING 454
SWIDTH 576 0
DWIDTH 8 0
BBX 8 10 0 0
BITMAP
0A
09
08
6F
98
89
89
8A
9A
6F
ENDCHAR
STARTCHAR uni01C7
ENCODING 455
SWIDTH 576 0
DWIDTH 8 0
BBX 8 10 0 0
BITMAP
81
81
81
81
81
81
81
81
89
F6
ENDCHAR
STARTCHAR uni01C8
ENCODING 456
SWIDTH 576 0
DWIDTH 8 0
BBX 7 13 1 -3
BITMAP
86
80
80
86
82
82
82
82
82
F2
02
12
0C
ENDCHAR
STARTCHAR uni01C9
ENCODING 457
SWIDTH 576 0
DWIDTH 8 0
BBX 7 13 1 -3
BITMAP
C6
40
40
46
42
42
42
42
42
E2
02
12
0C
ENDCHAR
STARTCHAR uni01CA
ENCODING 458
SWIDTH 576 0
DWIDTH 8 0
BBX 8 10 0 0
BITMAP
88
88
88
C8
A8
A8
98
88
8C
8B
ENDCHAR
STARTCHAR uni01CB
ENCODING 459
SWIDTH 576 0
DWIDTH 8 0
BBX 8 13 0 -3
BITMAP
8B
88
88
CB
A9
A9
99
89
89
89
01
09
06
ENDCHAR
STARTCHAR uni01CC
ENCODING 460
SWIDTH 576 0
DWIDTH 8 0
BBX 7 13 1 -3
BITMAP
06
00
00
B2
CA
8A
8A
8A
8A
8A
02
12
0C
ENDCHAR
STARTCHAR uni01CD
ENCODING 461
SWIDTH 576 0
DWIDTH 8 0
BBX 7 12 1 0
BITMAP
44
28
10
00
38
44
82
82
FE
82
82
82
ENDCHAR
STARTCHAR uni01CE
ENCODING 462
SWIDTH 576 0
DWIDTH 8 0
BBX 7 11 1 0
BITMAP
44
28
10
00
7C
02
02
7E
82
86
7A
ENDCHAR
STARTCHAR uni01CF
ENCODING 463
SWIDTH 576 0
DWIDTH 8 0
BBX 5 12 2 0
BITMAP
88
50
20
00
F8
20
20
20
20
20
20
F8
ENDCHAR
STARTCHAR uni01D0
ENCODING 464
SWIDTH 576 0
DWIDTH 8 0
BBX 5 11 2 0
BITMAP
88
50
20
00
E0
20
20
20
20
20
F8
ENDCHAR
STARTCHAR uni01D1
ENCODING 465
SWIDTH 576 0
DWIDTH 8 0
BBX 7 12 1 0
BITMAP
44
28
10
00
7C
82
82
82
82
82
82
7C
ENDCHAR
STARTCHAR uni01D2
ENCODING 466
SWIDTH 576 0
DWIDTH 8 0
BBX 7 11 1 0
BITMAP
44
28
10
00
7C
82
82
82
82
82
7C
ENDCHAR
STARTCHAR uni01D3
ENCODING 467
SWIDTH 576 0
DWIDTH 8 0
BBX 7 12 1 0
BITMAP
44
28
10
00
82
82
82
82
82
82
82
7C
ENDCHAR
STARTCHAR uni01D4
ENCODING 468
SWIDTH 576 0
DWIDTH 8 0
BBX 7 11 1 0
BITMAP
44
28
10
00
84
84
84
84
84
84
7A
ENDCHAR
STARTCHAR uni01D5
ENCODING 469
SWIDTH 576 0
DWIDTH 8 0
BBX 7 11 1 0
BITMAP
7C
00
6C
00
82
82
82
82
82
82
7C
ENDCHAR
STARTCHAR uni01D6
ENCODING 470
SWIDTH 576 0
DWIDTH 8 0
BBX 7 11 1 0
BITMAP
FC
00
CC
00
84
84
84
84
84
84
7A
ENDCHAR
STARTCHAR uni01D7
ENCODING 471
SWIDTH 576 0
DWIDTH 8 0
BBX 7 12 1 0
BITMAP
08
10
00
6C
00
82
82
82
82
82
82
7C
ENDCHAR
STARTCHAR uni01D8
ENCODING 472
SWIDTH 576 0
DWIDTH 8 0
BBX 7 12 1 0
BITMAP
08
10
00
CC
00
84
84
84
84
84
84
7A
ENDCHAR
STARTCHAR uni01D9
ENCODING 473
SWIDTH 576 0
DWIDTH 8 0
BBX 7 12 1 0
BITMAP
28
10
00
6C
00
82
82
82
82
82
82
7C
ENDCHAR
STARTCHAR uni01DA
ENCODING 474
SWIDTH 576 0
DWIDTH 8 0
BBX 7 12 1 0
BITMAP
48
30
00
CC
00
84
84
84
84
84
84
7A
ENDCHAR
STARTCHAR uni01DB
ENCODING 475
SWIDTH 576 0
DWIDTH 8 0
BBX 7 12 1 0
BITMAP
20
10
00
C6
00
82
82
82
82
82
82
7C
ENDCHAR
STARTCHAR uni01DC
ENCODING 476
SWIDTH 576 0
DWIDTH 8 0
BBX 7 12 1 0
BITMAP
40
20
00
CC
00
84
84
84
84
84
84
7A
ENDCHAR
STARTCHAR uni01DD
ENCODING 477
SWIDTH 576 0
DWIDTH 8 0
BBX 7 7 1 0
BITMAP
7C
02
02
FE
82
82
7C
ENDCHAR
STARTCHAR uni01DE
ENCODING 478
SWIDTH 576 0
DWIDTH 8 0
BBX 7 12 1 0
BITMAP
7C
00
6C
00
38
44
82
82
FE
82
82
82
ENDCHAR
STARTCHAR uni01DF
ENCODING 479
SWIDTH 576 0
DWIDTH 8 0
BBX 7 11 1 0
BITMAP
7C
00
6C
00
7C
02
02
7E
82
86
7A
ENDCHAR
STARTCHAR uni01E0
ENCODING 480
SWIDTH 576 0
DWIDTH 8 0
BBX 7 12 1 0
BITMAP
7C
00
30
00
38
44
82
82
FE
82
82
82
ENDCHAR
STARTCHAR uni01E1
ENCODING 481
SWIDTH 576 0
DWIDTH 8 0
BBX 7 11 1 0
BITMAP
7C
00
18
00
7C
02
02
7E
82
86
7A
ENDCHAR
STARTCHAR uni01E2
ENCODING 482
SWIDTH 576 0
DWIDTH 8 0
BBX 7 11 1 0
BITMAP
7C
00
7E
90
90
90
FC
90
90
90
9E
ENDCHAR
STARTCHAR uni01E3
ENCODING 483
SWIDTH 576 0
DWIDTH 8 0
BBX 7 9 1 0
BITMAP
7C
00
6C
92
12
7C
90
92
6E
ENDCHAR
STARTCHAR uni01E4
ENCODING 484
SWIDTH 576 0
DWIDTH 8 0
BBX 7 10 1 0
BITMAP
7C
82
80
80
80
8E
82
9E
82
7C
ENDCHAR
STARTCHAR uni01E5
ENCODING 485
SWIDTH 576 0
DWIDTH 8 0
BBX 8 10 0 -3
BITMAP
3D
42
42
42
42
42
3E
02
FF
3C
ENDCHAR
STARTCHAR Gcaron
ENCODING 486
SWIDTH 576 0
DWIDTH 8 0
BBX 7 12 1 0
BITMAP
44
28
10
00
7C
82
80
80
8E
82
82
7C
ENDCHAR
STARTCHAR gcaron
ENCODING 487
SWIDTH 576 0
DWIDTH 8 0
BBX 7 14 1 -3
BITMAP
44
28
10
00
7A
84
84
84
78
80
7C
82
82
7C
ENDCHAR
STARTCHAR uni01E8
ENCODING 488
SWIDTH 576 0
DWIDTH 8 0
BBX 7 12 1 0
BITMAP
44
28
10
00
82
84
88
F0
90
88
84
82
ENDCHAR
STARTCHAR uni01E9
ENCODING 489
SWIDTH 576 0
DWIDTH 8 0
BBX 7 12 1 0
BITMAP
44
28
90
80
80
82
8C
B0
C0
B0
8C
82
ENDCHAR
STARTCHAR uni01EA
ENCODING 490
SWIDTH 576 0
DWIDTH 8 0
BBX 7 12 1 -2
BITMAP
7C
82
82
82
82
82
82
82
82
7C
20
30
ENDCHAR
STARTCHAR uni01EB
ENCODING 491
SWIDTH 576 0
DWIDTH 8 0
BBX 7 9 1 -2
BITMAP
7C
82
82
82
82
82
7C
20
30
ENDCHAR
STARTCHAR uni01EC
ENCODING 492
SWIDTH 576 0
DWIDTH 8 0
BBX 7 12 1 -2
BITMAP
7C
00
7C
82
82
82
82
82
82
7C
20
30
ENDCHAR
STARTCHAR uni01ED
ENCODING 493
SWIDTH 576 0
DWIDTH 8 0
BBX 7 11 1 -2
BITMAP
7C
00
7C
82
82
82
82
82
7C
20
30
ENDCHAR
STARTCHAR uni01EE
ENCODING 494
SWIDTH 576 0
DWIDTH 8 0
BBX 7 12 1 0
BITMAP
44
28
10
FE
04
08
10
38
04
02
84
78
ENDCHAR
STARTCHAR uni01EF
ENCODING 495
SWIDTH 576 0
DWIDTH 8 0
BBX 6 14 2 -3
BITMAP
88
50
20
00
FC
08
10
20
70
08
04
04
88
70
ENDCHAR
STARTCHAR uni01F0
ENCODING 496
SWIDTH 576 0
DWIDTH 8 0
BBX 7 14 1 -3
BITMAP
22
14
08
00
1C
04
04
04
04
04
84
84
84
78
ENDCHAR
STARTCHAR uni01F1
ENCODING 497
SWIDTH 576 0
DWIDTH 8 0
BBX 8 10 0 0
BITMAP
F7
48
48
49
49
4A
4A
4C
4C
F7
ENDCHAR
STARTCHAR uni01F2
ENCODING 498
SWIDTH 576 0
DWIDTH 8 0
BBX 8 10 0 0
BITMAP
F0
48
48
4F
48
49
49
4A
4A
F7
ENDCHAR
STARTCHAR uni01F3
ENCODING 499
SWIDTH 576 0
DWIDTH 8 0
BBX 8 10 0 0
BITMAP
08
08
08
6F
98
89
89
8A
9A
6F
ENDCHAR
STARTCHAR uni01F4
ENCODING 500
SWIDTH 576 0
DWIDTH 8 0
BBX 7 12 1 0
BITMAP
04
08
10
00
7C
82
80
80
8E
82
82
7C
ENDCHAR
STARTCHAR uni01F5
ENCODING 501
SWIDTH 576 0
DWIDTH 8 0
BBX 7 14 1 -3
BITMAP
04
08
10
00
7A
84
84
84
78
80
7C
82
82
7C
ENDCHAR
STARTCHAR uni01F6
ENCODING 502
SWIDTH 576 0
DWIDTH 8 0
BBX 7 10 1 0
BITMAP
90
90
90
92
F2
92
92
92
92
8C
ENDCHAR
STARTCHAR uni01F7
ENCODING 503
SWIDTH 576 0
DWIDTH 8 0
BBX 7 12 1 -2
BITMAP
BC
C2
82
82
82
8C
B0
C0
80
80
80
80
ENDCHAR
STARTCHAR uni01F8
ENCODING 504
SWIDTH 576 0
DWIDTH 8 0
BBX 7 11 1 0
BITMAP
40
20
10
82
82
C2
A2
92
8A
86
82
ENDCHAR
STARTCHAR uni01F9
ENCODING 505
SWIDTH 576 0
DWIDTH 8 0
BBX 7 11 1 0
BITMAP
40
20
10
00
BC
C2
82
82
82
82
82
ENDCHAR
STARTCHAR Aringacute
ENCODING 506
SWIDTH 576 0
DWIDTH 8 0
BBX 7 12 1 0
BITMAP
08
10
00
38
44
38
28
44
82
FE
82
82
ENDCHAR
STARTCHAR aringacute
ENCODING 507
SWIDTH 576 0
DWIDTH 8 0
BBX 7 12 1 0
BITMAP
08
10
00
18
24
18
7C
02
7E
82
86
7A
ENDCHAR
STARTCHAR AEacute
ENCODING 508
SWIDTH 576 0
DWIDTH 8 0
BBX 7 12 1 0
BITMAP
04
08
10
00
7E
90
90
FC
90
90
90
9E
ENDCHAR
STARTCHAR aeacute
ENCODING 509
SWIDTH 576 0
DWIDTH 8 0
BBX 7 11 1 0
BITMAP
04
08
10
00
6C
92
12
7C
90
92
6E
ENDCHAR
STARTCHAR Oslashacute
ENCODING 510
SWIDTH 576 0
DWIDTH 8 0
BBX 7 13 1 -1
BITMAP
04
08
10
02
7C
86
8A
92
92
A2
C2
7C
80
ENDCHAR
STARTCHAR oslashacute
ENCODING 511
SWIDTH 576 0
DWIDTH 8 0
BBX 7 12 1 -1
BITMAP
04
08
10
02
7C
8A
8A
92
A2
A2
7C
80
ENDCHAR
STARTCHAR uni0200
ENCODING 512
SWIDTH 576 0
DWIDTH 8 0
BBX 7 11 1 0
BITMAP
48
24
00
38
44
82
82
FE
82
82
82
ENDCHAR
STARTCHAR uni0201
ENCODING 513
SWIDTH 576 0
DWIDTH 8 0
BBX 7 10 1 0
BITMAP
48
24
00
7C
02
02
7E
82
86
7A
ENDCHAR
STARTCHAR uni0202
ENCODING 514
SWIDTH 576 0
DWIDTH 8 0
BBX 7 11 1 0
BITMAP
38
44
00
38
44
82
82
FE
82
82
82
ENDCHAR
STARTCHAR uni0203
ENCODING 515
SWIDTH 576 0
DWIDTH 8 0
BBX 7 10 1 0
BITMAP
38
44
00
7C
02
02
7E
82
86
7A
ENDCHAR
STARTCHAR uni0204
ENCODING 516
SWIDTH 576 0
DWIDTH 8 0
BBX 7 11 1 0
BITMAP
48
24
00
FE
80
80
F8
80
80
80
FE
ENDCHAR
STARTCHAR uni0205
ENCODING 517
SWIDTH 576 0
DWIDTH 8 0
BBX 7 10 1 0
BITMAP
48
24
00
7C
82
82
FE
80
80
7C
ENDCHAR
STARTCHAR uni0206
ENCODING 518
SWIDTH 576 0
DWIDTH 8 0
BBX 7 11 1 0
BITMAP
38
44
00
FE
80
80
F8
80
80
80
FE
ENDCHAR
STARTCHAR uni0207
ENCODING 519
SWIDTH 576 0
DWIDTH 8 0
BBX 7 10 1 0
BITMAP
38
44
00
7C
82
82
FE
80
80
7C
ENDCHAR
STARTCHAR uni0208
ENCODING 520
SWIDTH 576 0
DWIDTH 8 0
BBX 5 11 2 0
BITMAP
90
48
00
F8
20
20
20
20
20
20
F8
ENDCHAR
STARTCHAR uni0209
ENCODING 521
SWIDTH 576 0
DWIDTH 8 0
BBX 6 11 1 0
BITMAP
90
48
00
70
10
10
10
10
10
10
7C
ENDCHAR
STARTCHAR uni020A
ENCODING 522
SWIDTH 576 0
DWIDTH 8 0
BBX 5 11 2 0
BITMAP
70
88
00
F8
20
20
20
20
20
20
F8
ENDCHAR
STARTCHAR uni020B
ENCODING 523
SWIDTH 576 0
DWIDTH 8 0
BBX 6 11 1 0
BITMAP
70
88
00
70
10
10
10
10
10
10
7C
ENDCHAR
STARTCHAR uni020C
ENCODING 524
SWIDTH 576 0
DWIDTH 8 0
BBX 7 11 1 0
BITMAP
48
24
00
7C
82
82
82
82
82
82
7C
ENDCHAR
STARTCHAR uni020D
ENCODING 525
SWIDTH 576 0
DWIDTH 8 0
BBX 7 10 1 0
BITMAP
48
24
00
7C
82
82
82
82
82
7C
ENDCHAR
STARTCHAR uni020E
ENCODING 526
SWIDTH 576 0
DWIDTH 8 0
BBX 7 11 1 0
BITMAP
38
44
00
7C
82
82
82
82
82
82
7C
ENDCHAR
STARTCHAR uni020F
ENCODING 527
SWIDTH 576 0
DWIDTH 8 0
BBX 7 10 1 0
BITMAP
38
44
00
7C
82
82
82
82
82
7C
ENDCHAR
STARTCHAR uni0210
ENCODING 528
SWIDTH 576 0
DWIDTH 8 0
BBX 7 11 1 0
BITMAP
48
24
00
FC
82
82
82
FC
84
82
82
ENDCHAR
STARTCHAR uni0211
ENCODING 529
SWIDTH 576 0
DWIDTH 8 0
BBX 7 10 1 0
BITMAP
48
24
00
9C
62
42
40
40
40
40
ENDCHAR
STARTCHAR uni0212
ENCODING 530
SWIDTH 576 0
DWIDTH 8 0
BBX 7 11 1 0
BITMAP
38
44
00
FC
82
82
82
FC
84
82
82
ENDCHAR
STARTCHAR uni0213
ENCODING 531
SWIDTH 576 0
DWIDTH 8 0
BBX 7 10 1 0
BITMAP
38
44
00
9C
62
42
40
40
40
40
ENDCHAR
STARTCHAR uni0214
ENCODING 532
SWIDTH 576 0
DWIDTH 8 0
BBX 7 11 1 0
BITMAP
48
24
00
82
82
82
82
82
82
82
7C
ENDCHAR
STARTCHAR uni0215
ENCODING 533
SWIDTH 576 0
DWIDTH 8 0
BBX 7 10 1 0
BITMAP
90
48
00
84
84
84
84
84
84
7A
ENDCHAR
STARTCHAR uni0216
ENCODING 534
SWIDTH 576 0
DWIDTH 8 0
BBX 7 11 1 0
BITMAP
38
44
00
82
82
82
82
82
82
82
7C
ENDCHAR
STARTCHAR uni0217
ENCODING 535
SWIDTH 576 0
DWIDTH 8 0
BBX 7 10 1 0
BITMAP
38
44
00
84
84
84
84
84
84
7A
ENDCHAR
STARTCHAR uni0218
ENCODING 536
SWIDTH 576 0
DWIDTH 8 0
BBX 7 13 1 -3
BITMAP
7C
82
82
80
70
0C
02
82
82
7C
18
08
10
ENDCHAR
STARTCHAR uni0219
ENCODING 537
SWIDTH 576 0
DWIDTH 8 0
BBX 7 10 1 -3
BITMAP
7C
82
80
7C
02
82
7C
18
08
10
ENDCHAR
STARTCHAR uni021A
ENCODING 538
SWIDTH 576 0
DWIDTH 8 0
BBX 7 13 1 -3
BITMAP
FE
10
10
10
10
10
10
10
10
10
18
08
10
ENDCHAR
STARTCHAR uni021B
ENCODING 539
SWIDTH 576 0
DWIDTH 8 0
BBX 7 12 1 -3
BITMAP
20
20
FC
20
20
20
20
22
1C
18
08
10
ENDCHAR
STARTCHAR uni021C
ENCODING 540
SWIDTH 576 0
DWIDTH 8 0
BBX 7 10 1 0
BITMAP
BC
C2
02
04
18
64
02
02
0C
F0
ENDCHAR
STARTCHAR uni021D
ENCODING 541
SWIDTH 576 0
DWIDTH 8 0
BBX 6 10 2 -3
BITMAP
B8
C4
04
08
30
C8
04
04
18
E0
ENDCHAR
STARTCHAR uni021E
ENCODING 542
SWIDTH 576 0
DWIDTH 8 0
BBX 7 12 1 0
BITMAP
44
28
10
82
82
82
82
FE
82
82
82
82
ENDCHAR
STARTCHAR uni021F
ENCODING 543
SWIDTH 576 0
DWIDTH 8 0
BBX 7 12 1 0
BITMAP
44
28
90
80
80
BC
C2
82
82
82
82
82
ENDCHAR
STARTCHAR uni0220
ENCODING 544
SWIDTH 576 0
DWIDTH 8 0
BBX 7 13 1 -3
BITMAP
BC
C2
82
82
82
82
82
82
82
82
02
02
02
ENDCHAR
STARTCHAR uni0222
ENCODING 546
SWIDTH 576 0
DWIDTH 8 0
BBX 7 10 1 0
BITMAP
44
82
82
82
7C
82
82
82
82
7C
ENDCHAR
STARTCHAR uni0223
ENCODING 547
SWIDTH 576 0
DWIDTH 8 0
BBX 6 9 2 0
BITMAP
48
84
84
84
78
84
84
84
78
ENDCHAR
STARTCHAR uni0224
ENCODING 548
SWIDTH 576 0
DWIDTH 8 0
BBX 7 12 1 -2
BITMAP
FE
02
04
08
10
20
40
80
80
FE
02
0C
ENDCHAR
STARTCHAR uni0225
ENCODING 549
SWIDTH 576 0
DWIDTH 8 0
BBX 7 9 1 -2
BITMAP
FE
04
08
10
20
40
FE
02
0C
ENDCHAR
STARTCHAR uni0226
ENCODING 550
SWIDTH 576 0
DWIDTH 8 0
BBX 7 11 1 0
BITMAP
10
00
38
44
82
82
82
FE
82
82
82
ENDCHAR
STARTCHAR uni0227
ENCODING 551
SWIDTH 576 0
DWIDTH 8 0
BBX 7 9 1 0
BITMAP
10
00
7C
02
02
7E
82
86
7A
ENDCHAR
STARTCHAR uni0228
ENCODING 552
SWIDTH 576 0
DWIDTH 8 0
BBX 7 13 1 -3
BITMAP
FE
80
80
80
F8
80
80
80
80
FE
10
48
30
ENDCHAR
STARTCHAR uni0229
ENCODING 553
SWIDTH 576 0
DWIDTH 8 0
BBX 7 10 1 -3
BITMAP
7C
82
82
FE
80
80
7C
10
48
30
ENDCHAR
STARTCHAR uni022A
ENCODING 554
SWIDTH 576 0
DWIDTH 8 0
BBX 7 12 1 0
BITMAP
7C
00
28
00
7C
82
82
82
82
82
82
7C
ENDCHAR
STARTCHAR uni022B
ENCODING 555
SWIDTH 576 0
DWIDTH 8 0
BBX 6 11 1 0
BITMAP
FC
00
48
00
78
84
84
84
84
84
78
ENDCHAR
STARTCHAR uni022C
ENCODING 556
SWIDTH 576 0
DWIDTH 8 0
BBX 7 12 1 0
BITMAP
7C
34
58
00
7C
82
82
82
82
82
82
7C
ENDCHAR
STARTCHAR uni022D
ENCODING 557
SWIDTH 576 0
DWIDTH 8 0
BBX 6 12 1 0
BITMAP
FC
00
28
50
00
78
84
84
84
84
84
78
ENDCHAR
STARTCHAR uni022E
ENCODING 558
SWIDTH 576 0
DWIDTH 8 0
BBX 7 12 1 0
BITMAP
10
00
7C
82
82
82
82
82
82
82
82
7C
ENDCHAR
STARTCHAR uni022F
ENCODING 559
SWIDTH 576 0
DWIDTH 8 0
BBX 7 9 1 0
BITMAP
10
00
7C
82
82
82
82
82
7C
ENDCHAR
STARTCHAR uni0230
ENCODING 560
SWIDTH 576 0
DWIDTH 8 0
BBX 7 12 1 0
BITMAP
7C
00
10
00
7C
82
82
82
82
82
82
7C
ENDCHAR
STARTCHAR uni0231
ENCODING 561
SWIDTH 576 0
DWIDTH 8 0
BBX 7 11 1 0
BITMAP
7C
00
10
00
7C
82
82
82
82
82
7C
ENDCHAR
STARTCHAR uni0232
ENCODING 562
SWIDTH 576 0
DWIDTH 8 0
BBX 7 11 1 0
BITMAP
7C
00
82
82
44
28
10
10
10
10
10
ENDCHAR
STARTCHAR uni0233
ENCODING 563
SWIDTH 576 0
DWIDTH 8 0
BBX 6 12 1 -3
BITMAP
78
00
84
84
84
84
84
8C
74
04
84
78
ENDCHAR
STARTCHAR uni0250
ENCODING 592
SWIDTH 576 0
DWIDTH 8 0
BBX 7 7 1 0
BITMAP
BC
C2
82
FC
80
80
7C
ENDCHAR
STARTCHAR uni0251
ENCODING 593
SWIDTH 576 0
DWIDTH 8 0
BBX 7 7 1 0
BITMAP
7A
86
82
82
82
86
7A
ENDCHAR
STARTCHAR uni0252
ENCODING 594
SWIDTH 576 0
DWIDTH 8 0
BBX 7 7 1 0
BITMAP
BC
C2
82
82
82
C2
BC
ENDCHAR
STARTCHAR uni0253
ENCODING 595
SWIDTH 576 0
DWIDTH 8 0
BBX 7 11 1 0
BITMAP
70
88
80
80
BC
C2
82
82
82
C2
BC
ENDCHAR
STARTCHAR uni0254
ENCODING 596
SWIDTH 576 0
DWIDTH 8 0
BBX 7 7 1 0
BITMAP
7C
82
02
02
02
82
7C
ENDCHAR
STARTCHAR uni0255
ENCODING 597
SWIDTH 576 0
DWIDTH 8 0
BBX 7 8 1 -1
BITMAP
7C
82
80
80
8C
92
7C
20
ENDCHAR
STARTCHAR uni0256
ENCODING 598
SWIDTH 576 0
DWIDTH 8 0
BBX 7 11 1 -1
BITMAP
04
04
04
74
8C
84
84
84
8C
74
02
ENDCHAR
STARTCHAR uni0257
ENCODING 599
SWIDTH 576 0
DWIDTH 8 0
BBX 7 10 1 0
BITMAP
02
04
04
74
8C
84
84
84
8C
74
ENDCHAR
STARTCHAR uni0258
ENCODING 600
SWIDTH 576 0
DWIDTH 8 0
BBX 7 7 1 0
BITMAP
7C
82
82
FE
02
02
7C
ENDCHAR
STARTCHAR uni0259
ENCODING 601
SWIDTH 576 0
DWIDTH 8 0
BBX 7 7 1 0
BITMAP
7C
02
02
FE
82
82
7C
ENDCHAR
STARTCHAR uni025A
ENCODING 602
SWIDTH 576 0
DWIDTH 8 0
BBX 7 7 1 0
BITMAP
70
0C
0A
F8
88
88
70
ENDCHAR
STARTCHAR uni025B
ENCODING 603
SWIDTH 576 0
DWIDTH 8 0
BBX 7 7 1 0
BITMAP
7C
82
80
78
80
82
7C
ENDCHAR
STARTCHAR uni025C
ENCODING 604
SWIDTH 576 0
DWIDTH 8 0
BBX 7 7 1 0
BITMAP
7C
82
02
3C
02
82
7C
ENDCHAR
STARTCHAR uni025D
ENCODING 605
SWIDTH 576 0
DWIDTH 8 0
BBX 7 7 1 0
BITMAP
74
8A
08
70
08
88
70
ENDCHAR
STARTCHAR uni025E
ENCODING 606
SWIDTH 576 0
DWIDTH 8 0
BBX 7 7 1 0
BITMAP
7C
82
82
BC
82
82
7C
ENDCHAR
STARTCHAR uni025F
ENCODING 607
SWIDTH 576 0
DWIDTH 8 0
BBX 7 10 1 -3
BITMAP
08
08
08
08
3E
08
08
88
88
70
ENDCHAR
STARTCHAR uni0260
ENCODING 608
SWIDTH 576 0
DWIDTH 8 0
BBX 7 13 1 -3
BITMAP
02
04
04
7C
84
84
84
84
8C
74
04
84
78
ENDCHAR
STARTCHAR uni0261
ENCODING 609
SWIDTH 576 0
DWIDTH 8 0
BBX 6 10 1 -3
BITMAP
78
84
84
84
84
8C
74
04
84
78
ENDCHAR
STARTCHAR uni0262
ENCODING 610
SWIDTH 576 0
DWIDTH 8 0
BBX 7 7 1 0
BITMAP
7C
82
80
8E
82
82
7C
ENDCHAR
STARTCHAR uni0263
ENCODING 611
SWIDTH 576 0
DWIDTH 8 0
BBX 7 9 1 -2
BITMAP
82
82
44
28
28
10
10
28
10
ENDCHAR
STARTCHAR uni0264
ENCODING 612
SWIDTH 576 0
DWIDTH 8 0
BBX 7 7 1 0
BITMAP
44
AA
28
10
28
28
10
ENDCHAR
STARTCHAR uni0265
ENCODING 613
SWIDTH 576 0
DWIDTH 8 0
BBX 7 10 1 -3
BITMAP
82
82
82
82
82
86
7A
02
02
02
ENDCHAR
STARTCHAR uni0266
ENCODING 614
SWIDTH 576 0
DWIDTH 8 0
BBX 7 10 1 0
BITMAP
60
80
80
BC
C2
82
82
82
82
82
ENDCHAR
STARTCHAR uni0267
ENCODING 615
SWIDTH 576 0
DWIDTH 8 0
BBX 7 12 1 -2
BITMAP
60
80
80
BC
C2
82
82
82
82
82
12
0C
ENDCHAR
STARTCHAR uni0268
ENCODING 616
SWIDTH 576 0
DWIDTH 8 0
BBX 5 10 2 0
BITMAP
60
00
00
E0
20
20
70
20
20
F8
ENDCHAR
STARTCHAR uni0269
ENCODING 617
SWIDTH 576 0
DWIDTH 8 0
BBX 4 7 3 0
BITMAP
C0
40
40
40
40
50
20
ENDCHAR
STARTCHAR uni026A
ENCODING 618
SWIDTH 576 0
DWIDTH 8 0
BBX 5 7 2 0
BITMAP
F8
20
20
20
20
20
F8
ENDCHAR
STARTCHAR uni026B
ENCODING 619
SWIDTH 576 0
DWIDTH 8 0
BBX 5 10 2 0
BITMAP
E0
20
20
20
68
B0
20
20
20
F8
ENDCHAR
STARTCHAR uni026C
ENCODING 620
SWIDTH 576 0
DWIDTH 8 0
BBX 5 10 2 0
BITMAP
E0
20
20
60
A0
78
20
20
20
F8
ENDCHAR
STARTCHAR uni026D
ENCODING 621
SWIDTH 576 0
DWIDTH 8 0
BBX 6 12 2 -2
BITMAP
E0
20
20
20
20
20
20
20
20
20
24
18
ENDCHAR
STARTCHAR uni026E
ENCODING 622
SWIDTH 576 0
DWIDTH 8 0
BBX 7 11 1 -1
BITMAP
C0
40
40
5E
42
44
4C
42
42
E2
1C
ENDCHAR
STARTCHAR uni026F
ENCODING 623
SWIDTH 576 0
DWIDTH 8 0
BBX 7 7 1 0
BITMAP
82
92
92
92
92
92
6E
ENDCHAR
STARTCHAR uni0270
ENCODING 624
SWIDTH 576 0
DWIDTH 8 0
BBX 7 9 1 -2
BITMAP
82
92
92
92
92
92
6E
02
02
ENDCHAR
STARTCHAR uni0271
ENCODING 625
SWIDTH 576 0
DWIDTH 8 0
BBX 7 9 1 -2
BITMAP
EC
92
92
92
92
92
82
12
0C
ENDCHAR
STARTCHAR uni0272
ENCODING 626
SWIDTH 576 0
DWIDTH 8 0
BBX 8 9 0 -2
BITMAP
5E
61
41
41
41
41
41
40
80
ENDCHAR
STARTCHAR uni0273
ENCODING 627
SWIDTH 576 0
DWIDTH 8 0
BBX 7 9 1 -2
BITMAP
B8
C4
84
84
84
84
84
04
02
ENDCHAR
STARTCHAR uni0274
ENCODING 628
SWIDTH 576 0
DWIDTH 8 0
BBX 7 7 1 0
BITMAP
82
C2
A2
92
8A
86
82
ENDCHAR
STARTCHAR uni0275
ENCODING 629
SWIDTH 576 0
DWIDTH 8 0
BBX 7 7 1 0
BITMAP
7C
82
82
FE
82
82
7C
ENDCHAR
STARTCHAR uni0276
ENCODING 630
SWIDTH 576 0
DWIDTH 8 0
BBX 7 7 1 0
BITMAP
7E
90
90
9C
90
90
7E
ENDCHAR
STARTCHAR uni0277
ENCODING 631
SWIDTH 576 0
DWIDTH 8 0
BBX 7 8 1 0
BITMAP
7C
82
92
92
92
92
92
6C
ENDCHAR
STARTCHAR uni0278
ENCODING 632
SWIDTH 576 0
DWIDTH 8 0
BBX 7 12 1 -2
BITMAP
10
10
10
7C
92
92
92
92
7C
10
10
10
ENDCHAR
STARTCHAR uni0279
ENCODING 633
SWIDTH 576 0
DWIDTH 8 0
BBX 7 7 1 0
BITMAP
04
04
04
04
84
8C
72
ENDCHAR
STARTCHAR uni027A
ENCODING 634
SWIDTH 576 0
DWIDTH 8 0
BBX 7 10 1 0
BITMAP
04
04
04
04
04
04
04
84
8C
72
ENDCHAR
STARTCHAR uni027B
ENCODING 635
SWIDTH 576 0
DWIDTH 8 0
BBX 7 9 1 -2
BITMAP
04
04
04
04
84
8C
74
04
02
ENDCHAR
STARTCHAR uni027C
ENCODING 636
SWIDTH 576 0
DWIDTH 8 0
BBX 7 10 1 -3
BITMAP
9C
62
42
40
40
40
40
40
40
40
ENDCHAR
STARTCHAR uni027D
ENCODING 637
SWIDTH 576 0
DWIDTH 8 0
BBX 7 9 1 -2
BITMAP
9C
62
42
40
40
40
40
48
30
ENDCHAR
STARTCHAR uni027E
ENCODING 638
SWIDTH 576 0
DWIDTH 8 0
BBX 6 7 2 0
BITMAP
38
44
84
80
80
80
80
ENDCHAR
STARTCHAR uni027F
ENCODING 639
SWIDTH 576 0
DWIDTH 8 0
BBX 6 7 2 0
BITMAP
70
88
84
04
04
04
04
ENDCHAR
STARTCHAR uni0280
ENCODING 640
SWIDTH 576 0
DWIDTH 8 0
BBX 7 7 1 0
BITMAP
FC
82
82
FC
82
82
82
ENDCHAR
STARTCHAR uni0281
ENCODING 641
SWIDTH 576 0
DWIDTH 8 0
BBX 7 7 1 0
BITMAP
82
82
82
FC
82
82
FC
ENDCHAR
STARTCHAR uni0282
ENCODING 642
SWIDTH 576 0
DWIDTH 8 0
BBX 7 9 1 -2
BITMAP
7C
82
80
7C
02
82
FC
80
70
ENDCHAR
STARTCHAR uni0283
ENCODING 643
SWIDTH 576 0
DWIDTH 8 0
BBX 7 12 1 -2
BITMAP
0C
12
10
10
10
10
10
10
10
10
90
60
ENDCHAR
STARTCHAR uni0284
ENCODING 644
SWIDTH 576 0
DWIDTH 8 0
BBX 7 13 1 -3
BITMAP
06
08
08
08
08
08
08
3E
08
08
88
88
70
ENDCHAR
STARTCHAR uni0285
ENCODING 645
SWIDTH 576 0
DWIDTH 8 0
BBX 7 9 1 -2
BITMAP
60
90
10
10
10
10
10
12
0C
ENDCHAR
STARTCHAR uni0286
ENCODING 646
SWIDTH 576 0
DWIDTH 8 0
BBX 7 12 1 -2
BITMAP
0C
12
10
10
10
10
10
10
10
70
98
64
ENDCHAR
STARTCHAR uni0287
ENCODING 647
SWIDTH 576 0
DWIDTH 8 0
BBX 7 9 1 -2
BITMAP
70
88
08
08
08
08
7E
08
08
ENDCHAR
STARTCHAR uni0288
ENCODING 648
SWIDTH 576 0
DWIDTH 8 0
BBX 6 11 1 -2
BITMAP
20
20
FC
20
20
20
20
20
20
24
18
ENDCHAR
STARTCHAR uni0289
ENCODING 649
SWIDTH 576 0
DWIDTH 8 0
BBX 7 7 1 0
BITMAP
44
44
44
FE
44
44
3A
ENDCHAR
STARTCHAR uni028A
ENCODING 650
SWIDTH 576 0
DWIDTH 8 0
BBX 7 7 1 0
BITMAP
EE
44
82
82
82
44
38
ENDCHAR
STARTCHAR uni028B
ENCODING 651
SWIDTH 576 0
DWIDTH 8 0
BBX 6 7 1 0
BITMAP
90
88
84
84
84
88
70
ENDCHAR
STARTCHAR uni028C
ENCODING 652
SWIDTH 576 0
DWIDTH 8 0
BBX 7 7 1 0
BITMAP
10
28
28
44
44
82
82
ENDCHAR
STARTCHAR uni028D
ENCODING 653
SWIDTH 576 0
DWIDTH 8 0
BBX 7 7 1 0
BITMAP
44
AA
92
92
92
82
82
ENDCHAR
STARTCHAR uni028E
ENCODING 654
SWIDTH 576 0
DWIDTH 8 0
BBX 7 10 1 0
BITMAP
0C
12
10
20
20
50
48
48
84
84
ENDCHAR
STARTCHAR uni028F
ENCODING 655
SWIDTH 576 0
DWIDTH 8 0
BBX 7 7 1 0
BITMAP
82
44
28
10
10
10
10
ENDCHAR
STARTCHAR uni0290
ENCODING 656
SWIDTH 576 0
DWIDTH 8 0
BBX 7 9 1 -2
BITMAP
FE
04
08
10
20
40
FC
08
06
ENDCHAR
STARTCHAR uni0291
ENCODING 657
SWIDTH 576 0
DWIDTH 8 0
BBX 7 9 1 -2
BITMAP
FE
04
08
10
24
4A
FC
10
20
ENDCHAR
STARTCHAR uni0292
ENCODING 658
SWIDTH 576 0
DWIDTH 8 0
BBX 6 10 1 -3
BITMAP
FC
08
10
20
70
08
04
04
88
70
ENDCHAR
STARTCHAR uni0293
ENCODING 659
SWIDTH 576 0
DWIDTH 8 0
BBX 6 10 2 -3
BITMAP
FC
08
10
20
70
08
44
B4
88
74
ENDCHAR
STARTCHAR uni0294
ENCODING 660
SWIDTH 576 0
DWIDTH 8 0
BBX 5 10 2 0
BITMAP
70
88
88
08
08
30
20
20
20
20
ENDCHAR
STARTCHAR uni0295
ENCODING 661
SWIDTH 576 0
DWIDTH 8 0
BBX 5 10 2 0
BITMAP
70
88
88
80
80
60
20
20
20
20
ENDCHAR
STARTCHAR uni0296
ENCODING 662
SWIDTH 576 0
DWIDTH 8 0
BBX 5 10 2 0
BITMAP
20
20
20
20
30
08
08
88
88
70
ENDCHAR
STARTCHAR uni0297
ENCODING 663
SWIDTH 576 0
DWIDTH 8 0
BBX 7 11 1 -2
BITMAP
7C
82
80
80
80
80
80
80
80
82
7C
ENDCHAR
STARTCHAR uni0298
ENCODING 664
SWIDTH 576 0
DWIDTH 8 0
BBX 7 7 1 0
BITMAP
7C
82
82
92
82
82
7C
ENDCHAR
STARTCHAR uni0299
ENCODING 665
SWIDTH 576 0
DWIDTH 8 0
BBX 6 7 2 0
BITMAP
F8
84
84
F8
84
84
F8
ENDCHAR
STARTCHAR uni029A
ENCODING 666
SWIDTH 576 0
DWIDTH 8 0
BBX 7 7 1 0
BITMAP
78
84
82
72
82
84
78
ENDCHAR
STARTCHAR uni029B
ENCODING 667
SWIDTH 576 0
DWIDTH 8 0
BBX 7 9 1 0
BITMAP
02
04
7C
82
80
8E
82
82
7C
ENDCHAR
STARTCHAR uni029C
ENCODING 668
SWIDTH 576 0
DWIDTH 8 0
BBX 7 7 1 0
BITMAP
82
82
82
FE
82
82
82
ENDCHAR
STARTCHAR uni029D
ENCODING 669
SWIDTH 576 0
DWIDTH 8 0
BBX 7 13 1 -3
BITMAP
18
00
00
38
08
08
08
08
08
78
8C
8A
70
ENDCHAR
STARTCHAR uni029E
ENCODING 670
SWIDTH 576 0
DWIDTH 8 0
BBX 7 10 1 -3
BITMAP
82
62
1A
06
1A
62
82
02
02
02
ENDCHAR
STARTCHAR uni029F
ENCODING 671
SWIDTH 576 0
DWIDTH 8 0
BBX 6 7 1 0
BITMAP
80
80
80
80
80
80
FC
ENDCHAR
STARTCHAR uni02A0
ENCODING 672
SWIDTH 576 0
DWIDTH 8 0
BBX 7 13 1 -3
BITMAP
02
04
04
74
8C
84
84
84
8C
74
04
04
04
ENDCHAR
STARTCHAR uni02A1
ENCODING 673
SWIDTH 576 0
DWIDTH 8 0
BBX 5 10 2 0
BITMAP
70
88
88
08
08
30
20
F8
20
20
ENDCHAR
STARTCHAR uni02A2
ENCODING 674
SWIDTH 576 0
DWIDTH 8 0
BBX 5 10 2 0
BITMAP
70
88
88
80
80
60
20
F8
20
20
ENDCHAR
STARTCHAR uni02A3
ENCODING 675
SWIDTH 576 0
DWIDTH 8 0
BBX 7 10 1 0
BITMAP
10
10
10
5E
B0
92
94
98
B8
5E
ENDCHAR
STARTCHAR uni02A4
ENCODING 676
SWIDTH 576 0
DWIDTH 8 0
BBX 8 12 0 -2
BITMAP
10
10
10
5F
B1
92
96
91
B1
51
09
06
ENDCHAR
STARTCHAR uni02A5
ENCODING 677
SWIDTH 576 0
DWIDTH 8 0
BBX 8 12 0 -2
BITMAP
10
10
10
5F
B1
92
94
94
BB
5E
08
10
ENDCHAR
STARTCHAR uni02A6
ENCODING 678
SWIDTH 576 0
DWIDTH 8 0
BBX 7 9 1 0
BITMAP
40
40
EE
50
50
4C
42
42
3C
ENDCHAR
STARTCHAR uni02A7
ENCODING 679
SWIDTH 576 0
DWIDTH 8 0
BBX 7 12 1 -2
BITMAP
04
4A
48
E8
48
48
48
48
48
28
08
30
ENDCHAR
STARTCHAR uni02A8
ENCODING 680
SWIDTH 576 0
DWIDTH 8 0
BBX 7 10 1 -1
BITMAP
40
40
EE
50
50
50
54
5A
2C
08
ENDCHAR
STARTCHAR uni02A9
ENCODING 681
SWIDTH 576 0
DWIDTH 8 0
BBX 7 12 1 -2
BITMAP
38
44
40
54
5A
F2
52
52
52
52
02
0C
ENDCHAR
STARTCHAR uni02AA
ENCODING 682
SWIDTH 576 0
DWIDTH 8 0
BBX 7 10 1 0
BITMAP
C0
40
40
5C
62
60
5C
42
62
FC
ENDCHAR
STARTCHAR uni02AB
ENCODING 683
SWIDTH 576 0
DWIDTH 8 0
BBX 7 10 1 0
BITMAP
C0
40
40
7E
42
44
48
50
60
FE
ENDCHAR
STARTCHAR uni02AC
ENCODING 684
SWIDTH 576 0
DWIDTH 8 0
BBX 5 7 2 0
BITMAP
A8
A8
50
00
A8
A8
50
ENDCHAR
STARTCHAR uni02AD
ENCODING 685
SWIDTH 576 0
DWIDTH 8 0
BBX 5 7 2 1
BITMAP
F8
88
88
00
F8
88
88
ENDCHAR
STARTCHAR uni02B0
ENCODING 688
SWIDTH 576 0
DWIDTH 8 0
BBX 4 6 1 5
BITMAP
80
80
E0
90
90
90
ENDCHAR
STARTCHAR uni02B1
ENCODING 689
SWIDTH 576 0
DWIDTH 8 0
BBX 4 6 1 5
BITMAP
60
80
E0
90
90
90
ENDCHAR
STARTCHAR uni02B2
ENCODING 690
SWIDTH 576 0
DWIDTH 8 0
BBX 3 7 1 3
BITMAP
20
00
20
20
20
A0
40
ENDCHAR
STARTCHAR uni02B3
ENCODING 691
SWIDTH 576 0
DWIDTH 8 0
BBX 4 5 1 4
BITMAP
A0
D0
80
80
80
ENDCHAR
STARTCHAR uni02B4
ENCODING 692
SWIDTH 576 0
DWIDTH 8 0
BBX 4 5 1 4
BITMAP
10
10
10
B0
50
ENDCHAR
STARTCHAR uni02B5
ENCODING 693
SWIDTH 576 0
DWIDTH 8 0
BBX 6 7 1 2
BITMAP
10
10
10
B0
50
14
08
ENDCHAR
STARTCHAR uni02B6
ENCODING 694
SWIDTH 576 0
DWIDTH 8 0
BBX 4 6 1 4
BITMAP
90
A0
E0
90
90
E0
ENDCHAR
STARTCHAR uni02B7
ENCODING 695
SWIDTH 576 0
DWIDTH 8 0
BBX 5 5 1 4
BITMAP
A8
A8
A8
50
50
ENDCHAR
STARTCHAR uni02B8
ENCODING 696
SWIDTH 576 0
DWIDTH 8 0
BBX 4 6 1 3
BITMAP
90
90
90
70
10
E0
ENDCHAR
STARTCHAR uni02B9
ENCODING 697
SWIDTH 576 0
DWIDTH 8 0
BBX 2 4 3 7
BITMAP
40
40
80
80
ENDCHAR
STARTCHAR uni02BA
ENCODING 698
SWIDTH 576 0
DWIDTH 8 0
BBX 5 4 2 7
BITMAP
48
48
90
90
ENDCHAR
STARTCHAR uni02BB
ENCODING 699
SWIDTH 576 0
DWIDTH 8 0
BBX 2 4 4 6
BITMAP
40
80
C0
C0
ENDCHAR
STARTCHAR uni02BC
ENCODING 700
SWIDTH 576 0
DWIDTH 8 0
BBX 2 4 4 6
BITMAP
C0
C0
40
80
ENDCHAR
STARTCHAR uni02BD
ENCODING 701
SWIDTH 576 0
DWIDTH 8 0
BBX 2 4 4 6
BITMAP
C0
C0
80
40
ENDCHAR
STARTCHAR uni02BE
ENCODING 702
SWIDTH 576 0
DWIDTH 8 0
BBX 3 5 3 5
BITMAP
C0
20
20
20
C0
ENDCHAR
STARTCHAR uni02BF
ENCODING 703
SWIDTH 576 0
DWIDTH 8 0
BBX 3 5 2 5
BITMAP
60
80
80
80
60
ENDCHAR
STARTCHAR uni02C0
ENCODING 704
SWIDTH 576 0
DWIDTH 8 0
BBX 3 5 2 5
BITMAP
40
A0
20
40
40
ENDCHAR
STARTCHAR uni02C1
ENCODING 705
SWIDTH 576 0
DWIDTH 8 0
BBX 3 5 2 5
BITMAP
40
A0
80
40
40
ENDCHAR
STARTCHAR uni02C2
ENCODING 706
SWIDTH 576 0
DWIDTH 8 0
BBX 3 5 3 5
BITMAP
20
40
80
40
20
ENDCHAR
STARTCHAR uni02C3
ENCODING 707
SWIDTH 576 0
DWIDTH 8 0
BBX 3 5 3 5
BITMAP
80
40
20
40
80
ENDCHAR
STARTCHAR uni02C4
ENCODING 708
SWIDTH 576 0
DWIDTH 8 0
BBX 5 5 2 5
BITMAP
20
50
50
88
88
ENDCHAR
STARTCHAR uni02C5
ENCODING 709
SWIDTH 576 0
DWIDTH 8 0
BBX 5 5 2 5
BITMAP
88
88
50
50
20
ENDCHAR
STARTCHAR circumflex
ENCODING 710
SWIDTH 576 0
DWIDTH 8 0
BBX 5 3 2 7
BITMAP
20
50
88
ENDCHAR
STARTCHAR caron
ENCODING 711
SWIDTH 576 0
DWIDTH 8 0
BBX 5 3 2 7
BITMAP
88
50
20
ENDCHAR
STARTCHAR uni02C8
ENCODING 712
SWIDTH 576 0
DWIDTH 8 0
BBX 1 3 4 7
BITMAP
80
80
80
ENDCHAR
STARTCHAR uni02C9
ENCODING 713
SWIDTH 576 0
DWIDTH 8 0
BBX 5 1 2 9
BITMAP
F8
ENDCHAR
STARTCHAR uni02CA
ENCODING 714
SWIDTH 576 0
DWIDTH 8 0
BBX 3 3 3 8
BITMAP
20
40
80
ENDCHAR
STARTCHAR uni02CB
ENCODING 715
SWIDTH 576 0
DWIDTH 8 0
BBX 3 3 3 8
BITMAP
80
40
20
ENDCHAR
STARTCHAR uni02CC
ENCODING 716
SWIDTH 576 0
DWIDTH 8 0
BBX 1 3 4 -2
BITMAP
80
80
80
ENDCHAR
STARTCHAR uni02CD
ENCODING 717
SWIDTH 576 0
DWIDTH 8 0
BBX 5 1 2 -2
BITMAP
F8
ENDCHAR
STARTCHAR uni02CE
ENCODING 718
SWIDTH 576 0
DWIDTH 8 0
BBX 3 3 3 -3
BITMAP
80
40
20
ENDCHAR
STARTCHAR uni02CF
ENCODING 719
SWIDTH 576 0
DWIDTH 8 0
BBX 3 3 3 -3
BITMAP
20
40
80
ENDCHAR
STARTCHAR uni02D0
ENCODING 720
SWIDTH 576 0
DWIDTH 8 0
BBX 3 7 3 0
BITMAP
E0
40
00
00
00
40
E0
ENDCHAR
STARTCHAR uni02D1
ENCODING 721
SWIDTH 576 0
DWIDTH 8 0
BBX 3 2 3 5
BITMAP
E0
40
ENDCHAR
STARTCHAR uni02D2
ENCODING 722
SWIDTH 576 0
DWIDTH 8 0
BBX 3 4 3 1
BITMAP
C0
20
20
C0
ENDCHAR
STARTCHAR uni02D3
ENCODING 723
SWIDTH 576 0
DWIDTH 8 0
BBX 3 4 3 1
BITMAP
60
80
80
60
ENDCHAR
STARTCHAR uni02D4
ENCODING 724
SWIDTH 576 0
DWIDTH 8 0
BBX 5 3 2 4
BITMAP
20
20
F8
ENDCHAR
STARTCHAR uni02D5
ENCODING 725
SWIDTH 576 0
DWIDTH 8 0
BBX 5 3 2 2
BITMAP
F8
20
20
ENDCHAR
STARTCHAR uni02D6
ENCODING 726
SWIDTH 576 0
DWIDTH 8 0
BBX 5 5 2 2
BITMAP
20
20
F8
20
20
ENDCHAR
STARTCHAR uni02D7
ENCODING 727
SWIDTH 576 0
DWIDTH 8 0
BBX 6 3 2 3
BITMAP
84
FC
84
ENDCHAR
STARTCHAR breve
ENCODING 728
SWIDTH 576 0
DWIDTH 8 0
BBX 5 2 2 9
BITMAP
88
70
ENDCHAR
STARTCHAR dotaccent
ENCODING 729
SWIDTH 576 0
DWIDTH 8 0
BBX 1 2 4 9
BITMAP
80
80
ENDCHAR
STARTCHAR ring
ENCODING 730
SWIDTH 576 0
DWIDTH 8 0
BBX 4 3 2 8
BITMAP
60
90
60
ENDCHAR
STARTCHAR ogonek
ENCODING 731
SWIDTH 576 0
DWIDTH 8 0
BBX 4 3 2 -3
BITMAP
40
80
70
ENDCHAR
STARTCHAR tilde
ENCODING 732
SWIDTH 576 0
DWIDTH 8 0
BBX 7 2 1 9
BITMAP
72
9C
ENDCHAR
STARTCHAR hungarumlaut
ENCODING 733
SWIDTH 576 0
DWIDTH 8 0
BBX 7 3 1 8
BITMAP
22
44
88
ENDCHAR
STARTCHAR uni02DE
ENCODING 734
SWIDTH 576 0
DWIDTH 8 0
BBX 6 4 1 3
BITMAP
20
64
A4
18
ENDCHAR
STARTCHAR uni02DF
ENCODING 735
SWIDTH 576 0
DWIDTH 8 0
BBX 3 3 3 8
BITMAP
A0
40
A0
ENDCHAR
STARTCHAR uni02E0
ENCODING 736
SWIDTH 576 0
DWIDTH 8 0
BBX 4 6 1 3
BITMAP
90
90
60
60
90
60
ENDCHAR
STARTCHAR uni02E1
ENCODING 737
SWIDTH 576 0
DWIDTH 8 0
BBX 3 6 2 4
BITMAP
C0
40
40
40
40
E0
ENDCHAR
STARTCHAR uni02E2
ENCODING 738
SWIDTH 576 0
DWIDTH 8 0
BBX 4 5 1 4
BITMAP
70
80
60
10
E0
ENDCHAR
STARTCHAR uni02E3
ENCODING 739
SWIDTH 576 0
DWIDTH 8 0
BBX 4 5 1 4
BITMAP
90
90
60
90
90
ENDCHAR
STARTCHAR uni02E4
ENCODING 740
SWIDTH 576 0
DWIDTH 8 0
BBX 5 7 1 4
BITMAP
70
88
80
60
20
20
20
ENDCHAR
STARTCHAR uni02E5
ENCODING 741
SWIDTH 576 0
DWIDTH 8 0
BBX 4 13 2 -2
BITMAP
F0
10
10
10
10
10
10
10
10
10
10
10
10
ENDCHAR
STARTCHAR uni02E6
ENCODING 742
SWIDTH 576 0
DWIDTH 8 0
BBX 4 13 2 -2
BITMAP
10
10
10
F0
10
10
10
10
10
10
10
10
10
ENDCHAR
STARTCHAR uni02E7
ENCODING 743
SWIDTH 576 0
DWIDTH 8 0
BBX 4 13 2 -2
BITMAP
10
10
10
10
10
10
F0
10
10
10
10
10
10
ENDCHAR
STARTCHAR uni02E8
ENCODING 744
SWIDTH 576 0
DWIDTH 8 0
BBX 4 13 2 -2
BITMAP
10
10
10
10
10
10
10
10
10
F0
10
10
10
ENDCHAR
STARTCHAR uni02E9
ENCODING 745
SWIDTH 576 0
DWIDTH 8 0
BBX 4 13 2 -2
BITMAP
10
10
10
10
10
10
10
10
10
10
10
10
F0
ENDCHAR
STARTCHAR uni02EA
ENCODING 746
SWIDTH 576 0
DWIDTH 8 0
BBX 4 4 2 -2
BITMAP
F0
10
10
10
ENDCHAR
STARTCHAR uni02EB
ENCODING 747
SWIDTH 576 0
DWIDTH 8 0
BBX 4 7 3 -2
BITMAP
80
80
80
F0
80
80
80
ENDCHAR
STARTCHAR uni02EC
ENCODING 748
SWIDTH 576 0
DWIDTH 8 0
BBX 5 3 2 -2
BITMAP
88
50
20
ENDCHAR
STARTCHAR uni02ED
ENCODING 749
SWIDTH 576 0
DWIDTH 8 0
BBX 4 3 2 3
BITMAP
F0
00
F0
ENDCHAR
STARTCHAR uni02EE
ENCODING 750
SWIDTH 576 0
DWIDTH 8 0
BBX 5 4 2 6
BITMAP
D8
D8
48
90
ENDCHAR
STARTCHAR gravecomb
ENCODING 768
SWIDTH 576 0
DWIDTH 8 0
BBX 3 3 2 9
BITMAP
80
40
20
ENDCHAR
STARTCHAR acutecomb
ENCODING 769
SWIDTH 576 0
DWIDTH 8 0
BBX 3 3 4 9
BITMAP
20
40
80
ENDCHAR
STARTCHAR uni0302
ENCODING 770
SWIDTH 576 0
DWIDTH 8 0
BBX 5 3 2 9
BITMAP
20
50
88
ENDCHAR
STARTCHAR tildecomb
ENCODING 771
SWIDTH 576 0
DWIDTH 8 0
BBX 7 2 1 9
BITMAP
72
9C
ENDCHAR
STARTCHAR uni0304
ENCODING 772
SWIDTH 576 0
DWIDTH 8 0
BBX 6 1 1 9
BITMAP
FC
ENDCHAR
STARTCHAR uni0305
ENCODING 773
SWIDTH 576 0
DWIDTH 8 0
BBX 8 1 0 10
BITMAP
FF
ENDCHAR
STARTCHAR uni0306
ENCODING 774
SWIDTH 576 0
DWIDTH 8 0
BBX 5 2 2 9
BITMAP
88
70
ENDCHAR
STARTCHAR uni0307
ENCODING 775
SWIDTH 576 0
DWIDTH 8 0
BBX 1 2 4 9
BITMAP
80
80
ENDCHAR
STARTCHAR uni0308
ENCODING 776
SWIDTH 576 0
DWIDTH 8 0
BBX 5 2 2 9
BITMAP
88
88
ENDCHAR
STARTCHAR hookabovecomb
ENCODING 777
SWIDTH 576 0
DWIDTH 8 0
BBX 3 3 3 8
BITMAP
C0
20
40
ENDCHAR
STARTCHAR uni030A
ENCODING 778
SWIDTH 576 0
DWIDTH 8 0
BBX 4 3 3 9
BITMAP
60
90
60
ENDCHAR
STARTCHAR uni030B
ENCODING 779
SWIDTH 576 0
DWIDTH 8 0
BBX 5 2 2 9
BITMAP
48
90
ENDCHAR
STARTCHAR uni030C
ENCODING 780
SWIDTH 576 0
DWIDTH 8 0
BBX 5 3 2 9
BITMAP
88
50
20
ENDCHAR
STARTCHAR uni030D
ENCODING 781
SWIDTH 576 0
DWIDTH 8 0
BBX 1 3 4 9
BITMAP
80
80
80
ENDCHAR
STARTCHAR uni030E
ENCODING 782
SWIDTH 576 0
DWIDTH 8 0
BBX 5 3 2 9
BITMAP
88
88
88
ENDCHAR
STARTCHAR uni030F
ENCODING 783
SWIDTH 576 0
DWIDTH 8 0
BBX 5 2 2 9
BITMAP
90
48
ENDCHAR
STARTCHAR uni0310
ENCODING 784
SWIDTH 576 0
DWIDTH 8 0
BBX 5 3 2 9
BITMAP
20
88
70
ENDCHAR
STARTCHAR uni0311
ENCODING 785
SWIDTH 576 0
DWIDTH 8 0
BBX 5 2 2 9
BITMAP
70
88
ENDCHAR
STARTCHAR uni0312
ENCODING 786
SWIDTH 576 0
DWIDTH 8 0
BBX 2 4 3 8
BITMAP
40
80
C0
C0
ENDCHAR
STARTCHAR uni0313
ENCODING 787
SWIDTH 576 0
DWIDTH 8 0
BBX 2 4 4 8
BITMAP
C0
C0
40
80
ENDCHAR
STARTCHAR uni0314
ENCODING 788
SWIDTH 576 0
DWIDTH 8 0
BBX 2 4 4 8
BITMAP
C0
C0
80
40
ENDCHAR
STARTCHAR uni0315
ENCODING 789
SWIDTH 576 0
DWIDTH 8 0
BBX 2 4 6 8
BITMAP
C0
C0
40
80
ENDCHAR
STARTCHAR uni0316
ENCODING 790
SWIDTH 576 0
DWIDTH 8 0
BBX 2 2 4 -3
BITMAP
80
40
ENDCHAR
STARTCHAR uni0317
ENCODING 791
SWIDTH 576 0
DWIDTH 8 0
BBX 2 2 3 -3
BITMAP
40
80
ENDCHAR
STARTCHAR uni0318
ENCODING 792
SWIDTH 576 0
DWIDTH 8 0
BBX 4 3 3 -3
BITMAP
10
F0
10
ENDCHAR
STARTCHAR uni0319
ENCODING 793
SWIDTH 576 0
DWIDTH 8 0
BBX 4 3 2 -3
BITMAP
80
F0
80
ENDCHAR
STARTCHAR uni031A
ENCODING 794
SWIDTH 576 0
DWIDTH 8 0
BBX 2 1 6 10
BITMAP
C0
ENDCHAR
STARTCHAR uni031B
ENCODING 795
SWIDTH 576 0
DWIDTH 8 0
BBX 1 1 7 7
BITMAP
80
ENDCHAR
STARTCHAR uni031C
ENCODING 796
SWIDTH 576 0
DWIDTH 8 0
BBX 2 3 3 -3
BITMAP
40
80
40
ENDCHAR
STARTCHAR uni031D
ENCODING 797
SWIDTH 576 0
DWIDTH 8 0
BBX 3 3 3 -3
BITMAP
40
40
E0
ENDCHAR
STARTCHAR uni031E
ENCODING 798
SWIDTH 576 0
DWIDTH 8 0
BBX 3 3 3 -3
BITMAP
E0
40
40
ENDCHAR
STARTCHAR uni031F
ENCODING 799
SWIDTH 576 0
DWIDTH 8 0
BBX 3 3 3 -3
BITMAP
40
E0
40
ENDCHAR
STARTCHAR uni0320
ENCODING 800
SWIDTH 576 0
DWIDTH 8 0
BBX 7 1 1 -2
BITMAP
FE
ENDCHAR
STARTCHAR uni0321
ENCODING 801
SWIDTH 576 0
DWIDTH 8 0
BBX 4 3 4 -3
BITMAP
10
90
60
ENDCHAR
STARTCHAR uni0322
ENCODING 802
SWIDTH 576 0
DWIDTH 8 0
BBX 1 2 7 -2
BITMAP
80
80
ENDCHAR
STARTCHAR dotbelowcomb
ENCODING 803
SWIDTH 576 0
DWIDTH 8 0
BBX 1 2 4 -3
BITMAP
80
80
ENDCHAR
STARTCHAR uni0324
ENCODING 804
SWIDTH 576 0
DWIDTH 8 0
BBX 5 2 2 -3
BITMAP
88
88
ENDCHAR
STARTCHAR uni0325
ENCODING 805
SWIDTH 576 0
DWIDTH 8 0
BBX 4 3 3 -3
BITMAP
60
90
60
ENDCHAR
STARTCHAR uni0326
ENCODING 806
SWIDTH 576 0
DWIDTH 8 0
BBX 2 3 4 -3
BITMAP
C0
40
80
ENDCHAR
STARTCHAR uni0327
ENCODING 807
SWIDTH 576 0
DWIDTH 8 0
BBX 4 3 2 -3
BITMAP
30
90
60
ENDCHAR
STARTCHAR uni0328
ENCODING 808
SWIDTH 576 0
DWIDTH 8 0
BBX 2 2 3 -2
BITMAP
80
C0
ENDCHAR
STARTCHAR uni0329
ENCODING 809
SWIDTH 576 0
DWIDTH 8 0
BBX 1 3 4 -3
BITMAP
80
80
80
ENDCHAR
STARTCHAR uni032A
ENCODING 810
SWIDTH 576 0
DWIDTH 8 0
BBX 5 2 2 -3
BITMAP
F8
88
ENDCHAR
STARTCHAR uni032B
ENCODING 811
SWIDTH 576 0
DWIDTH 8 0
BBX 5 3 2 -3
BITMAP
A8
A8
50
ENDCHAR
STARTCHAR uni032C
ENCODING 812
SWIDTH 576 0
DWIDTH 8 0
BBX 5 3 2 -3
BITMAP
88
50
20
ENDCHAR
STARTCHAR uni032D
ENCODING 813
SWIDTH 576 0
DWIDTH 8 0
BBX 5 3 2 -3
BITMAP
20
50
88
ENDCHAR
STARTCHAR uni032E
ENCODING 814
SWIDTH 576 0
DWIDTH 8 0
BBX 5 2 2 -3
BITMAP
88
70
ENDCHAR
STARTCHAR uni032F
ENCODING 815
SWIDTH 576 0
DWIDTH 8 0
BBX 5 2 2 -3
BITMAP
70
88
ENDCHAR
STARTCHAR uni0330
ENCODING 816
SWIDTH 576 0
DWIDTH 8 0
BBX 7 2 1 -3
BITMAP
72
9C
ENDCHAR
STARTCHAR uni0331
ENCODING 817
SWIDTH 576 0
DWIDTH 8 0
BBX 7 1 1 -2
BITMAP
FE
ENDCHAR
STARTCHAR uni0332
ENCODING 818
SWIDTH 576 0
DWIDTH 8 0
BBX 8 1 0 -2
BITMAP
FF
ENDCHAR
STARTCHAR uni0333
ENCODING 819
SWIDTH 576 0
DWIDTH 8 0
BBX 8 3 0 -3
BITMAP
FF
00
FF
ENDCHAR
STARTCHAR uni0334
ENCODING 820
SWIDTH 576 0
DWIDTH 8 0
BBX 5 2 2 3
BITMAP
68
B0
ENDCHAR
STARTCHAR uni0335
ENCODING 821
SWIDTH 576 0
DWIDTH 8 0
BBX 5 1 2 4
BITMAP
F8
ENDCHAR
STARTCHAR uni0336
ENCODING 822
SWIDTH 576 0
DWIDTH 8 0
BBX 7 1 1 4
BITMAP
FE
ENDCHAR
STARTCHAR uni0337
ENCODING 823
SWIDTH 576 0
DWIDTH 8 0
BBX 7 7 1 1
BITMAP
02
04
08
10
20
40
80
ENDCHAR
STARTCHAR uni0338
ENCODING 824
SWIDTH 576 0
DWIDTH 8 0
BBX 7 13 1 -2
BITMAP
02
02
04
04
08
08
10
20
20
40
40
80
80
ENDCHAR
STARTCHAR uni0339
ENCODING 825
SWIDTH 576 0
DWIDTH 8 0
BBX 2 3 4 -3
BITMAP
80
40
80
ENDCHAR
STARTCHAR uni033A
ENCODING 826
SWIDTH 576 0
DWIDTH 8 0
BBX 5 2 2 -3
BITMAP
88
F8
ENDCHAR
STARTCHAR uni033B
ENCODING 827
SWIDTH 576 0
DWIDTH 8 0
BBX 3 3 3 -3
BITMAP
E0
A0
E0
ENDCHAR
STARTCHAR uni033C
ENCODING 828
SWIDTH 576 0
DWIDTH 8 0
BBX 7 2 1 -3
BITMAP
6C
92
ENDCHAR
STARTCHAR uni033D
ENCODING 829
SWIDTH 576 0
DWIDTH 8 0
BBX 5 3 2 9
BITMAP
D8
20
D8
ENDCHAR
STARTCHAR uni033E
ENCODING 830
SWIDTH 576 0
DWIDTH 8 0
BBX 2 4 3 8
BITMAP
40
80
40
80
ENDCHAR
STARTCHAR uni033F
ENCODING 831
SWIDTH 576 0
DWIDTH 8 0
BBX 8 3 0 9
BITMAP
FF
00
FF
ENDCHAR
STARTCHAR uni0340
ENCODING 832
SWIDTH 576 0
DWIDTH 8 0
BBX 2 2 1 10
BITMAP
80
40
ENDCHAR
STARTCHAR uni0341
ENCODING 833
SWIDTH 576 0
DWIDTH 8 0
BBX 2 2 6 10
BITMAP
40
80
ENDCHAR
STARTCHAR uni0342
ENCODING 834
SWIDTH 576 0
DWIDTH 8 0
BBX 5 2 2 9
BITMAP
68
B0
ENDCHAR
STARTCHAR uni0343
ENCODING 835
SWIDTH 576 0
DWIDTH 8 0
BBX 2 3 4 8
BITMAP
C0
40
80
ENDCHAR
STARTCHAR uni0344
ENCODING 836
SWIDTH 576 0
DWIDTH 8 0
BBX 7 3 1 8
BITMAP
08
92
A2
ENDCHAR
STARTCHAR uni0345
ENCODING 837
SWIDTH 576 0
DWIDTH 8 0
BBX 2 2 4 -3
BITMAP
80
C0
ENDCHAR
STARTCHAR uni0346
ENCODING 838
SWIDTH 576 0
DWIDTH 8 0
BBX 5 2 2 10
BITMAP
F8
88
ENDCHAR
STARTCHAR uni0347
ENCODING 839
SWIDTH 576 0
DWIDTH 8 0
BBX 5 3 2 -3
BITMAP
F8
00
F8
ENDCHAR
STARTCHAR uni0348
ENCODING 840
SWIDTH 576 0
DWIDTH 8 0
BBX 3 3 3 -3
BITMAP
A0
A0
A0
ENDCHAR
STARTCHAR uni0349
ENCODING 841
SWIDTH 576 0
DWIDTH 8 0
BBX 3 3 3 -3
BITMAP
E0
20
20
ENDCHAR
STARTCHAR uni034A
ENCODING 842
SWIDTH 576 0
DWIDTH 8 0
BBX 7 4 1 8
BITMAP
08
72
9C
20
ENDCHAR
STARTCHAR uni034B
ENCODING 843
SWIDTH 576 0
DWIDTH 8 0
BBX 8 4 0 8
BITMAP
04
71
8E
20
ENDCHAR
STARTCHAR uni034C
ENCODING 844
SWIDTH 576 0
DWIDTH 8 0
BBX 7 5 1 7
BITMAP
72
9C
00
72
9C
ENDCHAR
STARTCHAR uni034D
ENCODING 845
SWIDTH 576 0
DWIDTH 8 0
BBX 7 3 1 -3
BITMAP
44
FE
44
ENDCHAR
STARTCHAR uni034E
ENCODING 846
SWIDTH 576 0
DWIDTH 8 0
BBX 3 4 3 -3
BITMAP
40
E0
40
40
ENDCHAR
STARTCHAR uni034F
ENCODING 847
SWIDTH 576 0
DWIDTH 8 0
BBX 1 1 7 -4
BITMAP
00
ENDCHAR
STARTCHAR uni0360
ENCODING 864
SWIDTH 576 0
DWIDTH 8 0
BBX 6 2 2 10
BITMAP
70
9C
ENDCHAR
STARTCHAR uni0361
ENCODING 865
SWIDTH 576 0
DWIDTH 8 0
BBX 6 2 2 10
BITMAP
7C
80
ENDCHAR
STARTCHAR uni0362
ENCODING 866
SWIDTH 576 0
DWIDTH 8 0
BBX 5 3 3 -3
BITMAP
08
F8
08
ENDCHAR
STARTCHAR uni0363
ENCODING 867
SWIDTH 576 0
DWIDTH 8 0
BBX 4 5 2 7
BITMAP
60
10
70
90
70
ENDCHAR
STARTCHAR uni0364
ENCODING 868
SWIDTH 576 0
DWIDTH 8 0
BBX 4 5 2 7
BITMAP
60
90
F0
80
60
ENDCHAR
STARTCHAR uni0365
ENCODING 869
SWIDTH 576 0
DWIDTH 8 0
BBX 1 4 4 8
BITMAP
80
00
80
80
ENDCHAR
STARTCHAR uni0366
ENCODING 870
SWIDTH 576 0
DWIDTH 8 0
BBX 4 4 2 8
BITMAP
60
90
90
60
ENDCHAR
STARTCHAR uni0367
ENCODING 871
SWIDTH 576 0
DWIDTH 8 0
BBX 4 4 2 8
BITMAP
90
90
90
70
ENDCHAR
STARTCHAR uni0368
ENCODING 872
SWIDTH 576 0
DWIDTH 8 0
BBX 4 4 2 8
BITMAP
70
80
80
70
ENDCHAR
STARTCHAR uni0369
ENCODING 873
SWIDTH 576 0
DWIDTH 8 0
BBX 4 4 2 8
BITMAP
10
70
90
70
ENDCHAR
STARTCHAR uni036A
ENCODING 874
SWIDTH 576 0
DWIDTH 8 0
BBX 4 4 2 8
BITMAP
80
E0
90
90
ENDCHAR
STARTCHAR uni036B
ENCODING 875
SWIDTH 576 0
DWIDTH 8 0
BBX 5 4 2 8
BITMAP
D0
A8
A8
A8
ENDCHAR
STARTCHAR uni036C
ENCODING 876
SWIDTH 576 0
DWIDTH 8 0
BBX 3 4 3 8
BITMAP
A0
C0
80
80
ENDCHAR
STARTCHAR uni036D
ENCODING 877
SWIDTH 576 0
DWIDTH 8 0
BBX 4 4 2 8
BITMAP
40
E0
40
30
ENDCHAR
STARTCHAR uni036E
ENCODING 878
SWIDTH 576 0
DWIDTH 8 0
BBX 3 4 3 8
BITMAP
A0
A0
40
40
ENDCHAR
STARTCHAR uni036F
ENCODING 879
SWIDTH 576 0
DWIDTH 8 0
BBX 3 4 3 8
BITMAP
A0
40
40
A0
ENDCHAR
STARTCHAR uni0374
ENCODING 884
SWIDTH 576 0
DWIDTH 8 0
BBX 3 3 3 8
BITMAP
20
40
80
ENDCHAR
STARTCHAR uni0375
ENCODING 885
SWIDTH 576 0
DWIDTH 8 0
BBX 3 3 3 -3
BITMAP
20
40
80
ENDCHAR
STARTCHAR uni037A
ENCODING 890
SWIDTH 576 0
DWIDTH 8 0
BBX 2 2 4 -3
BITMAP
80
C0
ENDCHAR
STARTCHAR uni037E
ENCODING 894
SWIDTH 576 0
DWIDTH 8 0
BBX 2 10 4 -3
BITMAP
C0
C0
00
00
00
C0
C0
40
40
80
ENDCHAR
STARTCHAR tonos
ENCODING 900
SWIDTH 576 0
DWIDTH 8 0
BBX 3 3 3 8
BITMAP
20
40
80
ENDCHAR
STARTCHAR dieresistonos
ENCODING 901
SWIDTH 576 0
DWIDTH 8 0
BBX 7 3 1 8
BITMAP
08
92
A2
ENDCHAR
STARTCHAR Alphatonos
ENCODING 902
SWIDTH 576 0
DWIDTH 8 0
BBX 7 12 0 0
BITMAP
40
80
3E
66
C6
C6
C6
FE
C6
C6
C6
C6
ENDCHAR
STARTCHAR anoteleia
ENCODING 903
SWIDTH 576 0
DWIDTH 8 0
BBX 2 2 3 5
BITMAP
C0
C0
ENDCHAR
STARTCHAR Epsilontonos
ENCODING 904
SWIDTH 576 0
DWIDTH 8 0
BBX 7 12 0 0
BITMAP
40
80
7E
C0
C0
C0
F8
C0
C0
C0
C0
FE
ENDCHAR
STARTCHAR Etatonos
ENCODING 905
SWIDTH 576 0
DWIDTH 8 0
BBX 7 12 0 0
BITMAP
40
80
46
C6
C6
C6
FE
C6
C6
C6
C6
C6
ENDCHAR
STARTCHAR Iotatonos
ENCODING 906
SWIDTH 576 0
DWIDTH 5 0
BBX 3 12 0 0
BITMAP
40
80
60
60
60
60
60
60
60
60
60
60
ENDCHAR
STARTCHAR Omicrontonos
ENCODING 908
SWIDTH 576 0
DWIDTH 8 0
BBX 7 12 0 0
BITMAP
40
80
7C
C6
C6
C6
C6
C6
C6
C6
C6
7C
ENDCHAR
STARTCHAR Upsilontonos
ENCODING 910
SWIDTH 576 0
DWIDTH 8 0
BBX 7 12 0 0
BITMAP
40
80
46
C6
C6
66
3E
0E
06
06
06
FC
ENDCHAR
STARTCHAR Omegatonos
ENCODING 911
SWIDTH 576 0
DWIDTH 8 0
BBX 7 12 0 0
BITMAP
40
80
7C
C6
C6
C6
C6
C6
C6
C6
6C
EE
ENDCHAR
STARTCHAR iotadieresistonos
ENCODING 912
SWIDTH 576 0
DWIDTH 8 0
BBX 6 12 1 0
BITMAP
18
30
00
CC
00
30
30
30
30
30
30
30
ENDCHAR
STARTCHAR Alpha
ENCODING 913
SWIDTH 576 0
DWIDTH 8 0
BBX 7 10 0 0
BITMAP
3E
66
C6
C6
C6
FE
C6
C6
C6
C6
ENDCHAR
STARTCHAR Beta
ENCODING 914
SWIDTH 576 0
DWIDTH 8 0
BBX 7 10 0 0
BITMAP
FC
C6
C6
C6
FC
C6
C6
C6
C6
FC
ENDCHAR
STARTCHAR Gamma
ENCODING 915
SWIDTH 576 0
DWIDTH 8 0
BBX 7 10 0 0
BITMAP
FE
C0
C0
C0
C0
C0
C0
C0
C0
C0
ENDCHAR
STARTCHAR uni0394
ENCODING 916
SWIDTH 576 0
DWIDTH 8 0
BBX 7 10 0 0
BITMAP
10
38
6C
C6
C6
C6
C6
C6
C6
FE
ENDCHAR
STARTCHAR Epsilon
ENCODING 917
SWIDTH 576 0
DWIDTH 8 0
BBX 7 10 0 0
BITMAP
FE
C0
C0
C0
F8
C0
C0
C0
C0
FE
ENDCHAR
STARTCHAR Zeta
ENCODING 918
SWIDTH 576 0
DWIDTH 8 0
BBX 7 10 0 0
BITMAP
FE
06
06
0C
18
30
60
C0
C0
FE
ENDCHAR
STARTCHAR Eta
ENCODING 919
SWIDTH 576 0
DWIDTH 8 0
BBX 7 10 0 0
BITMAP
C6
C6
C6
C6
FE
C6
C6
C6
C6
C6
ENDCHAR
STARTCHAR Theta
ENCODING 920
SWIDTH 576 0
DWIDTH 8 0
BBX 7 10 0 0
BITMAP
7C
C6
C6
C6
D6
D6
C6
C6
C6
7C
ENDCHAR
STARTCHAR Iota
ENCODING 921
SWIDTH 576 0
DWIDTH 5 0
BBX 2 10 1 0
BITMAP
C0
C0
C0
C0
C0
C0
C0
C0
C0
C0
ENDCHAR
STARTCHAR Kappa
ENCODING 922
SWIDTH 576 0
DWIDTH 8 0
BBX 7 10 0 0
BITMAP
C6
C6
C6
CC
F8
CC
C6
C6
C6
C6
ENDCHAR
STARTCHAR Lambda
ENCODING 923
SWIDTH 576 0
DWIDTH 8 0
BBX 7 10 0 0
BITMAP
10
38
6C
C6
C6
C6
C6
C6
C6
C6
ENDCHAR
STARTCHAR Mu
ENCODING 924
SWIDTH 576 0
DWIDTH 8 0
BBX 7 10 0 0
BITMAP
C6
EE
FE
FE
D6
C6
C6
C6
C6
C6
ENDCHAR
STARTCHAR Nu
ENCODING 925
SWIDTH 576 0
DWIDTH 8 0
BBX 7 10 0 0
BITMAP
F8
CC
C6
C6
C6
C6
C6
C6
C6
C6
ENDCHAR
STARTCHAR Xi
ENCODING 926
SWIDTH 576 0
DWIDTH 8 0
BBX 6 10 1 0
BITMAP
FC
30
30
30
FC
30
30
30
30
FC
ENDCHAR
STARTCHAR Omicron
ENCODING 927
SWIDTH 576 0
DWIDTH 8 0
BBX 7 10 0 0
BITMAP
7C
C6
C6
C6
C6
C6
C6
C6
C6
7C
ENDCHAR
STARTCHAR Pi
ENCODING 928
SWIDTH 576 0
DWIDTH 8 0
BBX 7 10 0 0
BITMAP
FE
C6
C6
C6
C6
C6
C6
C6
C6
C6
ENDCHAR
STARTCHAR Rho
ENCODING 929
SWIDTH 576 0
DWIDTH 8 0
BBX 7 10 0 0
BITMAP
FC
C6
C6
CC
F8
C0
C0
C0
C0
C0
ENDCHAR
STARTCHAR Sigma
ENCODING 931
SWIDTH 576 0
DWIDTH 8 0
BBX 7 10 0 0
BITMAP
FE
C0
C0
60
30
30
60
C0
C0
FE
ENDCHAR
STARTCHAR Tau
ENCODING 932
SWIDTH 576 0
DWIDTH 8 0
BBX 6 10 1 0
BITMAP
FC
30
30
30
30
30
30
30
30
30
ENDCHAR
STARTCHAR Upsilon
ENCODING 933
SWIDTH 576 0
DWIDTH 8 0
BBX 7 10 0 0
BITMAP
C6
C6
C6
66
3E
0E
06
06
06
FC
ENDCHAR
STARTCHAR Phi
ENCODING 934
SWIDTH 576 0
DWIDTH 9 0
BBX 8 12 0 -1
BITMAP
18
7E
DB
DB
DB
DB
DB
DB
DB
DB
7E
18
ENDCHAR
STARTCHAR Chi
ENCODING 935
SWIDTH 576 0
DWIDTH 8 0
BBX 7 10 0 0
BITMAP
C6
C6
C6
6C
38
6C
C6
C6
C6
C6
ENDCHAR
STARTCHAR Psi
ENCODING 936
SWIDTH 576 0
DWIDTH 9 0
BBX 8 11 0 -1
BITMAP
DB
DB
DB
DB
DB
DB
DB
DB
7E
18
18
ENDCHAR
STARTCHAR uni03A9
ENCODING 937
SWIDTH 576 0
DWIDTH 8 0
BBX 7 10 0 0
BITMAP
7C
C6
C6
C6
C6
C6
C6
C6
6C
EE
ENDCHAR
STARTCHAR Iotadieresis
ENCODING 938
SWIDTH 576 0
DWIDTH 5 0
BBX 5 13 0 0
BITMAP
D8
D8
00
60
60
60
60
60
60
60
60
60
60
ENDCHAR
STARTCHAR Upsilondieresis
ENCODING 939
SWIDTH 576 0
DWIDTH 8 0
BBX 7 12 0 0
BITMAP
C6
00
C6
C6
C6
66
3E
0E
06
06
06
FC
ENDCHAR
STARTCHAR alphatonos
ENCODING 940
SWIDTH 576 0
DWIDTH 8 0
BBX 7 11 0 0
BITMAP
0C
18
30
00
76
CE
C6
C6
C6
CE
76
ENDCHAR
STARTCHAR epsilontonos
ENCODING 941
SWIDTH 576 0
DWIDTH 8 0
BBX 7 11 0 0
BITMAP
0C
18
30
00
7E
C0
C0
78
C0
C0
7E
ENDCHAR
STARTCHAR etatonos
ENCODING 942
SWIDTH 576 0
DWIDTH 8 0
BBX 7 14 0 -3
BITMAP
0C
18
30
00
FC
C6
C6
C6
C6
C6
C6
06
06
06
ENDCHAR
STARTCHAR iotatonos
ENCODING 943
SWIDTH 576 0
DWIDTH 8 0
BBX 4 11 3 0
BITMAP
30
60
C0
00
C0
C0
C0
C0
C0
C0
C0
ENDCHAR
STARTCHAR upsilondieresistonos
ENCODING 944
SWIDTH 576 0
DWIDTH 8 0
BBX 7 12 0 0
BITMAP
18
30
00
C6
00
C6
C6
C6
C6
C6
C6
7C
ENDCHAR
STARTCHAR alpha
ENCODING 945
SWIDTH 600 0
DWIDTH 9 0
BBX 8 7 0 0
BITMAP
7B
CE
C6
C6
C6
CE
7B
ENDCHAR
STARTCHAR beta
ENCODING 946
SWIDTH 576 0
DWIDTH 8 0
BBX 7 12 0 -2
BITMAP
78
CC
CC
CC
DC
C6
C6
C6
C6
DC
C0
C0
ENDCHAR
STARTCHAR gamma
ENCODING 947
SWIDTH 576 0
DWIDTH 8 0
BBX 7 9 0 -2
BITMAP
C6
C6
C6
C6
6C
38
30
60
C0
ENDCHAR
STARTCHAR delta
ENCODING 948
SWIDTH 576 0
DWIDTH 8 0
BBX 7 10 0 0
BITMAP
7C
C0
60
7C
C6
C6
C6
C6
C6
7C
ENDCHAR
STARTCHAR epsilon
ENCODING 949
SWIDTH 576 0
DWIDTH 8 0
BBX 7 7 0 0
BITMAP
7E
C0
C0
78
C0
C0
7E
ENDCHAR
STARTCHAR zeta
ENCODING 950
SWIDTH 576 0
DWIDTH 8 0
BBX 7 13 0 -3
BITMAP
FE
06
0C
18
30
60
C0
C0
C0
7C
06
06
06
ENDCHAR
STARTCHAR eta
ENCODING 951
SWIDTH 576 0
DWIDTH 8 0
BBX 7 10 0 -3
BITMAP
FC
C6
C6
C6
C6
C6
C6
06
06
06
ENDCHAR
STARTCHAR theta
ENCODING 952
SWIDTH 576 0
DWIDTH 8 0
BBX 7 10 0 0
BITMAP
7C
C6
C6
C6
FE
C6
C6
C6
C6
7C
ENDCHAR
STARTCHAR iota
ENCODING 953
SWIDTH 576 0
DWIDTH 5 0
BBX 3 7 1 0
BITMAP
C0
C0
C0
C0
C0
C0
60
ENDCHAR
STARTCHAR kappa
ENCODING 954
SWIDTH 576 0
DWIDTH 8 0
BBX 7 7 0 0
BITMAP
C6
CC
F8
CC
C6
C6
C6
ENDCHAR
STARTCHAR lambda
ENCODING 955
SWIDTH 600 0
DWIDTH 8 0
BBX 7 10 0 0
BITMAP
C0
60
30
38
6C
C6
C6
C6
C6
C6
ENDCHAR
STARTCHAR uni03BC
ENCODING 956
SWIDTH 576 0
DWIDTH 8 0
BBX 8 10 0 -3
BITMAP
C6
C6
C6
C6
C6
C6
FF
C0
C0
C0
ENDCHAR
STARTCHAR nu
ENCODING 957
SWIDTH 576 0
DWIDTH 8 0
BBX 7 7 0 0
BITMAP
C6
C6
C6
C6
C6
6C
38
ENDCHAR
STARTCHAR xi
ENCODING 958
SWIDTH 576 0
DWIDTH 8 0
BBX 7 13 0 -3
BITMAP
FE
60
C0
C0
78
C0
C0
C0
C0
7C
06
06
06
ENDCHAR
STARTCHAR omicron
ENCODING 959
SWIDTH 576 0
DWIDTH 8 0
BBX 7 7 0 0
BITMAP
7C
C6
C6
C6
C6
C6
7C
ENDCHAR
STARTCHAR pi
ENCODING 960
SWIDTH 1000 0
DWIDTH 8 0
BBX 8 7 0 0
BITMAP
FF
C6
C6
C6
C6
C6
C6
ENDCHAR
STARTCHAR rho
ENCODING 961
SWIDTH 576 0
DWIDTH 8 0
BBX 7 10 0 -3
BITMAP
7C
C6
C6
C6
C6
C6
FC
C0
C0
C0
ENDCHAR
STARTCHAR sigma1
ENCODING 962
SWIDTH 576 0
DWIDTH 8 0
BBX 7 10 0 -3
BITMAP
7C
C6
C0
C0
C0
C0
7C
06
06
06
ENDCHAR
STARTCHAR sigma
ENCODING 963
SWIDTH 576 0
DWIDTH 8 0
BBX 8 7 0 0
BITMAP
7F
CC
C6
C6
C6
C6
7C
ENDCHAR
STARTCHAR tau
ENCODING 964
SWIDTH 576 0
DWIDTH 7 0
BBX 6 7 0 0
BITMAP
FC
30
30
30
30
30
1C
ENDCHAR
STARTCHAR upsilon
ENCODING 965
SWIDTH 576 0
DWIDTH 8 0
BBX 7 7 0 0
BITMAP
C6
C6
C6
C6
C6
C6
7C
ENDCHAR
STARTCHAR phi
ENCODING 966
SWIDTH 576 0
DWIDTH 9 0
BBX 8 10 0 -3
BITMAP
DB
DB
DB
DB
DB
DB
7E
18
18
18
ENDCHAR
STARTCHAR chi
ENCODING 967
SWIDTH 576 0
DWIDTH 8 0
BBX 7 10 0 -3
BITMAP
C6
C6
C6
6C
38
6C
C6
C6
C6
C6
ENDCHAR
STARTCHAR psi
ENCODING 968
SWIDTH 576 0
DWIDTH 9 0
BBX 8 10 0 -3
BITMAP
CE
DB
DB
DB
DB
DB
7E
18
18
18
ENDCHAR
STARTCHAR omega
ENCODING 969
SWIDTH 576 0
DWIDTH 9 0
BBX 8 7 0 0
BITMAP
C3
C3
C3
C3
DB
DB
7E
ENDCHAR
STARTCHAR iotadieresis
ENCODING 970
SWIDTH 576 0
DWIDTH 5 0
BBX 5 9 0 0
BITMAP
D8
00
60
60
60
60
60
60
30
ENDCHAR
STARTCHAR upsilondieresis
ENCODING 971
SWIDTH 576 0
DWIDTH 8 0
BBX 7 9 0 0
BITMAP
C6
00
CC
C6
C6
C6
C6
C6
7C
ENDCHAR
STARTCHAR omicrontonos
ENCODING 972
SWIDTH 576 0
DWIDTH 8 0
BBX 7 10 0 0
BITMAP
18
30
00
7C
C6
C6
C6
C6
C6
7C
ENDCHAR
STARTCHAR upsilontonos
ENCODING 973
SWIDTH 576 0
DWIDTH 8 0
BBX 7 10 0 0
BITMAP
18
30
00
CC
C6
C6
C6
C6
C6
7C
ENDCHAR
STARTCHAR omegatonos
ENCODING 974
SWIDTH 576 0
DWIDTH 9 0
BBX 8 10 0 0
BITMAP
0C
18
00
C3
C3
C3
C3
DB
DB
7E
ENDCHAR
STARTCHAR uni03D0
ENCODING 976
SWIDTH 576 0
DWIDTH 8 0
BBX 7 10 0 1
BITMAP
38
4C
CC
D8
FC
C6
C6
C6
C6
7C
ENDCHAR
STARTCHAR theta1
ENCODING 977
SWIDTH 576 0
DWIDTH 8 0
BBX 7 10 0 1
BITMAP
78
CC
CC
7E
0C
CC
CC
CC
CC
78
ENDCHAR
STARTCHAR Upsilon1
ENCODING 978
SWIDTH 576 0
DWIDTH 8 0
BBX 8 10 0 0
BITMAP
C3
66
66
3C
3C
18
18
18
18
18
ENDCHAR
STARTCHAR uni03D3
ENCODING 979
SWIDTH 576 0
DWIDTH 8 0
BBX 8 12 0 0
BITMAP
40
80
C3
66
3C
18
18
18
18
18
18
18
ENDCHAR
STARTCHAR uni03D4
ENCODING 980
SWIDTH 576 0
DWIDTH 8 0
BBX 8 12 0 0
BITMAP
66
00
C3
66
3C
18
18
18
18
18
18
18
ENDCHAR
STARTCHAR phi1
ENCODING 981
SWIDTH 576 0
DWIDTH 9 0
BBX 8 13 0 -3
BITMAP
18
18
18
7E
DB
DB
DB
DB
DB
7E
18
18
18
ENDCHAR
STARTCHAR omega1
ENCODING 982
SWIDTH 576 0
DWIDTH 9 0
BBX 8 7 0 0
BITMAP
FF
42
C3
C3
DB
DB
7E
ENDCHAR
STARTCHAR uni03D7
ENCODING 983
SWIDTH 576 0
DWIDTH 8 0
BBX 8 12 0 -2
BITMAP
C6
6E
6E
6C
7C
6C
EC
EC
CE
03
03
06
ENDCHAR
STARTCHAR uni03D8
ENCODING 984
SWIDTH 576 0
DWIDTH 8 0
BBX 7 12 0 -2
BITMAP
7C
C6
C6
C6
C6
C6
C6
C6
C6
7C
38
38
ENDCHAR
STARTCHAR uni03D9
ENCODING 985
SWIDTH 576 0
DWIDTH 8 0
BBX 7 9 0 -2
BITMAP
7C
C6
C6
C6
C6
C6
7C
38
38
ENDCHAR
STARTCHAR uni03DA
ENCODING 986
SWIDTH 576 0
DWIDTH 8 0
BBX 7 12 0 -2
BITMAP
7E
C0
C0
C0
C0
C0
C0
C0
C0
7C
06
06
ENDCHAR
STARTCHAR uni03DB
ENCODING 987
SWIDTH 576 0
DWIDTH 8 0
BBX 7 10 0 -3
BITMAP
7E
C0
C0
C0
C0
C0
7C
06
06
06
ENDCHAR
STARTCHAR uni03DC
ENCODING 988
SWIDTH 576 0
DWIDTH 8 0
BBX 7 10 0 0
BITMAP
FE
C0
C0
C0
F8
C0
C0
C0
C0
C0
ENDCHAR
STARTCHAR uni03DD
ENCODING 989
SWIDTH 576 0
DWIDTH 7 0
BBX 6 11 0 -1
BITMAP
1C
30
30
30
FC
30
30
30
30
30
E0
ENDCHAR
STARTCHAR uni03DE
ENCODING 990
SWIDTH 576 0
DWIDTH 8 0
BBX 8 10 0 0
BITMAP
80
40
42
46
4A
52
62
42
02
01
ENDCHAR
STARTCHAR uni03DF
ENCODING 991
SWIDTH 576 0
DWIDTH 8 0
BBX 6 13 1 -3
BITMAP
20
20
40
40
40
80
FC
04
08
08
08
10
10
ENDCHAR
STARTCHAR uni03E0
ENCODING 992
SWIDTH 576 0
DWIDTH 8 0
BBX 7 10 1 0
BITMAP
10
28
28
28
44
4C
4C
92
92
92
ENDCHAR
STARTCHAR uni03E1
ENCODING 993
SWIDTH 576 0
DWIDTH 8 0
BBX 7 13 1 -3
BITMAP
C0
30
08
08
14
24
4A
12
22
02
02
02
02
ENDCHAR
STARTCHAR uni03E2
ENCODING 994
SWIDTH 576 0
DWIDTH 8 0
BBX 7 10 1 0
BITMAP
92
92
92
92
92
92
92
6E
02
7C
ENDCHAR
STARTCHAR uni03E3
ENCODING 995
SWIDTH 576 0
DWIDTH 8 0
BBX 7 9 1 -2
BITMAP
92
92
92
92
92
92
6E
02
7C
ENDCHAR
STARTCHAR uni03E4
ENCODING 996
SWIDTH 576 0
DWIDTH 8 0
BBX 7 10 1 0
BITMAP
62
92
82
82
82
82
7E
02
02
02
ENDCHAR
STARTCHAR uni03E5
ENCODING 997
SWIDTH 576 0
DWIDTH 8 0
BBX 4 10 2 0
BITMAP
50
90
90
90
90
70
10
10
10
10
ENDCHAR
STARTCHAR uni03E6
ENCODING 998
SWIDTH 576 0
DWIDTH 8 0
BBX 7 12 1 -2
BITMAP
E0
40
40
40
78
44
42
42
42
E2
04
38
ENDCHAR
STARTCHAR uni03E7
ENCODING 999
SWIDTH 576 0
DWIDTH 8 0
BBX 7 8 1 0
BITMAP
20
20
7C
A2
42
02
82
7C
ENDCHAR
STARTCHAR uni03E8
ENCODING 1000
SWIDTH 576 0
DWIDTH 8 0
BBX 7 10 1 0
BITMAP
7C
82
82
42
04
38
40
82
82
7C
ENDCHAR
STARTCHAR uni03E9
ENCODING 1001
SWIDTH 576 0
DWIDTH 8 0
BBX 6 10 1 0
BITMAP
78
84
84
84
48
30
60
80
80
7C
ENDCHAR
STARTCHAR uni03EA
ENCODING 1002
SWIDTH 576 0
DWIDTH 8 0
BBX 7 10 1 0
BITMAP
C6
28
10
10
28
28
44
44
82
FE
ENDCHAR
STARTCHAR uni03EB
ENCODING 1003
SWIDTH 576 0
DWIDTH 8 0
BBX 7 8 1 0
BITMAP
C6
28
10
10
28
28
44
7C
ENDCHAR
STARTCHAR uni03EC
ENCODING 1004
SWIDTH 576 0
DWIDTH 8 0
BBX 7 10 0 0
BITMAP
7E
C0
FC
C6
C6
C6
C6
C6
C6
7C
ENDCHAR
STARTCHAR uni03ED
ENCODING 1005
SWIDTH 576 0
DWIDTH 8 0
BBX 7 10 0 0
BITMAP
78
C0
C0
FC
C6
C6
C6
C6
C6
7C
ENDCHAR
STARTCHAR uni03EE
ENCODING 1006
SWIDTH 576 0
DWIDTH 8 0
BBX 7 10 1 0
BITMAP
38
10
FE
92
10
10
10
10
10
10
ENDCHAR
STARTCHAR uni03EF
ENCODING 1007
SWIDTH 576 0
DWIDTH 8 0
BBX 7 8 1 0
BITMAP
10
12
FE
90
10
10
10
10
ENDCHAR
STARTCHAR uni03F0
ENCODING 1008
SWIDTH 576 0
DWIDTH 8 0
BBX 8 10 0 -3
BITMAP
CE
6E
6C
7C
EC
EC
CE
03
03
06
ENDCHAR
STARTCHAR uni03F1
ENCODING 1009
SWIDTH 576 0
DWIDTH 8 0
BBX 7 10 0 -3
BITMAP
7C
C6
C6
C6
C6
C6
FC
C0
C0
78
ENDCHAR
STARTCHAR uni03F2
ENCODING 1010
SWIDTH 576 0
DWIDTH 8 0
BBX 7 7 0 0
BITMAP
7E
C0
C0
C0
C0
C0
7E
ENDCHAR
STARTCHAR uni03F3
ENCODING 1011
SWIDTH 576 0
DWIDTH 6 0
BBX 6 13 -1 -3
BITMAP
0C
0C
00
0C
0C
0C
0C
0C
0C
0C
0C
18
F0
ENDCHAR
STARTCHAR uni03F4
ENCODING 1012
SWIDTH 576 0
DWIDTH 8 0
BBX 7 10 0 0
BITMAP
7C
C6
C6
C6
FE
C6
C6
C6
C6
7C
ENDCHAR
STARTCHAR uni03F5
ENCODING 1013
SWIDTH 576 0
DWIDTH 8 0
BBX 7 7 0 0
BITMAP
7E
C0
C0
F8
C0
C0
7E
ENDCHAR
STARTCHAR uni03F6
ENCODING 1014
SWIDTH 576 0
DWIDTH 8 0
BBX 7 7 0 0
BITMAP
FC
06
06
3E
06
06
FC
ENDCHAR
STARTCHAR uni0400
ENCODING 1024
SWIDTH 576 0
DWIDTH 8 0
BBX 7 13 0 0
BITMAP
70
1C
00
FE
C0
C0
C0
F8
C0
C0
C0
C0
FE
ENDCHAR
STARTCHAR uni0401
ENCODING 1025
SWIDTH 576 0
DWIDTH 8 0
BBX 7 13 0 0
BITMAP
6C
6C
00
FE
C0
C0
C0
F8
C0
C0
C0
C0
FE
ENDCHAR
STARTCHAR uni0402
ENCODING 1026
SWIDTH 576 0
DWIDTH 8 0
BBX 7 13 0 -2
BITMAP
FC
60
60
60
7C
66
66
66
66
66
66
06
0C
ENDCHAR
STARTCHAR uni0403
ENCODING 1027
SWIDTH 576 0
DWIDTH 8 0
BBX 7 13 0 0
BITMAP
18
30
00
FE
C0
C0
C0
C0
C0
C0
C0
C0
C0
ENDCHAR
STARTCHAR uni0404
ENCODING 1028
SWIDTH 576 0
DWIDTH 8 0
BBX 7 10 0 0
BITMAP
7C
C6
C0
C0
F8
C0
C0
C0
C6
7C
ENDCHAR
STARTCHAR uni0405
ENCODING 1029
SWIDTH 576 0
DWIDTH 8 0
BBX 7 10 0 0
BITMAP
7E
C0
C0
60
38
0C
06
06
06
FC
ENDCHAR
STARTCHAR uni0406
ENCODING 1030
SWIDTH 576 0
DWIDTH 5 0
BBX 2 10 1 0
BITMAP
C0
C0
C0
C0
C0
C0
C0
C0
C0
C0
ENDCHAR
STARTCHAR uni0407
ENCODING 1031
SWIDTH 576 0
DWIDTH 5 0
BBX 5 13 0 0
BITMAP
D8
D8
00
60
60
60
60
60
60
60
60
60
60
ENDCHAR
STARTCHAR uni0408
ENCODING 1032
SWIDTH 576 0
DWIDTH 8 0
BBX 7 10 0 0
BITMAP
06
06
06
06
06
06
06
06
0C
F8
ENDCHAR
STARTCHAR uni0409
ENCODING 1033
SWIDTH 866 0
DWIDTH 13 0
BBX 12 10 0 0
BITMAP
3F00
3300
3300
3300
33E0
3330
3330
3330
7330
E3E0
ENDCHAR
STARTCHAR uni040A
ENCODING 1034
SWIDTH 733 0
DWIDTH 11 0
BBX 10 10 0 0
BITMAP
CC00
CC00
CC00
CC00
FF80
CCC0
CCC0
CCC0
CCC0
CF80
ENDCHAR
STARTCHAR uni040B
ENCODING 1035
SWIDTH 576 0
DWIDTH 8 0
BBX 7 11 0 0
BITMAP
FC
60
60
60
7C
66
66
66
66
66
66
ENDCHAR
STARTCHAR uni040C
ENCODING 1036
SWIDTH 576 0
DWIDTH 8 0
BBX 7 13 0 0
BITMAP
18
30
00
C6
C6
C6
CC
F8
CC
C6
C6
C6
C6
ENDCHAR
STARTCHAR uni040D
ENCODING 1037
SWIDTH 576 0
DWIDTH 8 0
BBX 7 13 0 0
BITMAP
30
18
00
C6
CE
CE
DE
D6
F6
E6
E6
C6
C6
ENDCHAR
STARTCHAR uni040E
ENCODING 1038
SWIDTH 576 0
DWIDTH 8 0
BBX 7 13 0 0
BITMAP
6C
38
00
C6
C6
C6
66
3E
0E
06
06
0C
F8
ENDCHAR
STARTCHAR uni040F
ENCODING 1039
SWIDTH 533 0
DWIDTH 8 0
BBX 7 11 0 -1
BITMAP
C6
C6
C6
C6
C6
C6
C6
C6
C6
FE
38
ENDCHAR
STARTCHAR uni0410
ENCODING 1040
SWIDTH 576 0
DWIDTH 8 0
BBX 7 10 0 0
BITMAP
3E
66
C6
C6
C6
FE
C6
C6
C6
C6
ENDCHAR
STARTCHAR uni0411
ENCODING 1041
SWIDTH 576 0
DWIDTH 8 0
BBX 7 10 0 0
BITMAP
FC
C0
C0
C0
FC
C6
C6
C6
C6
FC
ENDCHAR
STARTCHAR uni0412
ENCODING 1042
SWIDTH 576 0
DWIDTH 8 0
BBX 7 10 0 0
BITMAP
FC
C6
C6
C6
FC
C6
C6
C6
C6
FC
ENDCHAR
STARTCHAR uni0413
ENCODING 1043
SWIDTH 576 0
DWIDTH 8 0
BBX 7 10 0 0
BITMAP
FE
C0
C0
C0
C0
C0
C0
C0
C0
C0
ENDCHAR
STARTCHAR uni0414
ENCODING 1044
SWIDTH 666 0
DWIDTH 8 0
BBX 7 11 0 -1
BITMAP
7E
66
66
66
66
66
66
66
E6
FE
C6
ENDCHAR
STARTCHAR uni0415
ENCODING 1045
SWIDTH 576 0
DWIDTH 8 0
BBX 7 10 0 0
BITMAP
FE
C0
C0
C0
F8
C0
C0
C0
C0
FE
ENDCHAR
STARTCHAR uni0416
ENCODING 1046
SWIDTH 733 0
DWIDTH 11 0
BBX 10 10 0 0
BITMAP
CCC0
CCC0
CCC0
6D80
3F00
6D80
CCC0
CCC0
CCC0
CCC0
ENDCHAR
STARTCHAR uni0417
ENCODING 1047
SWIDTH 576 0
DWIDTH 8 0
BBX 7 10 0 0
BITMAP
7C
C6
06
06
1C
06
06
06
C6
7C
ENDCHAR
STARTCHAR uni0418
ENCODING 1048
SWIDTH 576 0
DWIDTH 8 0
BBX 7 10 0 0
BITMAP
C6
CE
CE
DE
D6
F6
E6
E6
C6
C6
ENDCHAR
STARTCHAR uni0419
ENCODING 1049
SWIDTH 576 0
DWIDTH 8 0
BBX 7 13 0 0
BITMAP
6C
38
00
C6
CE
CE
DE
D6
F6
E6
E6
C6
C6
ENDCHAR
STARTCHAR uni041A
ENCODING 1050
SWIDTH 576 0
DWIDTH 8 0
BBX 7 10 0 0
BITMAP
C6
C6
C6
CC
F8
CC
C6
C6
C6
C6
ENDCHAR
STARTCHAR uni041B
ENCODING 1051
SWIDTH 666 0
DWIDTH 10 0
BBX 9 10 0 0
BITMAP
3F80
3180
3180
3180
3180
3180
3180
3180
7180
E180
ENDCHAR
STARTCHAR uni041C
ENCODING 1052
SWIDTH 576 0
DWIDTH 8 0
BBX 7 10 0 0
BITMAP
C6
EE
FE
FE
D6
C6
C6
C6
C6
C6
ENDCHAR
STARTCHAR uni041D
ENCODING 1053
SWIDTH 576 0
DWIDTH 8 0
BBX 7 10 0 0
BITMAP
C6
C6
C6
C6
FE
C6
C6
C6
C6
C6
ENDCHAR
STARTCHAR uni041E
ENCODING 1054
SWIDTH 576 0
DWIDTH 8 0
BBX 7 10 0 0
BITMAP
7C
C6
C6
C6
C6
C6
C6
C6
C6
7C
ENDCHAR
STARTCHAR uni041F
ENCODING 1055
SWIDTH 576 0
DWIDTH 8 0
BBX 7 10 0 0
BITMAP
FE
C6
C6
C6
C6
C6
C6
C6
C6
C6
ENDCHAR
STARTCHAR uni0420
ENCODING 1056
SWIDTH 576 0
DWIDTH 8 0
BBX 7 10 0 0
BITMAP
FC
C6
C6
CC
F8
C0
C0
C0
C0
C0
ENDCHAR
STARTCHAR uni0421
ENCODING 1057
SWIDTH 576 0
DWIDTH 8 0
BBX 7 10 0 0
BITMAP
3E
60
C0
C0
C0
C0
C0
C0
60
3E
ENDCHAR
STARTCHAR uni0422
ENCODING 1058
SWIDTH 576 0
DWIDTH 8 0
BBX 6 10 1 0
BITMAP
FC
30
30
30
30
30
30
30
30
30
ENDCHAR
STARTCHAR uni0423
ENCODING 1059
SWIDTH 576 0
DWIDTH 8 0
BBX 7 10 0 0
BITMAP
C6
C6
C6
66
3E
0E
06
06
0C
F8
ENDCHAR
STARTCHAR uni0424
ENCODING 1060
SWIDTH 600 0
DWIDTH 9 0
BBX 8 12 0 -1
BITMAP
18
7E
DB
DB
DB
DB
DB
DB
DB
DB
7E
18
ENDCHAR
STARTCHAR uni0425
ENCODING 1061
SWIDTH 576 0
DWIDTH 8 0
BBX 7 10 0 0
BITMAP
C6
C6
C6
6C
38
6C
C6
C6
C6
C6
ENDCHAR
STARTCHAR uni0426
ENCODING 1062
SWIDTH 600 0
DWIDTH 9 0
BBX 8 11 0 -1
BITMAP
C6
C6
C6
C6
C6
C6
C6
C6
C6
FF
03
ENDCHAR
STARTCHAR uni0427
ENCODING 1063
SWIDTH 576 0
DWIDTH 8 0
BBX 7 10 0 0
BITMAP
C6
C6
C6
66
3E
06
06
06
06
06
ENDCHAR
STARTCHAR uni0428
ENCODING 1064
SWIDTH 600 0
DWIDTH 9 0
BBX 8 10 0 0
BITMAP
DB
DB
DB
DB
DB
DB
DB
DB
DB
FF
ENDCHAR
STARTCHAR uni0429
ENCODING 1065
SWIDTH 666 0
DWIDTH 10 0
BBX 9 11 0 -1
BITMAP
DB00
DB00
DB00
DB00
DB00
DB00
DB00
DB00
DB00
FF80
0180
ENDCHAR
STARTCHAR uni042A
ENCODING 1066
SWIDTH 600 0
DWIDTH 9 0
BBX 8 10 0 0
BITMAP
E0
60
60
60
7E
63
63
63
63
7E
ENDCHAR
STARTCHAR uni042B
ENCODING 1067
SWIDTH 733 0
DWIDTH 11 0
BBX 10 10 0 0
BITMAP
C0C0
C0C0
C0C0
C0C0
FCC0
C6C0
C6C0
C6C0
C6C0
FCC0
ENDCHAR
STARTCHAR uni042C
ENCODING 1068
SWIDTH 533 0
DWIDTH 8 0
BBX 7 10 0 0
BITMAP
C0
C0
C0
C0
FC
C6
C6
C6
C6
FC
ENDCHAR
STARTCHAR uni042D
ENCODING 1069
SWIDTH 576 0
DWIDTH 8 0
BBX 7 10 0 0
BITMAP
7C
C6
06
06
3E
06
06
06
C6
7C
ENDCHAR
STARTCHAR uni042E
ENCODING 1070
SWIDTH 733 0
DWIDTH 11 0
BBX 10 10 0 0
BITMAP
CF80
D8C0
D8C0
D8C0
F8C0
D8C0
D8C0
D8C0
D8C0
CF80
ENDCHAR
STARTCHAR uni042F
ENCODING 1071
SWIDTH 576 0
DWIDTH 8 0
BBX 7 10 0 0
BITMAP
7E
C6
C6
66
3E
66
C6
C6
C6
C6
ENDCHAR
STARTCHAR uni0430
ENCODING 1072
SWIDTH 576 0
DWIDTH 8 0
BBX 7 7 0 0
BITMAP
7C
06
7E
C6
C6
C6
7E
ENDCHAR
STARTCHAR uni0431
ENCODING 1073
SWIDTH 576 0
DWIDTH 8 0
BBX 7 10 0 0
BITMAP
78
C0
C0
FC
C6
C6
C6
C6
C6
7C
ENDCHAR
STARTCHAR uni0432
ENCODING 1074
SWIDTH 576 0
DWIDTH 8 0
BBX 7 7 0 0
BITMAP
FC
C6
C6
FC
C6
C6
FC
ENDCHAR
STARTCHAR uni0433
ENCODING 1075
SWIDTH 576 0
DWIDTH 8 0
BBX 7 7 0 0
BITMAP
FE
C0
C0
C0
C0
C0
C0
ENDCHAR
STARTCHAR uni0434
ENCODING 1076
SWIDTH 600 0
DWIDTH 8 0
BBX 7 8 0 -1
BITMAP
7E
66
66
66
66
C6
FE
C6
ENDCHAR
STARTCHAR uni0435
ENCODING 1077
SWIDTH 576 0
DWIDTH 8 0
BBX 7 7 0 0
BITMAP
7C
C6
C6
FE
C0
C0
7E
ENDCHAR
STARTCHAR uni0436
ENCODING 1078
SWIDTH 1000 0
DWIDTH 11 0
BBX 10 7 0 0
BITMAP
CCC0
CCC0
6D80
3F00
6D80
CCC0
CCC0
ENDCHAR
STARTCHAR uni0437
ENCODING 1079
SWIDTH 576 0
DWIDTH 8 0
BBX 7 7 0 0
BITMAP
FC
06
06
3C
06
06
FC
ENDCHAR
STARTCHAR uni0438
ENCODING 1080
SWIDTH 1000 0
DWIDTH 8 0
BBX 7 7 0 0
BITMAP
C6
CE
DE
F6
E6
C6
C6
ENDCHAR
STARTCHAR uni0439
ENCODING 1081
SWIDTH 1000 0
DWIDTH 8 0
BBX 7 10 0 0
BITMAP
6C
38
00
C6
CE
DE
F6
E6
C6
C6
ENDCHAR
STARTCHAR uni043A
ENCODING 1082
SWIDTH 576 0
DWIDTH 8 0
BBX 7 7 0 0
BITMAP
C6
CC
F8
CC
C6
C6
C6
ENDCHAR
STARTCHAR uni043B
ENCODING 1083
SWIDTH 1000 0
DWIDTH 8 0
BBX 7 7 0 0
BITMAP
7E
66
66
66
66
C6
C6
ENDCHAR
STARTCHAR uni043C
ENCODING 1084
SWIDTH 1000 0
DWIDTH 8 0
BBX 7 7 0 0
BITMAP
C6
EE
FE
D6
C6
C6
C6
ENDCHAR
STARTCHAR uni043D
ENCODING 1085
SWIDTH 1000 0
DWIDTH 8 0
BBX 7 7 0 0
BITMAP
C6
C6
FE
C6
C6
C6
C6
ENDCHAR
STARTCHAR uni043E
ENCODING 1086
SWIDTH 576 0
DWIDTH 8 0
BBX 7 7 0 0
BITMAP
7C
C6
C6
C6
C6
C6
7C
ENDCHAR
STARTCHAR uni043F
ENCODING 1087
SWIDTH 1000 0
DWIDTH 8 0
BBX 7 7 0 0
BITMAP
FE
C6
C6
C6
C6
C6
C6
ENDCHAR
STARTCHAR uni0440
ENCODING 1088
SWIDTH 576 0
DWIDTH 8 0
BBX 7 10 0 -3
BITMAP
FC
C6
C6
C6
C6
C6
FC
C0
C0
C0
ENDCHAR
STARTCHAR uni0441
ENCODING 1089
SWIDTH 576 0
DWIDTH 8 0
BBX 7 7 0 0
BITMAP
7E
C0
C0
C0
C0
C0
7E
ENDCHAR
STARTCHAR uni0442
ENCODING 1090
SWIDTH 600 0
DWIDTH 9 0
BBX 8 7 0 0
BITMAP
FF
18
18
18
18
18
18
ENDCHAR
STARTCHAR uni0443
ENCODING 1091
SWIDTH 1000 0
DWIDTH 8 0
BBX 7 10 0 -3
BITMAP
C6
C6
C6
C6
C6
C6
7E
06
0C
F8
ENDCHAR
STARTCHAR uni0444
ENCODING 1092
SWIDTH 1000 0
DWIDTH 9 0
BBX 8 13 0 -3
BITMAP
18
18
18
7E
DB
DB
DB
DB
DB
7E
18
18
18
ENDCHAR
STARTCHAR uni0445
ENCODING 1093
SWIDTH 576 0
DWIDTH 8 0
BBX 7 7 0 0
BITMAP
C6
6C
38
38
38
6C
C6
ENDCHAR
STARTCHAR uni0446
ENCODING 1094
SWIDTH 1000 0
DWIDTH 9 0
BBX 8 8 0 -1
BITMAP
C6
C6
C6
C6
C6
C6
FF
03
ENDCHAR
STARTCHAR uni0447
ENCODING 1095
SWIDTH 1000 0
DWIDTH 8 0
BBX 7 7 0 0
BITMAP
C6
C6
C6
7E
06
06
06
ENDCHAR
STARTCHAR uni0448
ENCODING 1096
SWIDTH 1000 0
DWIDTH 9 0
BBX 8 7 0 0
BITMAP
DB
DB
DB
DB
DB
DB
FF
ENDCHAR
STARTCHAR uni0449
ENCODING 1097
SWIDTH 1000 0
DWIDTH 10 0
BBX 9 8 0 -1
BITMAP
DB00
DB00
DB00
DB00
DB00
DB00
FF80
0180
ENDCHAR
STARTCHAR uni044A
ENCODING 1098
SWIDTH 576 0
DWIDTH 9 0
BBX 8 7 0 0
BITMAP
E0
60
60
7E
63
63
7E
ENDCHAR
STARTCHAR uni044B
ENCODING 1099
SWIDTH 576 0
DWIDTH 11 0
BBX 10 7 0 0
BITMAP
C0C0
C0C0
C0C0
FCC0
C6C0
C6C0
FCC0
ENDCHAR
STARTCHAR uni044C
ENCODING 1100
SWIDTH 576 0
DWIDTH 8 0
BBX 7 7 0 0
BITMAP
C0
C0
C0
FC
C6
C6
FC
ENDCHAR
STARTCHAR uni044D
ENCODING 1101
SWIDTH 576 0
DWIDTH 8 0
BBX 7 7 0 0
BITMAP
FC
06
06
3E
06
06
FC
ENDCHAR
STARTCHAR uni044E
ENCODING 1102
SWIDTH 576 0
DWIDTH 11 0
BBX 10 7 0 0
BITMAP
CF80
D8C0
D8C0
F8C0
D8C0
D8C0
CF80
ENDCHAR
STARTCHAR uni044F
ENCODING 1103
SWIDTH 576 0
DWIDTH 8 0
BBX 7 7 0 0
BITMAP
7E
C6
66
3E
66
C6
C6
ENDCHAR
STARTCHAR uni0450
ENCODING 1104
SWIDTH 576 0
DWIDTH 8 0
BBX 7 11 0 0
BITMAP
60
30
18
00
7C
C6
C6
FE
C0
C0
7E
ENDCHAR
STARTCHAR uni0451
ENCODING 1105
SWIDTH 576 0
DWIDTH 8 0
BBX 7 10 0 0
BITMAP
C6
00
00
7C
C6
C6
FE
C0
C0
7E
ENDCHAR
STARTCHAR uni0452
ENCODING 1106
SWIDTH 576 0
DWIDTH 8 0
BBX 7 13 0 -2
BITMAP
20
60
60
FC
60
7C
66
66
66
66
66
06
0C
ENDCHAR
STARTCHAR uni0453
ENCODING 1107
SWIDTH 576 0
DWIDTH 8 0
BBX 7 10 0 0
BITMAP
18
30
00
FE
C0
C0
C0
C0
C0
C0
ENDCHAR
STARTCHAR uni0454
ENCODING 1108
SWIDTH 576 0
DWIDTH 8 0
BBX 7 7 0 0
BITMAP
7E
C0
C0
F8
C0
C0
7E
ENDCHAR
STARTCHAR uni0455
ENCODING 1109
SWIDTH 576 0
DWIDTH 8 0
BBX 7 7 0 0
BITMAP
7E
C0
C0
7C
06
06
FC
ENDCHAR
STARTCHAR uni0456
ENCODING 1110
SWIDTH 576 0
DWIDTH 5 0
BBX 2 10 1 0
BITMAP
C0
C0
00
C0
C0
C0
C0
C0
C0
C0
ENDCHAR
STARTCHAR uni0457
ENCODING 1111
SWIDTH 576 0
DWIDTH 5 0
BBX 6 10 -1 0
BITMAP
CC
00
00
30
30
30
30
30
30
30
ENDCHAR
STARTCHAR uni0458
ENCODING 1112
SWIDTH 576 0
DWIDTH 6 0
BBX 6 13 -1 -3
BITMAP
0C
0C
00
0C
0C
0C
0C
0C
0C
0C
0C
18
F0
ENDCHAR
STARTCHAR uni0459
ENCODING 1113
SWIDTH 576 0
DWIDTH 13 0
BBX 12 7 0 0
BITMAP
3F00
3300
3300
33E0
3330
7330
E3E0
ENDCHAR
STARTCHAR uni045A
ENCODING 1114
SWIDTH 576 0
DWIDTH 11 0
BBX 10 7 0 0
BITMAP
CC00
CC00
CC00
FF80
CCC0
CCC0
CF80
ENDCHAR
STARTCHAR uni045B
ENCODING 1115
SWIDTH 576 0
DWIDTH 8 0
BBX 7 11 0 0
BITMAP
20
60
60
FC
60
7C
66
66
66
66
66
ENDCHAR
STARTCHAR uni045C
ENCODING 1116
SWIDTH 576 0
DWIDTH 8 0
BBX 7 10 0 0
BITMAP
18
30
00
C6
CC
F8
CC
C6
C6
C6
ENDCHAR
STARTCHAR uni045D
ENCODING 1117
SWIDTH 576 0
DWIDTH 8 0
BBX 7 10 0 0
BITMAP
30
18
00
C6
CE
DE
F6
E6
C6
C6
ENDCHAR
STARTCHAR uni045E
ENCODING 1118
SWIDTH 576 0
DWIDTH 8 0
BBX 7 13 1 -3
BITMAP
44
38
00
82
82
82
82
82
86
7A
02
82
7C
ENDCHAR
STARTCHAR uni045F
ENCODING 1119
SWIDTH 576 0
DWIDTH 8 0
BBX 7 9 1 -2
BITMAP
82
82
82
82
82
82
FE
10
10
ENDCHAR
STARTCHAR uni0460
ENCODING 1120
SWIDTH 576 0
DWIDTH 8 0
BBX 7 10 1 0
BITMAP
6C
82
82
92
92
92
92
92
92
6C
ENDCHAR
STARTCHAR uni0461
ENCODING 1121
SWIDTH 576 0
DWIDTH 8 0
BBX 7 7 1 0
BITMAP
6C
82
82
92
92
92
6C
ENDCHAR
STARTCHAR uni0462
ENCODING 1122
SWIDTH 576 0
DWIDTH 8 0
BBX 7 10 1 0
BITMAP
20
F8
20
20
3C
22
22
22
22
3C
ENDCHAR
STARTCHAR uni0463
ENCODING 1123
SWIDTH 576 0
DWIDTH 8 0
BBX 7 10 1 0
BITMAP
20
20
20
F8
20
20
3C
22
22
3C
ENDCHAR
STARTCHAR uni0464
ENCODING 1124
SWIDTH 576 0
DWIDTH 8 0
BBX 7 10 1 0
BITMAP
9C
A2
A0
A0
F8
A0
A0
A0
A2
9C
ENDCHAR
STARTCHAR uni0465
ENCODING 1125
SWIDTH 576 0
DWIDTH 8 0
BBX 7 7 1 0
BITMAP
9C
A2
A0
F8
A0
A2
9C
ENDCHAR
STARTCHAR uni0466
ENCODING 1126
SWIDTH 576 0
DWIDTH 8 0
BBX 7 10 1 0
BITMAP
10
28
28
28
44
7C
54
92
92
BA
ENDCHAR
STARTCHAR uni0467
ENCODING 1127
SWIDTH 576 0
DWIDTH 8 0
BBX 7 7 1 0
BITMAP
10
28
28
44
7C
54
BA
ENDCHAR
STARTCHAR uni0468
ENCODING 1128
SWIDTH 576 0
DWIDTH 8 0
BBX 7 10 1 0
BITMAP
88
94
94
94
A2
FE
AA
AA
AA
AA
ENDCHAR
STARTCHAR uni0469
ENCODING 1129
SWIDTH 576 0
DWIDTH 8 0
BBX 7 7 1 0
BITMAP
88
94
94
A2
FE
AA
AA
ENDCHAR
STARTCHAR uni046A
ENCODING 1130
SWIDTH 576 0
DWIDTH 8 0
BBX 7 10 1 0
BITMAP
FE
44
28
28
10
7C
92
92
92
92
ENDCHAR
STARTCHAR uni046B
ENCODING 1131
SWIDTH 576 0
DWIDTH 8 0
BBX 7 7 1 0
BITMAP
FE
44
28
10
7C
92
92
ENDCHAR
STARTCHAR uni046C
ENCODING 1132
SWIDTH 576 0
DWIDTH 8 0
BBX 7 10 1 0
BITMAP
BE
A2
94
94
F8
9C
AA
AA
AA
AA
ENDCHAR
STARTCHAR uni046D
ENCODING 1133
SWIDTH 576 0
DWIDTH 8 0
BBX 7 7 1 0
BITMAP
BE
A2
94
F8
9C
AA
AA
ENDCHAR
STARTCHAR uni046E
ENCODING 1134
SWIDTH 576 0
DWIDTH 8 0
BBX 7 15 1 -3
BITMAP
44
28
10
00
7C
82
02
02
1C
02
02
7C
80
80
7C
ENDCHAR
STARTCHAR uni046F
ENCODING 1135
SWIDTH 576 0
DWIDTH 8 0
BBX 7 14 1 -3
BITMAP
44
28
10
00
7C
82
02
1C
02
02
7C
80
80
7C
ENDCHAR
STARTCHAR uni0470
ENCODING 1136
SWIDTH 576 0
DWIDTH 8 0
BBX 7 11 0 -2
BITMAP
D6
D6
D6
D6
D6
D6
D6
D6
FE
10
10
ENDCHAR
STARTCHAR uni0471
ENCODING 1137
SWIDTH 576 0
DWIDTH 8 0
BBX 7 10 0 -3
BITMAP
D6
D6
D6
D6
D6
D6
FE
10
10
10
ENDCHAR
STARTCHAR uni0472
ENCODING 1138
SWIDTH 576 0
DWIDTH 8 0
BBX 7 10 0 -1
BITMAP
7C
C6
C6
C6
FE
C6
C6
C6
C6
7C
ENDCHAR
STARTCHAR uni0473
ENCODING 1139
SWIDTH 576 0
DWIDTH 9 0
BBX 8 7 0 -1
BITMAP
7E
C3
C3
FF
C3
C3
7E
ENDCHAR
STARTCHAR uni0474
ENCODING 1140
SWIDTH 576 0
DWIDTH 8 0
BBX 7 10 1 0
BITMAP
82
84
84
48
48
48
28
28
28
10
ENDCHAR
STARTCHAR uni0475
ENCODING 1141
SWIDTH 576 0
DWIDTH 8 0
BBX 7 7 1 0
BITMAP
82
84
48
48
28
28
10
ENDCHAR
STARTCHAR uni0476
ENCODING 1142
SWIDTH 576 0
DWIDTH 8 0
BBX 7 11 1 0
BITMAP
48
24
00
82
84
44
48
48
28
28
10
ENDCHAR
STARTCHAR uni0477
ENCODING 1143
SWIDTH 576 0
DWIDTH 8 0
BBX 7 10 1 0
BITMAP
48
24
00
82
84
48
48
28
28
10
ENDCHAR
STARTCHAR uni0478
ENCODING 1144
SWIDTH 576 0
DWIDTH 8 0
BBX 7 13 1 -3
BITMAP
40
A0
A0
AA
AA
AA
AA
AA
AA
46
02
0A
04
ENDCHAR
STARTCHAR uni0479
ENCODING 1145
SWIDTH 576 0
DWIDTH 8 0
BBX 7 10 1 -3
BITMAP
4A
AA
AA
AA
AA
AA
46
02
0A
04
ENDCHAR
STARTCHAR uni047A
ENCODING 1146
SWIDTH 576 0
DWIDTH 8 0
BBX 7 12 1 -1
BITMAP
10
7C
92
82
82
82
82
82
82
92
7C
10
ENDCHAR
STARTCHAR uni047B
ENCODING 1147
SWIDTH 576 0
DWIDTH 8 0
BBX 7 9 1 -1
BITMAP
10
7C
92
82
82
82
92
7C
10
ENDCHAR
STARTCHAR uni047C
ENCODING 1148
SWIDTH 576 0
DWIDTH 8 0
BBX 7 12 1 0
BITMAP
04
7C
40
00
6C
82
82
92
92
92
92
7C
ENDCHAR
STARTCHAR uni047D
ENCODING 1149
SWIDTH 576 0
DWIDTH 8 0
BBX 7 11 1 0
BITMAP
04
7C
40
00
6C
82
82
92
92
92
7C
ENDCHAR
STARTCHAR uni047E
ENCODING 1150
SWIDTH 576 0
DWIDTH 8 0
BBX 7 11 1 0
BITMAP
7C
54
00
6C
82
82
92
92
92
92
7C
ENDCHAR
STARTCHAR uni047F
ENCODING 1151
SWIDTH 576 0
DWIDTH 8 0
BBX 7 10 1 0
BITMAP
7C
54
00
6C
82
82
92
92
92
7C
ENDCHAR
STARTCHAR uni0480
ENCODING 1152
SWIDTH 576 0
DWIDTH 8 0
BBX 7 12 1 -2
BITMAP
7C
82
80
80
80
80
80
80
80
60
10
10
ENDCHAR
STARTCHAR uni0481
ENCODING 1153
SWIDTH 576 0
DWIDTH 8 0
BBX 7 9 1 -2
BITMAP
7C
82
80
80
80
80
60
10
10
ENDCHAR
STARTCHAR uni0482
ENCODING 1154
SWIDTH 576 0
DWIDTH 8 0
BBX 7 10 1 1
BITMAP
04
04
38
0E
10
10
E0
38
40
40
ENDCHAR
STARTCHAR uni0483
ENCODING 1155
SWIDTH 576 0
DWIDTH 8 0
BBX 5 3 2 9
BITMAP
08
F8
80
ENDCHAR
STARTCHAR uni0484
ENCODING 1156
SWIDTH 576 0
DWIDTH 8 0
BBX 7 2 1 10
BITMAP
70
8E
ENDCHAR
STARTCHAR uni0485
ENCODING 1157
SWIDTH 576 0
DWIDTH 8 0
BBX 7 3 1 9
BITMAP
78
E6
40
ENDCHAR
STARTCHAR uni0486
ENCODING 1158
SWIDTH 576 0
DWIDTH 8 0
BBX 7 3 1 9
BITMAP
3C
CE
04
ENDCHAR
STARTCHAR uni0488
ENCODING 1160
SWIDTH 576 0
DWIDTH 8 0
BBX 7 15 1 -3
BITMAP
40
A4
0A
00
00
00
00
00
00
00
00
00
40
A4
0A
ENDCHAR
STARTCHAR uni0489
ENCODING 1161
SWIDTH 576 0
DWIDTH 8 0
BBX 6 15 1 -3
BITMAP
40
84
C8
0C
00
00
00
00
00
00
00
40
84
C8
0C
ENDCHAR
STARTCHAR uni048A
ENCODING 1162
SWIDTH 576 0
DWIDTH 8 0
BBX 7 14 1 -2
BITMAP
44
38
00
82
82
86
8A
92
A2
C2
82
82
00
02
ENDCHAR
STARTCHAR uni048B
ENCODING 1163
SWIDTH 576 0
DWIDTH 8 0
BBX 7 12 1 -2
BITMAP
44
38
00
82
86
8A
92
A2
C2
82
00
02
ENDCHAR
STARTCHAR uni048C
ENCODING 1164
SWIDTH 576 0
DWIDTH 8 0
BBX 8 10 0 0
BITMAP
40
F8
40
40
7E
41
41
41
41
7E
ENDCHAR
STARTCHAR uni048D
ENCODING 1165
SWIDTH 576 0
DWIDTH 8 0
BBX 8 7 0 0
BITMAP
40
F8
40
7E
41
41
7E
ENDCHAR
STARTCHAR uni048E
ENCODING 1166
SWIDTH 576 0
DWIDTH 8 0
BBX 7 10 1 0
BITMAP
FC
82
82
8A
FC
82
80
80
80
80
ENDCHAR
STARTCHAR uni048F
ENCODING 1167
SWIDTH 576 0
DWIDTH 8 0
BBX 7 10 1 -3
BITMAP
BC
C2
82
82
92
CA
BC
84
80
80
ENDCHAR
STARTCHAR uni0490
ENCODING 1168
SWIDTH 576 0
DWIDTH 8 0
BBX 7 11 1 0
BITMAP
02
FE
80
80
80
80
80
80
80
80
80
ENDCHAR
STARTCHAR uni0491
ENCODING 1169
SWIDTH 576 0
DWIDTH 8 0
BBX 7 8 1 0
BITMAP
02
FE
80
80
80
80
80
80
ENDCHAR
STARTCHAR uni0492
ENCODING 1170
SWIDTH 576 0
DWIDTH 8 0
BBX 7 10 1 0
BITMAP
7E
42
40
40
E0
40
40
40
40
40
ENDCHAR
STARTCHAR uni0493
ENCODING 1171
SWIDTH 576 0
DWIDTH 8 0
BBX 7 7 1 0
BITMAP
7E
42
40
E0
40
40
40
ENDCHAR
STARTCHAR uni0494
ENCODING 1172
SWIDTH 576 0
DWIDTH 8 0
BBX 7 12 1 -2
BITMAP
FC
20
20
20
3C
22
22
22
22
22
02
3C
ENDCHAR
STARTCHAR uni0495
ENCODING 1173
SWIDTH 576 0
DWIDTH 8 0
BBX 7 9 1 -2
BITMAP
FC
20
20
3C
22
22
22
02
3C
ENDCHAR
STARTCHAR uni0496
ENCODING 1174
SWIDTH 576 0
DWIDTH 8 0
BBX 7 12 1 -2
BITMAP
92
92
54
54
38
54
54
94
94
96
02
02
ENDCHAR
STARTCHAR uni0497
ENCODING 1175
SWIDTH 576 0
DWIDTH 8 0
BBX 7 9 1 -2
BITMAP
92
92
54
38
54
94
96
02
02
ENDCHAR
STARTCHAR uni0498
ENCODING 1176
SWIDTH 576 0
DWIDTH 8 0
BBX 7 13 1 -3
BITMAP
7C
82
02
02
1C
02
02
02
82
7C
10
08
30
ENDCHAR
STARTCHAR uni0499
ENCODING 1177
SWIDTH 576 0
DWIDTH 8 0
BBX 7 10 1 -3
BITMAP
7C
82
02
1C
02
82
7C
10
08
30
ENDCHAR
STARTCHAR uni049A
ENCODING 1178
SWIDTH 576 0
DWIDTH 8 0
BBX 7 12 1 -2
BITMAP
82
84
88
90
E0
A0
90
88
84
86
02
02
ENDCHAR
STARTCHAR uni049B
ENCODING 1179
SWIDTH 576 0
DWIDTH 8 0
BBX 7 9 1 -2
BITMAP
82
84
88
F0
88
84
86
02
02
ENDCHAR
STARTCHAR uni049C
ENCODING 1180
SWIDTH 576 0
DWIDTH 8 0
BBX 7 10 1 0
BITMAP
82
82
A4
A8
F0
A8
A4
82
82
82
ENDCHAR
STARTCHAR uni049D
ENCODING 1181
SWIDTH 576 0
DWIDTH 8 0
BBX 7 7 1 0
BITMAP
82
84
A8
F0
A8
84
82
ENDCHAR
STARTCHAR uni049E
ENCODING 1182
SWIDTH 576 0
DWIDTH 8 0
BBX 8 10 0 0
BITMAP
41
F2
44
48
70
50
48
44
42
41
ENDCHAR
STARTCHAR uni049F
ENCODING 1183
SWIDTH 576 0
DWIDTH 8 0
BBX 7 10 1 0
BITMAP
40
40
F0
42
44
48
70
48
44
42
ENDCHAR
STARTCHAR uni04A0
ENCODING 1184
SWIDTH 576 0
DWIDTH 8 0
BBX 7 10 1 0
BITMAP
E2
22
24
24
38
24
24
22
22
22
ENDCHAR
STARTCHAR uni04A1
ENCODING 1185
SWIDTH 576 0
DWIDTH 8 0
BBX 7 7 1 0
BITMAP
E2
24
28
30
28
24
22
ENDCHAR
STARTCHAR uni04A2
ENCODING 1186
SWIDTH 576 0
DWIDTH 8 0
BBX 7 12 1 -2
BITMAP
84
84
84
84
FC
84
84
84
84
86
02
02
ENDCHAR
STARTCHAR uni04A3
ENCODING 1187
SWIDTH 576 0
DWIDTH 8 0
BBX 7 9 1 -2
BITMAP
84
84
84
FC
84
84
86
02
02
ENDCHAR
STARTCHAR uni04A4
ENCODING 1188
SWIDTH 576 0
DWIDTH 8 0
BBX 7 10 1 0
BITMAP
8E
88
88
88
F8
88
88
88
88
88
ENDCHAR
STARTCHAR uni04A5
ENCODING 1189
SWIDTH 576 0
DWIDTH 8 0
BBX 7 7 1 0
BITMAP
8E
88
88
F8
88
88
88
ENDCHAR
STARTCHAR uni04A6
ENCODING 1190
SWIDTH 576 0
DWIDTH 8 0
BBX 7 12 1 -2
BITMAP
F0
90
90
90
9C
92
92
92
92
92
02
1C
ENDCHAR
STARTCHAR uni04A7
ENCODING 1191
SWIDTH 576 0
DWIDTH 8 0
BBX 7 9 1 -2
BITMAP
F0
90
90
9C
92
92
92
02
1C
ENDCHAR
STARTCHAR uni04A8
ENCODING 1192
SWIDTH 576 0
DWIDTH 8 0
BBX 7 12 1 -2
BITMAP
7E
80
80
9C
A2
A2
A2
A2
A2
7C
20
1E
ENDCHAR
STARTCHAR uni04A9
ENCODING 1193
SWIDTH 576 0
DWIDTH 8 0
BBX 7 9 1 -2
BITMAP
7E
80
9C
A2
A2
A2
7C
20
1E
ENDCHAR
STARTCHAR uni04AA
ENCODING 1194
SWIDTH 576 0
DWIDTH 8 0
BBX 7 12 1 -2
BITMAP
7C
82
80
80
80
80
80
80
82
7C
20
18
ENDCHAR
STARTCHAR uni04AB
ENCODING 1195
SWIDTH 576 0
DWIDTH 8 0
BBX 7 9 1 -2
BITMAP
7C
82
80
80
80
82
7C
20
18
ENDCHAR
STARTCHAR uni04AC
ENCODING 1196
SWIDTH 576 0
DWIDTH 8 0
BBX 7 12 1 -2
BITMAP
FE
10
10
10
10
10
10
10
10
18
08
08
ENDCHAR
STARTCHAR uni04AD
ENCODING 1197
SWIDTH 576 0
DWIDTH 8 0
BBX 7 9 1 -2
BITMAP
FE
10
10
10
10
10
18
08
08
ENDCHAR
STARTCHAR uni04AE
ENCODING 1198
SWIDTH 576 0
DWIDTH 8 0
BBX 7 10 1 0
BITMAP
82
44
28
10
10
10
10
10
10
10
ENDCHAR
STARTCHAR uni04AF
ENCODING 1199
SWIDTH 576 0
DWIDTH 8 0
BBX 7 10 1 -3
BITMAP
82
44
28
10
10
10
10
10
10
10
ENDCHAR
STARTCHAR uni04B0
ENCODING 1200
SWIDTH 576 0
DWIDTH 8 0
BBX 7 10 1 0
BITMAP
82
44
28
10
10
10
7C
10
10
10
ENDCHAR
STARTCHAR uni04B1
ENCODING 1201
SWIDTH 576 0
DWIDTH 8 0
BBX 7 10 1 -3
BITMAP
82
44
28
10
10
10
7C
10
10
10
ENDCHAR
STARTCHAR uni04B2
ENCODING 1202
SWIDTH 576 0
DWIDTH 8 0
BBX 7 12 1 -2
BITMAP
82
82
44
28
10
10
28
44
84
86
02
02
ENDCHAR
STARTCHAR uni04B3
ENCODING 1203
SWIDTH 576 0
DWIDTH 8 0
BBX 7 9 1 -2
BITMAP
82
44
28
10
28
44
86
02
02
ENDCHAR
STARTCHAR uni04B4
ENCODING 1204
SWIDTH 576 0
DWIDTH 8 0
BBX 7 12 1 -2
BITMAP
FA
22
22
22
22
22
22
22
22
3E
02
02
ENDCHAR
STARTCHAR uni04B5
ENCODING 1205
SWIDTH 576 0
DWIDTH 8 0
BBX 7 9 1 -2
BITMAP
FA
22
22
22
22
22
3E
02
02
ENDCHAR
STARTCHAR uni04B6
ENCODING 1206
SWIDTH 576 0
DWIDTH 8 0
BBX 7 12 1 -2
BITMAP
84
84
84
84
84
7C
04
04
04
06
02
02
ENDCHAR
STARTCHAR uni04B7
ENCODING 1207
SWIDTH 576 0
DWIDTH 8 0
BBX 7 9 1 -2
BITMAP
84
84
84
7C
04
04
06
02
02
ENDCHAR
STARTCHAR uni04B8
ENCODING 1208
SWIDTH 576 0
DWIDTH 8 0
BBX 7 10 1 0
BITMAP
82
82
82
92
92
7E
12
12
02
02
ENDCHAR
STARTCHAR uni04B9
ENCODING 1209
SWIDTH 576 0
DWIDTH 8 0
BBX 7 7 1 0
BITMAP
82
92
92
7E
12
12
02
ENDCHAR
STARTCHAR uni04BA
ENCODING 1210
SWIDTH 576 0
DWIDTH 8 0
BBX 7 10 1 0
BITMAP
80
80
80
BC
C2
82
82
82
82
82
ENDCHAR
STARTCHAR uni04BB
ENCODING 1211
SWIDTH 576 0
DWIDTH 8 0
BBX 5 10 2 0
BITMAP
80
80
80
80
B0
C8
88
88
88
88
ENDCHAR
STARTCHAR uni04BC
ENCODING 1212
SWIDTH 576 0
DWIDTH 8 0
BBX 7 10 1 0
BITMAP
1C
22
A2
A2
7E
20
20
20
22
1C
ENDCHAR
STARTCHAR uni04BD
ENCODING 1213
SWIDTH 576 0
DWIDTH 8 0
BBX 7 7 1 0
BITMAP
1C
A2
A2
7E
20
22
1C
ENDCHAR
STARTCHAR uni04BE
ENCODING 1214
SWIDTH 576 0
DWIDTH 8 0
BBX 7 12 1 -2
BITMAP
1C
22
A2
A2
7E
20
20
20
22
1C
10
0C
ENDCHAR
STARTCHAR uni04BF
ENCODING 1215
SWIDTH 576 0
DWIDTH 8 0
BBX 7 9 1 -2
BITMAP
1C
A2
A2
7E
20
22
1C
10
0C
ENDCHAR
STARTCHAR uni04C0
ENCODING 1216
SWIDTH 576 0
DWIDTH 8 0
BBX 3 10 3 0
BITMAP
E0
40
40
40
40
40
40
40
40
E0
ENDCHAR
STARTCHAR uni04C1
ENCODING 1217
SWIDTH 576 0
DWIDTH 8 0
BBX 7 11 1 0
BITMAP
44
38
00
92
92
54
38
54
54
92
92
ENDCHAR
STARTCHAR uni04C2
ENCODING 1218
SWIDTH 576 0
DWIDTH 8 0
BBX 7 10 1 0
BITMAP
44
38
00
92
92
54
38
54
92
92
ENDCHAR
STARTCHAR uni04C3
ENCODING 1219
SWIDTH 576 0
DWIDTH 8 0
BBX 7 12 1 -2
BITMAP
82
84
88
90
E0
A0
90
88
84
82
02
0C
ENDCHAR
STARTCHAR uni04C4
ENCODING 1220
SWIDTH 576 0
DWIDTH 8 0
BBX 7 9 1 -2
BITMAP
82
84
88
F0
88
84
82
02
0C
ENDCHAR
STARTCHAR uni04C5
ENCODING 1221
SWIDTH 576 0
DWIDTH 8 0
BBX 7 12 1 -2
BITMAP
7E
42
42
42
42
42
42
42
42
82
00
02
ENDCHAR
STARTCHAR uni04C6
ENCODING 1222
SWIDTH 576 0
DWIDTH 8 0
BBX 7 9 1 -2
BITMAP
3E
22
22
22
22
22
C2
00
02
ENDCHAR
STARTCHAR uni04C7
ENCODING 1223
SWIDTH 576 0
DWIDTH 8 0
BBX 7 12 1 -2
BITMAP
82
82
82
82
FE
82
82
82
82
82
02
0C
ENDCHAR
STARTCHAR uni04C8
ENCODING 1224
SWIDTH 576 0
DWIDTH 8 0
BBX 7 9 1 -2
BITMAP
82
82
82
FE
82
82
82
02
0C
ENDCHAR
STARTCHAR uni04C9
ENCODING 1225
SWIDTH 576 0
DWIDTH 8 0
BBX 7 12 1 -2
BITMAP
82
82
82
82
FE
82
82
82
82
82
00
02
ENDCHAR
STARTCHAR uni04CA
ENCODING 1226
SWIDTH 576 0
DWIDTH 8 0
BBX 7 9 1 -2
BITMAP
82
82
82
FE
82
82
82
00
02
ENDCHAR
STARTCHAR uni04CB
ENCODING 1227
SWIDTH 576 0
DWIDTH 8 0
BBX 7 12 1 -2
BITMAP
82
82
82
82
82
7E
02
02
02
06
04
04
ENDCHAR
STARTCHAR uni04CC
ENCODING 1228
SWIDTH 576 0
DWIDTH 8 0
BBX 7 9 1 -2
BITMAP
82
82
82
7E
02
02
06
04
04
ENDCHAR
STARTCHAR uni04CD
ENCODING 1229
SWIDTH 576 0
DWIDTH 8 0
BBX 7 12 1 -2
BITMAP
82
82
C6
AA
AA
92
92
82
82
82
00
02
ENDCHAR
STARTCHAR uni04CE
ENCODING 1230
SWIDTH 576 0
DWIDTH 8 0
BBX 7 9 1 -2
BITMAP
82
C6
AA
92
82
82
82
00
02
ENDCHAR
STARTCHAR uni04D0
ENCODING 1232
SWIDTH 576 0
DWIDTH 8 0
BBX 7 11 1 0
BITMAP
44
38
00
38
44
82
82
FE
82
82
82
ENDCHAR
STARTCHAR uni04D1
ENCODING 1233
SWIDTH 576 0
DWIDTH 8 0
BBX 7 10 1 0
BITMAP
44
38
00
7C
02
02
7E
82
86
7A
ENDCHAR
STARTCHAR uni04D2
ENCODING 1234
SWIDTH 576 0
DWIDTH 8 0
BBX 7 11 1 0
BITMAP
44
44
00
38
44
82
82
FE
82
82
82
ENDCHAR
STARTCHAR uni04D3
ENCODING 1235
SWIDTH 576 0
DWIDTH 8 0
BBX 7 10 1 0
BITMAP
44
44
00
7C
02
02
7E
82
86
7A
ENDCHAR
STARTCHAR uni04D4
ENCODING 1236
SWIDTH 576 0
DWIDTH 8 0
BBX 7 10 1 0
BITMAP
6E
90
90
90
90
FC
90
90
90
9E
ENDCHAR
STARTCHAR uni04D5
ENCODING 1237
SWIDTH 576 0
DWIDTH 8 0
BBX 7 7 1 0
BITMAP
6C
92
12
7C
90
92
6E
ENDCHAR
STARTCHAR uni04D6
ENCODING 1238
SWIDTH 576 0
DWIDTH 8 0
BBX 7 11 1 0
BITMAP
44
38
00
FE
40
40
78
40
40
40
FE
ENDCHAR
STARTCHAR uni04D7
ENCODING 1239
SWIDTH 576 0
DWIDTH 8 0
BBX 7 10 1 0
BITMAP
44
38
00
7C
82
82
FE
80
80
7C
ENDCHAR
STARTCHAR uni04D8
ENCODING 1240
SWIDTH 576 0
DWIDTH 8 0
BBX 7 10 1 0
BITMAP
7C
02
02
02
02
FE
82
82
82
7C
ENDCHAR
STARTCHAR uni04D9
ENCODING 1241
SWIDTH 576 0
DWIDTH 8 0
BBX 7 7 1 0
BITMAP
7C
02
02
FE
82
82
7C
ENDCHAR
STARTCHAR uni04DA
ENCODING 1242
SWIDTH 576 0
DWIDTH 8 0
BBX 7 11 1 0
BITMAP
44
44
00
7C
02
02
FE
82
82
82
7C
ENDCHAR
STARTCHAR uni04DB
ENCODING 1243
SWIDTH 576 0
DWIDTH 8 0
BBX 7 10 1 0
BITMAP
44
44
00
7C
02
02
FE
82
82
7C
ENDCHAR
STARTCHAR uni04DC
ENCODING 1244
SWIDTH 576 0
DWIDTH 8 0
BBX 7 11 1 0
BITMAP
44
44
00
92
92
54
38
54
54
92
92
ENDCHAR
STARTCHAR uni04DD
ENCODING 1245
SWIDTH 576 0
DWIDTH 8 0
BBX 7 10 1 0
BITMAP
44
44
00
92
92
54
38
54
92
92
ENDCHAR
STARTCHAR uni04DE
ENCODING 1246
SWIDTH 576 0
DWIDTH 8 0
BBX 7 11 1 0
BITMAP
44
44
00
7C
82
02
02
1C
02
82
7C
ENDCHAR
STARTCHAR uni04DF
ENCODING 1247
SWIDTH 576 0
DWIDTH 8 0
BBX 7 10 1 0
BITMAP
44
44
00
7C
82
02
1C
02
82
7C
ENDCHAR
STARTCHAR uni04E0
ENCODING 1248
SWIDTH 576 0
DWIDTH 8 0
BBX 7 9 1 0
BITMAP
FE
02
04
08
1C
02
02
82
7C
ENDCHAR
STARTCHAR uni04E1
ENCODING 1249
SWIDTH 576 0
DWIDTH 8 0
BBX 7 9 1 -2
BITMAP
FE
04
08
10
3C
02
02
82
7C
ENDCHAR
STARTCHAR uni04E2
ENCODING 1250
SWIDTH 576 0
DWIDTH 8 0
BBX 7 11 1 0
BITMAP
7C
00
82
82
86
8A
92
A2
C2
82
82
ENDCHAR
STARTCHAR uni04E3
ENCODING 1251
SWIDTH 576 0
DWIDTH 8 0
BBX 7 9 1 0
BITMAP
7C
00
82
86
8A
92
A2
C2
82
ENDCHAR
STARTCHAR uni04E4
ENCODING 1252
SWIDTH 576 0
DWIDTH 8 0
BBX 7 11 1 0
BITMAP
44
44
00
82
86
8A
92
A2
C2
82
82
ENDCHAR
STARTCHAR uni04E5
ENCODING 1253
SWIDTH 576 0
DWIDTH 8 0
BBX 7 10 1 0
BITMAP
44
44
00
82
86
8A
92
A2
C2
82
ENDCHAR
STARTCHAR uni04E6
ENCODING 1254
SWIDTH 576 0
DWIDTH 8 0
BBX 7 11 1 0
BITMAP
44
44
00
7C
82
82
82
82
82
82
7C
ENDCHAR
STARTCHAR uni04E7
ENCODING 1255
SWIDTH 576 0
DWIDTH 8 0
BBX 7 10 1 0
BITMAP
44
44
00
7C
82
82
82
82
82
7C
ENDCHAR
STARTCHAR uni04E8
ENCODING 1256
SWIDTH 576 0
DWIDTH 8 0
BBX 7 10 1 0
BITMAP
7C
82
82
A2
D6
8A
82
82
82
7C
ENDCHAR
STARTCHAR uni04E9
ENCODING 1257
SWIDTH 576 0
DWIDTH 8 0
BBX 7 7 1 0
BITMAP
7C
82
A2
D6
8A
82
7C
ENDCHAR
STARTCHAR uni04EA
ENCODING 1258
SWIDTH 576 0
DWIDTH 8 0
BBX 7 11 1 0
BITMAP
44
44
00
7C
82
A2
D6
8A
82
82
7C
ENDCHAR
STARTCHAR uni04EB
ENCODING 1259
SWIDTH 576 0
DWIDTH 8 0
BBX 7 10 1 0
BITMAP
44
44
00
7C
82
A2
D6
8A
82
7C
ENDCHAR
STARTCHAR uni04EC
ENCODING 1260
SWIDTH 576 0
DWIDTH 8 0
BBX 7 12 1 0
BITMAP
28
28
00
78
84
02
02
1E
02
02
84
78
ENDCHAR
STARTCHAR uni04ED
ENCODING 1261
SWIDTH 576 0
DWIDTH 8 0
BBX 7 10 1 0
BITMAP
28
28
00
7C
82
02
1E
02
82
7C
ENDCHAR
STARTCHAR uni04EE
ENCODING 1262
SWIDTH 576 0
DWIDTH 8 0
BBX 7 11 1 0
BITMAP
7C
00
82
82
82
82
86
7A
02
82
7C
ENDCHAR
STARTCHAR uni04EF
ENCODING 1263
SWIDTH 576 0
DWIDTH 8 0
BBX 7 12 1 -3
BITMAP
7C
00
82
82
82
82
82
86
7A
02
82
7C
ENDCHAR
STARTCHAR uni04F0
ENCODING 1264
SWIDTH 576 0
DWIDTH 8 0
BBX 7 11 1 0
BITMAP
44
44
00
82
82
82
86
7A
02
82
7C
ENDCHAR
STARTCHAR uni04F1
ENCODING 1265
SWIDTH 576 0
DWIDTH 8 0
BBX 7 13 1 -3
BITMAP
44
44
00
82
82
82
82
82
86
7A
02
82
7C
ENDCHAR
STARTCHAR uni04F2
ENCODING 1266
SWIDTH 576 0
DWIDTH 8 0
BBX 7 11 1 0
BITMAP
24
48
00
82
82
82
86
7A
02
82
7C
ENDCHAR
STARTCHAR uni04F3
ENCODING 1267
SWIDTH 576 0
DWIDTH 8 0
BBX 7 13 1 -3
BITMAP
24
48
00
82
82
82
82
82
86
7A
02
82
7C
ENDCHAR
STARTCHAR uni04F4
ENCODING 1268
SWIDTH 576 0
DWIDTH 8 0
BBX 7 11 1 0
BITMAP
44
44
00
82
82
82
82
7E
02
02
02
ENDCHAR
STARTCHAR uni04F5
ENCODING 1269
SWIDTH 576 0
DWIDTH 8 0
BBX 7 10 1 0
BITMAP
44
44
00
82
82
82
7E
02
02
02
ENDCHAR
STARTCHAR uni04F8
ENCODING 1272
SWIDTH 576 0
DWIDTH 8 0
BBX 7 11 1 0
BITMAP
44
44
00
82
82
82
F2
8A
8A
8A
F2
ENDCHAR
STARTCHAR uni04F9
ENCODING 1273
SWIDTH 576 0
DWIDTH 8 0
BBX 7 10 1 0
BITMAP
44
44
00
82
82
82
F2
8A
8A
F2
ENDCHAR
STARTCHAR uni0500
ENCODING 1280
SWIDTH 576 0
DWIDTH 8 0
BBX 8 10 0 0
BITMAP
01
01
01
7F
81
81
81
81
81
7F
ENDCHAR
STARTCHAR uni0501
ENCODING 1281
SWIDTH 576 0
DWIDTH 8 0
BBX 7 10 1 0
BITMAP
02
02
02
7A
86
82
82
82
86
7A
ENDCHAR
STARTCHAR uni0502
ENCODING 1282
SWIDTH 576 0
DWIDTH 8 0
BBX 8 10 0 0
BITMAP
04
04
04
7C
84
85
85
85
85
7E
ENDCHAR
STARTCHAR uni0503
ENCODING 1283
SWIDTH 576 0
DWIDTH 8 0
BBX 7 10 1 0
BITMAP
08
08
08
68
98
88
8A
8A
9A
64
ENDCHAR
STARTCHAR uni0504
ENCODING 1284
SWIDTH 576 0
DWIDTH 8 0
BBX 7 10 1 0
BITMAP
70
88
08
08
30
0A
0A
0A
0A
04
ENDCHAR
STARTCHAR uni0505
ENCODING 1285
SWIDTH 576 0
DWIDTH 8 0
BBX 7 7 1 0
BITMAP
70
88
08
30
0A
0A
04
ENDCHAR
STARTCHAR uni0506
ENCODING 1286
SWIDTH 576 0
DWIDTH 8 0
BBX 6 12 1 -2
BITMAP
70
88
08
08
30
08
08
08
08
0C
04
04
ENDCHAR
STARTCHAR uni0507
ENCODING 1287
SWIDTH 576 0
DWIDTH 8 0
BBX 6 9 1 -2
BITMAP
70
88
08
30
08
08
0C
04
04
ENDCHAR
STARTCHAR uni0508
ENCODING 1288
SWIDTH 576 0
DWIDTH 8 0
BBX 7 10 1 0
BITMAP
78
48
48
48
48
4A
4A
4A
4A
84
ENDCHAR
STARTCHAR uni0509
ENCODING 1289
SWIDTH 576 0
DWIDTH 8 0
BBX 7 7 1 0
BITMAP
78
48
48
48
4A
4A
84
ENDCHAR
STARTCHAR uni050A
ENCODING 1290
SWIDTH 576 0
DWIDTH 8 0
BBX 7 10 1 0
BITMAP
88
88
88
88
F8
8A
8A
8A
8A
84
ENDCHAR
STARTCHAR uni050B
ENCODING 1291
SWIDTH 576 0
DWIDTH 8 0
BBX 7 7 1 0
BITMAP
88
88
88
F8
8A
8A
84
ENDCHAR
STARTCHAR uni050C
ENCODING 1292
SWIDTH 576 0
DWIDTH 8 0
BBX 7 10 1 0
BITMAP
7C
82
80
80
80
8E
82
82
82
7C
ENDCHAR
STARTCHAR uni050D
ENCODING 1293
SWIDTH 576 0
DWIDTH 8 0
BBX 7 7 1 0
BITMAP
7C
82
80
8E
82
82
7C
ENDCHAR
STARTCHAR uni050E
ENCODING 1294
SWIDTH 576 0
DWIDTH 8 0
BBX 7 10 1 0
BITMAP
FE
10
10
10
10
14
14
14
14
08
ENDCHAR
STARTCHAR uni050F
ENCODING 1295
SWIDTH 576 0
DWIDTH 8 0
BBX 7 7 1 0
BITMAP
FE
10
10
10
14
14
08
ENDCHAR
STARTCHAR uni0531
ENCODING 1329
SWIDTH 576 0
DWIDTH 8 0
BBX 8 10 0 0
BITMAP
84
84
84
84
84
84
84
8E
85
79
ENDCHAR
STARTCHAR uni0532
ENCODING 1330
SWIDTH 576 0
DWIDTH 8 0
BBX 7 10 1 0
BITMAP
38
44
82
82
80
80
FC
82
80
80
ENDCHAR
STARTCHAR uni0533
ENCODING 1331
SWIDTH 576 0
DWIDTH 8 0
BBX 8 10 0 0
BITMAP
78
84
84
84
84
7E
05
04
04
04
ENDCHAR
STARTCHAR uni0534
ENCODING 1332
SWIDTH 576 0
DWIDTH 8 0
BBX 8 10 0 0
BITMAP
78
84
84
84
06
05
04
04
04
04
ENDCHAR
STARTCHAR uni0535
ENCODING 1333
SWIDTH 576 0
DWIDTH 8 0
BBX 7 10 1 0
BITMAP
80
80
80
FC
82
80
80
82
82
7C
ENDCHAR
STARTCHAR uni0536
ENCODING 1334
SWIDTH 576 0
DWIDTH 8 0
BBX 7 10 1 0
BITMAP
7C
82
82
82
82
7C
08
90
F8
86
ENDCHAR
STARTCHAR uni0537
ENCODING 1335
SWIDTH 576 0
DWIDTH 8 0
BBX 7 11 1 -1
BITMAP
80
80
80
80
FC
82
80
80
80
FC
02
ENDCHAR
STARTCHAR uni0538
ENCODING 1336
SWIDTH 576 0
DWIDTH 8 0
BBX 7 11 1 -1
BITMAP
38
44
82
82
80
80
80
80
80
FC
02
ENDCHAR
STARTCHAR uni0539
ENCODING 1337
SWIDTH 576 0
DWIDTH 8 0
BBX 8 10 0 0
BITMAP
78
84
84
84
9E
A5
A4
A4
A4
98
ENDCHAR
STARTCHAR uni053A
ENCODING 1338
SWIDTH 576 0
DWIDTH 8 0
BBX 8 10 0 0
BITMAP
04
04
04
04
7E
85
84
84
84
78
ENDCHAR
STARTCHAR uni053B
ENCODING 1339
SWIDTH 576 0
DWIDTH 8 0
BBX 7 10 1 0
BITMAP
80
80
80
BC
C2
82
82
80
80
80
ENDCHAR
STARTCHAR uni053C
ENCODING 1340
SWIDTH 576 0
DWIDTH 8 0
BBX 7 12 1 -2
BITMAP
80
80
80
80
80
80
80
80
80
FC
02
04
ENDCHAR
STARTCHAR uni053D
ENCODING 1341
SWIDTH 576 0
DWIDTH 8 0
BBX 8 10 0 0
BITMAP
80
80
80
F1
91
91
91
91
91
8E
ENDCHAR
STARTCHAR uni053E
ENCODING 1342
SWIDTH 576 0
DWIDTH 8 0
BBX 8 11 0 0
BITMAP
80
C6
39
44
82
82
82
82
82
44
38
ENDCHAR
STARTCHAR uni053F
ENCODING 1343
SWIDTH 576 0
DWIDTH 8 0
BBX 7 10 1 0
BITMAP
80
80
82
82
82
86
7A
02
02
02
ENDCHAR
STARTCHAR uni0540
ENCODING 1344
SWIDTH 576 0
DWIDTH 8 0
BBX 6 10 1 0
BITMAP
10
20
30
10
20
40
80
C0
30
0C
ENDCHAR
STARTCHAR uni0541
ENCODING 1345
SWIDTH 576 0
DWIDTH 8 0
BBX 7 10 1 0
BITMAP
38
44
82
82
82
02
02
7C
84
7A
ENDCHAR
STARTCHAR uni0542
ENCODING 1346
SWIDTH 576 0
DWIDTH 8 0
BBX 8 11 0 -1
BITMAP
78
84
84
84
04
04
04
04
04
06
01
ENDCHAR
STARTCHAR uni0543
ENCODING 1347
SWIDTH 576 0
DWIDTH 8 0
BBX 8 10 0 0
BITMAP
06
C9
30
10
28
44
44
82
82
FE
ENDCHAR
STARTCHAR uni0544
ENCODING 1348
SWIDTH 576 0
DWIDTH 8 0
BBX 8 10 0 0
BITMAP
86
85
85
84
84
84
84
84
84
78
ENDCHAR
STARTCHAR uni0545
ENCODING 1349
SWIDTH 576 0
DWIDTH 8 0
BBX 7 10 1 0
BITMAP
38
44
04
78
84
02
02
82
84
78
ENDCHAR
STARTCHAR uni0546
ENCODING 1350
SWIDTH 576 0
DWIDTH 8 0
BBX 8 10 0 0
BITMAP
E0
20
20
20
20
20
21
21
21
1E
ENDCHAR
STARTCHAR uni0547
ENCODING 1351
SWIDTH 576 0
DWIDTH 8 0
BBX 7 10 1 0
BITMAP
C0
30
4C
80
80
80
82
82
44
38
ENDCHAR
STARTCHAR uni0548
ENCODING 1352
SWIDTH 576 0
DWIDTH 8 0
BBX 7 10 1 0
BITMAP
38
44
82
82
82
82
82
82
82
82
ENDCHAR
STARTCHAR uni0549
ENCODING 1353
SWIDTH 576 0
DWIDTH 8 0
BBX 7 10 1 0
BITMAP
38
44
82
82
02
02
04
C8
30
0E
ENDCHAR
STARTCHAR uni054A
ENCODING 1354
SWIDTH 576 0
DWIDTH 8 0
BBX 7 10 1 0
BITMAP
7C
92
92
92
12
12
02
02
02
02
ENDCHAR
STARTCHAR uni054B
ENCODING 1355
SWIDTH 576 0
DWIDTH 8 0
BBX 7 10 1 0
BITMAP
78
84
82
42
22
14
18
90
F8
46
ENDCHAR
STARTCHAR uni054C
ENCODING 1356
SWIDTH 576 0
DWIDTH 8 0
BBX 8 10 0 0
BITMAP
78
84
84
84
86
85
85
84
84
84
ENDCHAR
STARTCHAR uni054D
ENCODING 1357
SWIDTH 576 0
DWIDTH 8 0
BBX 7 10 1 0
BITMAP
82
82
82
82
82
82
82
82
44
38
ENDCHAR
STARTCHAR uni054E
ENCODING 1358
SWIDTH 576 0
DWIDTH 8 0
BBX 8 12 0 -2
BITMAP
04
04
84
84
84
84
7C
04
04
06
01
01
ENDCHAR
STARTCHAR uni054F
ENCODING 1359
SWIDTH 576 0
DWIDTH 8 0
BBX 7 10 1 0
BITMAP
7C
82
80
80
7C
02
02
02
82
7C
ENDCHAR
STARTCHAR uni0550
ENCODING 1360
SWIDTH 576 0
DWIDTH 8 0
BBX 7 10 1 0
BITMAP
38
44
82
82
80
80
80
80
80
80
ENDCHAR
STARTCHAR uni0551
ENCODING 1361
SWIDTH 576 0
DWIDTH 8 0
BBX 7 10 1 0
BITMAP
38
44
44
38
C4
02
02
82
82
7C
ENDCHAR
STARTCHAR uni0552
ENCODING 1362
SWIDTH 576 0
DWIDTH 8 0
BBX 5 10 2 0
BITMAP
80
80
80
F0
88
80
80
80
80
80
ENDCHAR
STARTCHAR uni0553
ENCODING 1363
SWIDTH 576 0
DWIDTH 8 0
BBX 7 10 1 0
BITMAP
10
38
54
92
92
92
92
54
38
10
ENDCHAR
STARTCHAR uni0554
ENCODING 1364
SWIDTH 576 0
DWIDTH 8 0
BBX 8 10 0 0
BITMAP
1E
21
21
21
21
21
3E
A0
7C
22
ENDCHAR
STARTCHAR uni0555
ENCODING 1365
SWIDTH 576 0
DWIDTH 8 0
BBX 8 10 0 0
BITMAP
3C
42
81
81
81
81
81
81
42
3C
ENDCHAR
STARTCHAR uni0556
ENCODING 1366
SWIDTH 576 0
DWIDTH 8 0
BBX 7 10 1 0
BITMAP
70
90
90
90
7C
12
12
92
92
7C
ENDCHAR
STARTCHAR uni0559
ENCODING 1369
SWIDTH 576 0
DWIDTH 8 0
BBX 2 4 3 8
BITMAP
40
80
80
40
ENDCHAR
STARTCHAR uni055A
ENCODING 1370
SWIDTH 576 0
DWIDTH 8 0
BBX 2 4 3 6
BITMAP
C0
C0
40
80
ENDCHAR
STARTCHAR uni055B
ENCODING 1371
SWIDTH 576 0
DWIDTH 8 0
BBX 3 3 3 7
BITMAP
20
40
80
ENDCHAR
STARTCHAR uni055C
ENCODING 1372
SWIDTH 576 0
DWIDTH 8 0
BBX 4 3 2 7
BITMAP
10
60
80
ENDCHAR
STARTCHAR uni055D
ENCODING 1373
SWIDTH 576 0
DWIDTH 8 0
BBX 2 3 3 7
BITMAP
80
80
40
ENDCHAR
STARTCHAR uni055E
ENCODING 1374
SWIDTH 576 0
DWIDTH 8 0
BBX 5 4 2 6
BITMAP
70
88
A8
90
ENDCHAR
STARTCHAR uni055F
ENCODING 1375
SWIDTH 576 0
DWIDTH 8 0
BBX 5 3 2 7
BITMAP
C0
88
70
ENDCHAR
STARTCHAR uni0561
ENCODING 1377
SWIDTH 576 0
DWIDTH 8 0
BBX 7 7 1 0
BITMAP
92
92
92
92
92
92
6E
ENDCHAR
STARTCHAR uni0562
ENCODING 1378
SWIDTH 576 0
DWIDTH 8 0
BBX 6 10 1 -3
BITMAP
78
84
84
84
84
80
FC
80
80
80
ENDCHAR
STARTCHAR uni0563
ENCODING 1379
SWIDTH 576 0
DWIDTH 8 0
BBX 7 10 1 -3
BITMAP
68
98
88
88
88
88
7E
08
08
08
ENDCHAR
STARTCHAR uni0564
ENCODING 1380
SWIDTH 576 0
DWIDTH 8 0
BBX 7 10 1 -3
BITMAP
B0
C8
88
88
88
88
8E
08
08
08
ENDCHAR
STARTCHAR uni0565
ENCODING 1381
SWIDTH 576 0
DWIDTH 8 0
BBX 7 10 1 0
BITMAP
80
80
80
FC
80
84
84
84
84
7A
ENDCHAR
STARTCHAR uni0566
ENCODING 1382
SWIDTH 576 0
DWIDTH 8 0
BBX 7 10 1 -3
BITMAP
68
98
88
88
88
98
68
08
08
0E
ENDCHAR
STARTCHAR uni0567
ENCODING 1383
SWIDTH 576 0
DWIDTH 8 0
BBX 7 12 1 -2
BITMAP
80
80
80
F8
80
80
80
80
80
7C
02
04
ENDCHAR
STARTCHAR uni0568
ENCODING 1384
SWIDTH 576 0
DWIDTH 8 0
BBX 6 10 1 -3
BITMAP
B8
C4
84
84
84
84
84
80
80
FC
ENDCHAR
STARTCHAR uni0569
ENCODING 1385
SWIDTH 576 0
DWIDTH 8 0
BBX 7 10 1 -3
BITMAP
B8
C4
84
9E
A4
A4
98
80
80
80
ENDCHAR
STARTCHAR uni056A
ENCODING 1386
SWIDTH 576 0
DWIDTH 8 0
BBX 7 10 1 0
BITMAP
08
08
08
7E
88
88
88
88
88
70
ENDCHAR
STARTCHAR uni056B
ENCODING 1387
SWIDTH 576 0
DWIDTH 8 0
BBX 6 13 1 -3
BITMAP
80
80
80
B8
C4
84
84
84
84
84
80
80
80
ENDCHAR
STARTCHAR uni056C
ENCODING 1388
SWIDTH 576 0
DWIDTH 8 0
BBX 5 10 2 -3
BITMAP
C0
40
40
40
40
40
40
40
40
38
ENDCHAR
STARTCHAR uni056D
ENCODING 1389
SWIDTH 576 0
DWIDTH 8 0
BBX 8 13 0 -3
BITMAP
80
80
80
80
E2
92
92
92
92
8D
80
80
80
ENDCHAR
STARTCHAR uni056E
ENCODING 1390
SWIDTH 576 0
DWIDTH 8 0
BBX 7 10 1 0
BITMAP
80
40
20
3E
48
84
84
84
84
78
ENDCHAR
STARTCHAR uni056F
ENCODING 1391
SWIDTH 576 0
DWIDTH 8 0
BBX 6 13 1 -3
BITMAP
80
80
80
80
84
84
84
84
8C
74
04
04
04
ENDCHAR
STARTCHAR uni0570
ENCODING 1392
SWIDTH 576 0
DWIDTH 8 0
BBX 6 10 1 0
BITMAP
80
80
80
B8
C4
84
84
84
84
84
ENDCHAR
STARTCHAR uni0571
ENCODING 1393
SWIDTH 576 0
DWIDTH 8 0
BBX 6 10 1 0
BITMAP
10
20
10
78
84
84
84
84
8C
74
ENDCHAR
STARTCHAR uni0572
ENCODING 1394
SWIDTH 576 0
DWIDTH 8 0
BBX 7 10 1 -3
BITMAP
B8
C4
84
84
84
84
84
04
04
06
ENDCHAR
STARTCHAR uni0573
ENCODING 1395
SWIDTH 576 0
DWIDTH 8 0
BBX 7 10 1 0
BITMAP
38
44
40
F8
44
44
44
44
44
7A
ENDCHAR
STARTCHAR uni0574
ENCODING 1396
SWIDTH 576 0
DWIDTH 8 0
BBX 7 10 1 0
BITMAP
0C
12
10
88
88
88
88
88
88
74
ENDCHAR
STARTCHAR uni0575
ENCODING 1397
SWIDTH 576 0
DWIDTH 8 0
BBX 4 10 2 -3
BITMAP
30
10
10
10
10
10
10
10
10
E0
ENDCHAR
STARTCHAR uni0576
ENCODING 1398
SWIDTH 576 0
DWIDTH 8 0
BBX 7 10 1 0
BITMAP
60
80
80
44
44
44
44
44
44
3A
ENDCHAR
STARTCHAR uni0577
ENCODING 1399
SWIDTH 576 0
DWIDTH 8 0
BBX 6 11 1 -3
BITMAP
78
84
04
04
08
10
20
40
80
80
7C
ENDCHAR
STARTCHAR uni0578
ENCODING 1400
SWIDTH 576 0
DWIDTH 8 0
BBX 6 7 1 0
BITMAP
B8
C4
84
84
84
84
84
ENDCHAR
STARTCHAR uni0579
ENCODING 1401
SWIDTH 576 0
DWIDTH 8 0
BBX 7 11 1 -3
BITMAP
10
20
20
10
08
10
20
40
80
80
7E
ENDCHAR
STARTCHAR uni057A
ENCODING 1402
SWIDTH 576 0
DWIDTH 8 0
BBX 7 10 1 -3
BITMAP
92
92
92
92
92
92
6E
02
02
02
ENDCHAR
STARTCHAR uni057B
ENCODING 1403
SWIDTH 576 0
DWIDTH 8 0
BBX 7 11 1 -3
BITMAP
78
84
84
84
44
28
10
20
40
40
3E
ENDCHAR
STARTCHAR uni057C
ENCODING 1404
SWIDTH 576 0
DWIDTH 8 0
BBX 7 7 1 0
BITMAP
BC
C2
82
82
84
88
9C
ENDCHAR
STARTCHAR uni057D
ENCODING 1405
SWIDTH 576 0
DWIDTH 8 0
BBX 6 7 1 0
BITMAP
84
84
84
84
84
8C
74
ENDCHAR
STARTCHAR uni057E
ENCODING 1406
SWIDTH 576 0
DWIDTH 8 0
BBX 7 13 1 -3
BITMAP
04
04
04
04
84
84
84
84
8C
74
04
04
06
ENDCHAR
STARTCHAR uni057F
ENCODING 1407
SWIDTH 576 0
DWIDTH 8 0
BBX 7 10 1 -3
BITMAP
94
9A
92
92
92
B2
52
10
10
10
ENDCHAR
STARTCHAR uni0580
ENCODING 1408
SWIDTH 576 0
DWIDTH 8 0
BBX 6 10 1 -3
BITMAP
B8
C4
84
84
84
84
84
80
80
80
ENDCHAR
STARTCHAR uni0581
ENCODING 1409
SWIDTH 576 0
DWIDTH 8 0
BBX 6 10 1 -3
BITMAP
78
84
84
84
84
7C
04
84
84
78
ENDCHAR
STARTCHAR uni0582
ENCODING 1410
SWIDTH 576 0
DWIDTH 8 0
BBX 5 7 2 0
BITMAP
C0
40
40
40
40
40
38
ENDCHAR
STARTCHAR uni0583
ENCODING 1411
SWIDTH 576 0
DWIDTH 8 0
BBX 7 13 1 -3
BITMAP
10
10
10
94
9A
92
92
92
B2
52
10
10
10
ENDCHAR
STARTCHAR uni0584
ENCODING 1412
SWIDTH 576 0
DWIDTH 8 0
BBX 7 10 1 0
BITMAP
1C
22
22
20
20
F8
20
20
20
20
ENDCHAR
STARTCHAR uni0585
ENCODING 1413
SWIDTH 576 0
DWIDTH 8 0
BBX 7 7 1 0
BITMAP
7C
82
82
82
82
82
7C
ENDCHAR
STARTCHAR uni0586
ENCODING 1414
SWIDTH 576 0
DWIDTH 8 0
BBX 7 13 1 -3
BITMAP
70
90
90
7C
12
92
92
92
92
7C
10
10
10
ENDCHAR
STARTCHAR uni0587
ENCODING 1415
SWIDTH 576 0
DWIDTH 8 0
BBX 7 10 1 0
BITMAP
80
80
80
88
88
88
88
88
88
76
ENDCHAR
STARTCHAR uni0589
ENCODING 1417
SWIDTH 576 0
DWIDTH 8 0
BBX 3 7 2 1
BITMAP
40
E0
40
00
40
E0
40
ENDCHAR
STARTCHAR uni058A
ENCODING 1418
SWIDTH 576 0
DWIDTH 8 0
BBX 5 3 2 4
BITMAP
C0
88
70
ENDCHAR
STARTCHAR uni05B0
ENCODING 1456
SWIDTH 576 0
DWIDTH 8 0
BBX 2 3 3 -3
BITMAP
C0
00
C0
ENDCHAR
STARTCHAR uni05B1
ENCODING 1457
SWIDTH 576 0
DWIDTH 8 0
BBX 8 3 0 -3
BITMAP
DB
00
63
ENDCHAR
STARTCHAR uni05B2
ENCODING 1458
SWIDTH 576 0
DWIDTH 8 0
BBX 8 3 0 -3
BITMAP
FB
00
03
ENDCHAR
STARTCHAR uni05B3
ENCODING 1459
SWIDTH 576 0
DWIDTH 8 0
BBX 8 3 0 -3
BITMAP
FB
20
23
ENDCHAR
STARTCHAR uni05B4
ENCODING 1460
SWIDTH 576 0
DWIDTH 8 0
BBX 2 1 3 -2
BITMAP
C0
ENDCHAR
STARTCHAR uni05B5
ENCODING 1461
SWIDTH 576 0
DWIDTH 8 0
BBX 6 1 1 -2
BITMAP
CC
ENDCHAR
STARTCHAR uni05B6
ENCODING 1462
SWIDTH 576 0
DWIDTH 8 0
BBX 6 3 1 -3
BITMAP
CC
00
30
ENDCHAR
STARTCHAR uni05B7
ENCODING 1463
SWIDTH 576 0
DWIDTH 8 0
BBX 5 1 1 -2
BITMAP
F8
ENDCHAR
STARTCHAR uni05B8
ENCODING 1464
SWIDTH 576 0
DWIDTH 8 0
BBX 5 2 1 -3
BITMAP
F8
20
ENDCHAR
STARTCHAR uni05B9
ENCODING 1465
SWIDTH 576 0
DWIDTH 8 0
BBX 2 1 2 9
BITMAP
C0
ENDCHAR
STARTCHAR uni05BB
ENCODING 1467
SWIDTH 576 0
DWIDTH 8 0
BBX 8 3 0 -3
BITMAP
C0
18
03
ENDCHAR
STARTCHAR uni05BC
ENCODING 1468
SWIDTH 576 0
DWIDTH 8 0
BBX 2 1 3 3
BITMAP
C0
ENDCHAR
STARTCHAR uni05BD
ENCODING 1469
SWIDTH 576 0
DWIDTH 8 0
BBX 1 3 1 -3
BITMAP
80
80
80
ENDCHAR
STARTCHAR uni05BE
ENCODING 1470
SWIDTH 576 0
DWIDTH 8 0
BBX 7 2 1 9
BITMAP
7E
FC
ENDCHAR
STARTCHAR uni05BF
ENCODING 1471
SWIDTH 576 0
DWIDTH 8 0
BBX 5 1 2 9
BITMAP
F8
ENDCHAR
STARTCHAR uni05C0
ENCODING 1472
SWIDTH 576 0
DWIDTH 8 0
BBX 1 9 2 0
BITMAP
80
80
80
80
80
80
80
80
80
ENDCHAR
STARTCHAR uni05C1
ENCODING 1473
SWIDTH 576 0
DWIDTH 8 0
BBX 2 1 5 9
BITMAP
C0
ENDCHAR
STARTCHAR uni05C2
ENCODING 1474
SWIDTH 576 0
DWIDTH 8 0
BBX 2 1 0 9
BITMAP
C0
ENDCHAR
STARTCHAR uni05C3
ENCODING 1475
SWIDTH 576 0
DWIDTH 8 0
BBX 3 7 2 0
BITMAP
40
E0
40
00
40
E0
40
ENDCHAR
STARTCHAR uni05C4
ENCODING 1476
SWIDTH 576 0
DWIDTH 8 0
BBX 2 1 3 9
BITMAP
C0
ENDCHAR
STARTCHAR uni05D0
ENCODING 1488
SWIDTH 576 0
DWIDTH 8 0
BBX 8 9 0 0
BITMAP
84
C7
63
32
DA
8E
46
63
E1
ENDCHAR
STARTCHAR uni05D1
ENCODING 1489
SWIDTH 576 0
DWIDTH 8 0
BBX 8 8 0 0
BITMAP
80
FC
7E
02
02
02
7F
FE
ENDCHAR
STARTCHAR uni05D2
ENCODING 1490
SWIDTH 576 0
DWIDTH 8 0
BBX 5 8 2 0
BITMAP
80
E0
70
10
10
10
78
E8
ENDCHAR
STARTCHAR uni05D3
ENCODING 1491
SWIDTH 576 0
DWIDTH 8 0
BBX 8 8 0 0
BITMAP
80
FF
7F
02
02
02
02
02
ENDCHAR
STARTCHAR uni05D4
ENCODING 1492
SWIDTH 576 0
DWIDTH 8 0
BBX 8 8 0 0
BITMAP
80
FF
7F
02
42
42
42
82
ENDCHAR
STARTCHAR uni05D5
ENCODING 1493
SWIDTH 576 0
DWIDTH 8 0
BBX 4 8 2 0
BITMAP
80
E0
70
10
10
10
10
10
ENDCHAR
STARTCHAR uni05D6
ENCODING 1494
SWIDTH 576 0
DWIDTH 8 0
BBX 5 8 2 0
BITMAP
80
F0
78
20
20
20
20
20
ENDCHAR
STARTCHAR uni05D7
ENCODING 1495
SWIDTH 576 0
DWIDTH 8 0
BBX 8 8 0 0
BITMAP
80
FF
7F
42
42
42
42
82
ENDCHAR
STARTCHAR uni05D8
ENCODING 1496
SWIDTH 576 0
DWIDTH 8 0
BBX 8 8 0 0
BITMAP
80
E3
77
45
41
41
7F
7E
ENDCHAR
STARTCHAR uni05D9
ENCODING 1497
SWIDTH 576 0
DWIDTH 8 0
BBX 4 5 2 3
BITMAP
80
E0
70
10
10
ENDCHAR
STARTCHAR uni05DA
ENCODING 1498
SWIDTH 576 0
DWIDTH 8 0
BBX 8 11 0 -3
BITMAP
80
FE
7F
02
04
04
04
04
04
04
04
ENDCHAR
STARTCHAR uni05DB
ENCODING 1499
SWIDTH 576 0
DWIDTH 8 0
BBX 8 8 0 0
BITMAP
80
FE
7F
01
01
01
7E
FC
ENDCHAR
STARTCHAR uni05DC
ENCODING 1500
SWIDTH 576 0
DWIDTH 8 0
BBX 8 10 0 0
BITMAP
80
40
40
7F
3F
01
01
02
04
18
ENDCHAR
STARTCHAR uni05DD
ENCODING 1501
SWIDTH 576 0
DWIDTH 8 0
BBX 8 8 0 0
BITMAP
80
FE
7F
81
81
81
FF
FF
ENDCHAR
STARTCHAR uni05DE
ENCODING 1502
SWIDTH 576 0
DWIDTH 8 0
BBX 8 8 0 0
BITMAP
80
DE
7F
41
81
81
9F
BE
ENDCHAR
STARTCHAR uni05DF
ENCODING 1503
SWIDTH 576 0
DWIDTH 8 0
BBX 4 12 2 -3
BITMAP
80
E0
70
10
20
20
20
20
20
20
20
20
ENDCHAR
STARTCHAR uni05E0
ENCODING 1504
SWIDTH 576 0
DWIDTH 8 0
BBX 4 8 2 0
BITMAP
80
E0
70
10
10
10
70
F0
ENDCHAR
STARTCHAR uni05E1
ENCODING 1505
SWIDTH 576 0
DWIDTH 8 0
BBX 8 8 0 0
BITMAP
80
FE
7F
41
41
41
7E
3C
ENDCHAR
STARTCHAR uni05E2
ENCODING 1506
SWIDTH 576 0
DWIDTH 8 0
BBX 8 8 0 0
BITMAP
84
E7
73
41
21
11
7E
FC
ENDCHAR
STARTCHAR uni05E3
ENCODING 1507
SWIDTH 576 0
DWIDTH 8 0
BBX 8 11 0 -3
BITMAP
80
FE
7F
82
C4
C4
04
04
04
04
04
ENDCHAR
STARTCHAR uni05E4
ENCODING 1508
SWIDTH 576 0
DWIDTH 8 0
BBX 8 8 0 0
BITMAP
80
FF
7F
41
61
01
7E
FC
ENDCHAR
STARTCHAR uni05E5
ENCODING 1509
SWIDTH 576 0
DWIDTH 8 0
BBX 8 11 0 -3
BITMAP
84
E7
63
24
28
30
20
20
20
20
20
ENDCHAR
STARTCHAR uni05E6
ENCODING 1510
SWIDTH 576 0
DWIDTH 8 0
BBX 8 8 0 0
BITMAP
84
E7
63
24
18
06
7F
FE
ENDCHAR
STARTCHAR uni05E7
ENCODING 1511
SWIDTH 576 0
DWIDTH 8 0
BBX 8 11 0 -3
BITMAP
80
FE
7F
01
21
21
26
28
20
20
20
ENDCHAR
STARTCHAR uni05E8
ENCODING 1512
SWIDTH 576 0
DWIDTH 8 0
BBX 8 8 0 0
BITMAP
80
FE
7F
01
01
01
01
01
ENDCHAR
STARTCHAR uni05E9
ENCODING 1513
SWIDTH 576 0
DWIDTH 8 0
BBX 8 8 0 0
BITMAP
92
DB
49
89
91
A2
FE
7C
ENDCHAR
STARTCHAR uni05EA
ENCODING 1514
SWIDTH 576 0
DWIDTH 8 0
BBX 8 8 0 0
BITMAP
80
FE
7F
21
41
41
61
E1
ENDCHAR
STARTCHAR uni05F0
ENCODING 1520
SWIDTH 576 0
DWIDTH 8 0
BBX 7 8 1 0
BITMAP
88
CC
66
22
22
22
22
22
ENDCHAR
STARTCHAR uni05F1
ENCODING 1521
SWIDTH 576 0
DWIDTH 8 0
BBX 7 8 1 0
BITMAP
88
CC
66
22
02
02
02
02
ENDCHAR
STARTCHAR uni05F2
ENCODING 1522
SWIDTH 576 0
DWIDTH 8 0
BBX 7 4 1 4
BITMAP
88
CC
66
22
ENDCHAR
STARTCHAR uni05F3
ENCODING 1523
SWIDTH 576 0
DWIDTH 8 0
BBX 3 2 4 8
BITMAP
60
C0
ENDCHAR
STARTCHAR uni05F4
ENCODING 1524
SWIDTH 576 0
DWIDTH 8 0
BBX 7 2 1 8
BITMAP
66
CC
ENDCHAR
STARTCHAR uni060C
ENCODING 1548
SWIDTH 333 0
DWIDTH 5 0
BBX 3 4 1 -2
BITMAP
C0
C0
C0
60
ENDCHAR
STARTCHAR uni061B
ENCODING 1563
SWIDTH 576 0
DWIDTH 8 0
BBX 3 7 4 1
BITMAP
60
E0
C0
C0
00
C0
C0
ENDCHAR
STARTCHAR uni061F
ENCODING 1567
SWIDTH 576 0
DWIDTH 8 0
BBX 6 10 1 0
BITMAP
7C
C0
C0
60
30
30
30
00
30
30
ENDCHAR
STARTCHAR uni0621
ENCODING 1569
SWIDTH 576 0
DWIDTH 8 0
BBX 4 4 2 5
BITMAP
30
40
40
F0
ENDCHAR
STARTCHAR uni0622
ENCODING 1570
SWIDTH 400 0
DWIDTH 6 0
BBX 5 12 0 0
BITMAP
68
B0
00
30
30
30
30
30
30
30
30
30
ENDCHAR
STARTCHAR uni0623
ENCODING 1571
SWIDTH 400 0
DWIDTH 6 0
BBX 4 12 1 0
BITMAP
30
40
F0
60
60
60
60
60
60
60
60
60
ENDCHAR
STARTCHAR uni0624
ENCODING 1572
SWIDTH 466 0
DWIDTH 7 0
BBX 6 11 1 -2
BITMAP
18
20
78
00
78
CC
CC
CC
7C
0C
F8
ENDCHAR
STARTCHAR uni0625
ENCODING 1573
SWIDTH 400 0
DWIDTH 6 0
BBX 4 12 1 -3
BITMAP
60
60
60
60
60
60
60
60
60
30
40
F0
ENDCHAR
STARTCHAR uni0626
ENCODING 1574
SWIDTH 576 0
DWIDTH 8 0
BBX 8 9 0 0
BITMAP
0C
10
3C
00
07
CC
C6
C3
7E
ENDCHAR
STARTCHAR uni0627
ENCODING 1575
SWIDTH 400 0
DWIDTH 6 0
BBX 2 9 2 0
BITMAP
C0
C0
C0
C0
C0
C0
C0
C0
C0
ENDCHAR
STARTCHAR uni0628
ENCODING 1576
SWIDTH 576 0
DWIDTH 8 0
BBX 8 7 0 -3
BITMAP
C3
C3
C3
7E
00
18
18
ENDCHAR
STARTCHAR uni0629
ENCODING 1577
SWIDTH 576 0
DWIDTH 8 0
BBX 7 8 1 0
BITMAP
6C
6C
00
7C
C6
C6
C6
7C
ENDCHAR
STARTCHAR uni062A
ENCODING 1578
SWIDTH 576 0
DWIDTH 8 0
BBX 8 7 0 0
BITMAP
6C
6C
00
C3
C3
C3
7E
ENDCHAR
STARTCHAR uni062B
ENCODING 1579
SWIDTH 576 0
DWIDTH 8 0
BBX 8 8 0 0
BITMAP
18
3C
66
00
C3
C3
C3
7E
ENDCHAR
STARTCHAR uni062C
ENCODING 1580
SWIDTH 576 0
DWIDTH 8 0
BBX 8 7 0 -3
BITMAP
FF
38
60
C6
C6
C0
7F
ENDCHAR
STARTCHAR uni062D
ENCODING 1581
SWIDTH 576 0
DWIDTH 8 0
BBX 8 7 0 -3
BITMAP
FF
38
60
C0
C0
C0
7F
ENDCHAR
STARTCHAR uni062E
ENCODING 1582
SWIDTH 576 0
DWIDTH 8 0
BBX 8 10 0 -3
BITMAP
18
18
00
FF
38
60
C0
C0
C0
7F
ENDCHAR
STARTCHAR uni062F
ENCODING 1583
SWIDTH 576 0
DWIDTH 8 0
BBX 7 5 1 0
BITMAP
0C
06
06
C6
7C
ENDCHAR
STARTCHAR uni0630
ENCODING 1584
SWIDTH 576 0
DWIDTH 8 0
BBX 7 8 1 0
BITMAP
0C
0C
00
0C
06
06
C6
7C
ENDCHAR
STARTCHAR uni0631
ENCODING 1585
SWIDTH 576 0
DWIDTH 8 0
BBX 7 6 1 -2
BITMAP
06
06
06
0C
18
F0
ENDCHAR
STARTCHAR uni0632
ENCODING 1586
SWIDTH 576 0
DWIDTH 8 0
BBX 7 9 1 -2
BITMAP
06
06
00
06
06
06
0C
18
F0
ENDCHAR
STARTCHAR uni0633
ENCODING 1587
SWIDTH 666 0
DWIDTH 10 0
BBX 10 6 0 -2
BITMAP
36C0
36C0
36C0
3FC0
3000
E000
ENDCHAR
STARTCHAR uni0634
ENCODING 1588
SWIDTH 666 0
DWIDTH 10 0
BBX 10 10 0 -2
BITMAP
0200
0700
0D80
0000
36C0
36C0
36C0
3FC0
3000
E000
ENDCHAR
STARTCHAR uni0635
ENCODING 1589
SWIDTH 600 0
DWIDTH 9 0
BBX 9 6 0 -2
BITMAP
3700
3D80
3980
3F00
3000
E000
ENDCHAR
STARTCHAR uni0636
ENCODING 1590
SWIDTH 600 0
DWIDTH 9 0
BBX 9 9 0 -2
BITMAP
0C00
0C00
0000
3700
3D80
3980
3F00
3000
E000
ENDCHAR
STARTCHAR uni0637
ENCODING 1591
SWIDTH 666 0
DWIDTH 10 0
BBX 10 10 0 0
BITMAP
1800
1800
1800
1800
1800
1800
1B80
1EC0
18C0
FF80
ENDCHAR
STARTCHAR uni0638
ENCODING 1592
SWIDTH 666 0
DWIDTH 10 0
BBX 10 10 0 0
BITMAP
1800
1800
1800
1B00
1B00
1800
1B80
1EC0
18C0
FF80
ENDCHAR
STARTCHAR uni0639
ENCODING 1593
SWIDTH 576 0
DWIDTH 8 0
BBX 8 7 0 -3
BITMAP
1E
30
30
7F
C0
C0
7F
ENDCHAR
STARTCHAR uni063A
ENCODING 1594
SWIDTH 576 0
DWIDTH 8 0
BBX 8 10 0 -3
BITMAP
0C
0C
00
1E
30
30
7F
C0
C0
7F
ENDCHAR
STARTCHAR uni0640
ENCODING 1600
SWIDTH 576 0
DWIDTH 8 0
BBX 8 1 0 0
BITMAP
FF
ENDCHAR
STARTCHAR uni0641
ENCODING 1601
SWIDTH 576 0
DWIDTH 8 0
BBX 8 9 0 0
BITMAP
06
06
00
0E
1B
1B
0F
C3
7E
ENDCHAR
STARTCHAR uni0642
ENCODING 1602
SWIDTH 576 0
DWIDTH 8 0
BBX 8 10 0 -1
BITMAP
1B
1B
00
0E
1B
1B
0F
C3
C3
7E
ENDCHAR
STARTCHAR uni0643
ENCODING 1603
SWIDTH 576 0
DWIDTH 8 0
BBX 8 10 0 0
BITMAP
03
03
1B
33
1B
33
03
C3
C3
7E
ENDCHAR
STARTCHAR uni0644
ENCODING 1604
SWIDTH 576 0
DWIDTH 8 0
BBX 8 10 0 0
BITMAP
03
03
03
03
03
03
03
C3
C3
7E
ENDCHAR
STARTCHAR uni0645
ENCODING 1605
SWIDTH 576 0
DWIDTH 8 0
BBX 8 8 0 -3
BITMAP
1E
33
33
33
FE
C0
C0
C0
ENDCHAR
STARTCHAR uni0646
ENCODING 1606
SWIDTH 466 0
DWIDTH 7 0
BBX 7 8 0 0
BITMAP
18
18
00
44
C6
C6
C6
7C
ENDCHAR
STARTCHAR uni0647
ENCODING 1607
SWIDTH 466 0
DWIDTH 7 0
BBX 6 5 1 0
BITMAP
78
CC
CC
CC
78
ENDCHAR
STARTCHAR uni0648
ENCODING 1608
SWIDTH 466 0
DWIDTH 7 0
BBX 6 7 1 -2
BITMAP
78
CC
CC
CC
7C
0C
F8
ENDCHAR
STARTCHAR uni0649
ENCODING 1609
SWIDTH 576 0
DWIDTH 8 0
BBX 8 5 0 0
BITMAP
07
CC
C6
C3
7E
ENDCHAR
STARTCHAR uni064A
ENCODING 1610
SWIDTH 576 0
DWIDTH 8 0
BBX 8 8 0 -3
BITMAP
07
CC
C6
C3
7E
00
6C
6C
ENDCHAR
STARTCHAR uni064B
ENCODING 1611
SWIDTH 576 0
DWIDTH 8 0
BBX 3 5 0 7
BITMAP
20
40
A0
40
80
ENDCHAR
STARTCHAR uni064C
ENCODING 1612
SWIDTH 576 0
DWIDTH 8 0
BBX 6 5 0 7
BITMAP
38
AC
B8
E0
80
ENDCHAR
STARTCHAR uni064D
ENCODING 1613
SWIDTH 576 0
DWIDTH 8 0
BBX 3 5 0 -3
BITMAP
20
40
A0
40
80
ENDCHAR
STARTCHAR uni064E
ENCODING 1614
SWIDTH 576 0
DWIDTH 8 0
BBX 3 3 0 9
BITMAP
20
40
80
ENDCHAR
STARTCHAR uni064F
ENCODING 1615
SWIDTH 576 0
DWIDTH 8 0
BBX 4 4 0 8
BITMAP
D0
A0
40
80
ENDCHAR
STARTCHAR uni0650
ENCODING 1616
SWIDTH 576 0
DWIDTH 8 0
BBX 3 3 0 -3
BITMAP
20
40
80
ENDCHAR
STARTCHAR uni0651
ENCODING 1617
SWIDTH 576 0
DWIDTH 8 0
BBX 5 5 0 7
BITMAP
08
28
B8
E0
40
ENDCHAR
STARTCHAR uni0652
ENCODING 1618
SWIDTH 576 0
DWIDTH 8 0
BBX 3 4 2 8
BITMAP
40
A0
A0
40
ENDCHAR
STARTCHAR uni0654
ENCODING 1620
SWIDTH 576 0
DWIDTH 8 0
BBX 4 4 0 8
BITMAP
70
C0
70
C0
ENDCHAR
STARTCHAR uni0655
ENCODING 1621
SWIDTH 576 0
DWIDTH 8 0
BBX 4 4 0 -3
BITMAP
70
C0
70
C0
ENDCHAR
STARTCHAR uni0660
ENCODING 1632
SWIDTH 576 0
DWIDTH 8 0
BBX 3 3 2 4
BITMAP
40
E0
40
ENDCHAR
STARTCHAR uni0661
ENCODING 1633
SWIDTH 576 0
DWIDTH 8 0
BBX 2 9 1 2
BITMAP
80
80
80
C0
40
40
40
40
40
ENDCHAR
STARTCHAR uni0662
ENCODING 1634
SWIDTH 576 0
DWIDTH 8 0
BBX 6 9 1 2
BITMAP
CC
B8
80
C0
40
40
40
40
40
ENDCHAR
STARTCHAR uni0663
ENCODING 1635
SWIDTH 576 0
DWIDTH 8 0
BBX 7 9 1 2
BITMAP
92
B2
FC
40
40
40
40
40
40
ENDCHAR
STARTCHAR uni0664
ENCODING 1636
SWIDTH 576 0
DWIDTH 8 0
BBX 6 9 1 2
BITMAP
78
C0
80
F8
40
80
80
C0
7C
ENDCHAR
STARTCHAR uni0665
ENCODING 1637
SWIDTH 576 0
DWIDTH 8 0
BBX 7 8 1 2
BITMAP
38
6C
C6
82
82
C2
64
38
ENDCHAR
STARTCHAR uni0666
ENCODING 1638
SWIDTH 576 0
DWIDTH 8 0
BBX 7 8 1 2
BITMAP
84
C4
7C
06
02
02
02
02
ENDCHAR
STARTCHAR uni0667
ENCODING 1639
SWIDTH 576 0
DWIDTH 8 0
BBX 7 9 1 2
BITMAP
82
82
44
44
44
28
28
10
10
ENDCHAR
STARTCHAR uni0668
ENCODING 1640
SWIDTH 576 0
DWIDTH 8 0
BBX 6 9 2 2
BITMAP
10
10
30
28
48
4C
84
84
84
ENDCHAR
STARTCHAR uni0669
ENCODING 1641
SWIDTH 576 0
DWIDTH 8 0
BBX 6 9 2 2
BITMAP
70
C8
8C
C4
7C
04
04
04
04
ENDCHAR
STARTCHAR uni066A
ENCODING 1642
SWIDTH 576 0
DWIDTH 8 0
BBX 8 7 0 2
BITMAP
E3
A6
EC
18
37
65
C7
ENDCHAR
STARTCHAR uni067E
ENCODING 1662
SWIDTH 576 0
DWIDTH 8 0
BBX 8 9 0 -3
BITMAP
40
C0
C1
7F
00
77
2A
1C
08
ENDCHAR
STARTCHAR uni0686
ENCODING 1670
SWIDTH 576 0
DWIDTH 8 0
BBX 8 9 0 -3
BITMAP
79
5F
30
60
DB
8E
C4
70
1F
ENDCHAR
STARTCHAR uni068E
ENCODING 1678
SWIDTH 576 0
DWIDTH 8 0
BBX 6 9 2 3
BITMAP
10
38
6C
00
30
18
08
18
F0
ENDCHAR
STARTCHAR uni0697
ENCODING 1687
SWIDTH 576 0
DWIDTH 8 0
BBX 8 11 0 -3
BITMAP
05
0F
05
00
02
02
02
06
0C
38
E0
ENDCHAR
STARTCHAR uni069F
ENCODING 1695
SWIDTH 576 0
DWIDTH 8 0
BBX 8 10 0 2
BITMAP
20
22
27
2D
20
2E
3B
31
E3
7E
ENDCHAR
STARTCHAR uni06A4
ENCODING 1700
SWIDTH 576 0
DWIDTH 8 0
BBX 8 9 0 2
BITMAP
02
07
0D
00
03
04
84
C3
7F
ENDCHAR
STARTCHAR uni06A9
ENCODING 1705
SWIDTH 576 0
DWIDTH 8 0
BBX 8 10 0 2
BITMAP
03
06
0C
18
30
18
0C
06
83
FE
ENDCHAR
STARTCHAR uni06AF
ENCODING 1711
SWIDTH 576 0
DWIDTH 8 0
BBX 8 10 0 2
BITMAP
18
36
2C
18
30
18
0C
06
83
FE
ENDCHAR
STARTCHAR uni0E01
ENCODING 3585
SWIDTH 576 0
DWIDTH 8 0
BBX 7 7 1 0
BITMAP
7C
82
C2
42
42
42
42
ENDCHAR
STARTCHAR uni0E02
ENCODING 3586
SWIDTH 576 0
DWIDTH 8 0
BBX 7 7 1 0
BITMAP
62
D2
B2
52
12
12
0C
ENDCHAR
STARTCHAR uni0E03
ENCODING 3587
SWIDTH 576 0
DWIDTH 8 0
BBX 7 7 1 0
BITMAP
A2
D2
92
52
12
12
0C
ENDCHAR
STARTCHAR uni0E04
ENCODING 3588
SWIDTH 576 0
DWIDTH 8 0
BBX 7 7 1 0
BITMAP
7C
82
92
AA
52
82
82
ENDCHAR
STARTCHAR uni0E05
ENCODING 3589
SWIDTH 576 0
DWIDTH 8 0
BBX 7 7 1 0
BITMAP
6C
92
92
AA
52
82
82
ENDCHAR
STARTCHAR uni0E06
ENCODING 3590
SWIDTH 576 0
DWIDTH 8 0
BBX 7 7 1 0
BITMAP
A2
E2
A2
22
72
AA
44
ENDCHAR
STARTCHAR uni0E07
ENCODING 3591
SWIDTH 576 0
DWIDTH 8 0
BBX 6 7 2 0
BITMAP
08
14
0C
84
44
24
18
ENDCHAR
STARTCHAR uni0E08
ENCODING 3592
SWIDTH 576 0
DWIDTH 8 0
BBX 7 7 1 0
BITMAP
7C
82
12
2A
1A
0A
04
ENDCHAR
STARTCHAR uni0E09
ENCODING 3593
SWIDTH 576 0
DWIDTH 8 0
BBX 7 7 1 0
BITMAP
78
84
44
A4
66
2C
12
ENDCHAR
STARTCHAR uni0E0A
ENCODING 3594
SWIDTH 576 0
DWIDTH 8 0
BBX 7 8 1 0
BITMAP
02
62
D4
B2
52
12
12
0C
ENDCHAR
STARTCHAR uni0E0B
ENCODING 3595
SWIDTH 576 0
DWIDTH 8 0
BBX 7 8 1 0
BITMAP
02
A2
D4
92
52
12
12
0C
ENDCHAR
STARTCHAR uni0E0C
ENCODING 3596
SWIDTH 576 0
DWIDTH 8 0
BBX 7 7 1 0
BITMAP
72
8A
4A
8A
8A
DE
DA
ENDCHAR
STARTCHAR uni0E0D
ENCODING 3597
SWIDTH 576 0
DWIDTH 8 0
BBX 7 9 1 -2
BITMAP
62
92
52
92
92
D2
CC
00
0E
ENDCHAR
STARTCHAR uni0E0E
ENCODING 3598
SWIDTH 576 0
DWIDTH 8 0
BBX 8 10 0 -3
BITMAP
3E
41
61
21
61
A1
49
3D
4B
30
ENDCHAR
STARTCHAR uni0E0F
ENCODING 3599
SWIDTH 576 0
DWIDTH 8 0
BBX 8 10 0 -3
BITMAP
3E
41
61
21
61
A1
51
35
5B
20
ENDCHAR
STARTCHAR uni0E10
ENCODING 3600
SWIDTH 576 0
DWIDTH 8 0
BBX 7 10 1 -3
BITMAP
7A
84
FC
12
2A
1A
04
66
AA
56
ENDCHAR
STARTCHAR uni0E11
ENCODING 3601
SWIDTH 576 0
DWIDTH 8 0
BBX 8 7 0 0
BITMAP
A6
E9
A9
31
31
21
21
ENDCHAR
STARTCHAR uni0E12
ENCODING 3602
SWIDTH 576 0
DWIDTH 8 0
BBX 7 7 1 0
BITMAP
52
AA
8A
EA
AA
DE
9A
ENDCHAR
STARTCHAR uni0E13
ENCODING 3603
SWIDTH 576 0
DWIDTH 8 0
BBX 7 7 1 0
BITMAP
64
94
54
94
96
DC
D2
ENDCHAR
STARTCHAR uni0E14
ENCODING 3604
SWIDTH 576 0
DWIDTH 8 0
BBX 7 7 1 0
BITMAP
7C
82
92
AA
92
A2
42
ENDCHAR
STARTCHAR uni0E15
ENCODING 3605
SWIDTH 576 0
DWIDTH 8 0
BBX 7 7 1 0
BITMAP
6C
92
92
AA
92
A2
42
ENDCHAR
STARTCHAR uni0E16
ENCODING 3606
SWIDTH 576 0
DWIDTH 8 0
BBX 7 7 1 0
BITMAP
7C
82
C2
42
62
52
22
ENDCHAR
STARTCHAR uni0E17
ENCODING 3607
SWIDTH 576 0
DWIDTH 8 0
BBX 8 7 0 0
BITMAP
46
A9
69
31
31
21
21
ENDCHAR
STARTCHAR uni0E18
ENCODING 3608
SWIDTH 576 0
DWIDTH 8 0
BBX 7 7 1 0
BITMAP
7A
84
FC
42
42
42
3C
ENDCHAR
STARTCHAR uni0E19
ENCODING 3609
SWIDTH 576 0
DWIDTH 8 0
BBX 8 7 0 0
BITMAP
42
A2
62
22
27
2A
31
ENDCHAR
STARTCHAR uni0E1A
ENCODING 3610
SWIDTH 576 0
DWIDTH 8 0
BBX 8 7 0 0
BITMAP
41
A1
61
21
21
21
1E
ENDCHAR
STARTCHAR uni0E1B
ENCODING 3611
SWIDTH 576 0
DWIDTH 8 0
BBX 8 9 0 0
BITMAP
01
01
41
A1
61
21
21
21
1E
ENDCHAR
STARTCHAR uni0E1C
ENCODING 3612
SWIDTH 576 0
DWIDTH 8 0
BBX 7 7 1 0
BITMAP
42
A2
C2
82
92
92
6C
ENDCHAR
STARTCHAR uni0E1D
ENCODING 3613
SWIDTH 576 0
DWIDTH 8 0
BBX 7 9 1 0
BITMAP
02
02
42
A2
C2
82
92
92
6C
ENDCHAR
STARTCHAR uni0E1E
ENCODING 3614
SWIDTH 576 0
DWIDTH 8 0
BBX 8 7 0 0
BITMAP
41
A1
6D
2D
33
33
21
ENDCHAR
STARTCHAR uni0E1F
ENCODING 3615
SWIDTH 576 0
DWIDTH 8 0
BBX 8 9 0 0
BITMAP
01
01
41
A1
6D
2D
33
33
21
ENDCHAR
STARTCHAR uni0E20
ENCODING 3616
SWIDTH 576 0
DWIDTH 8 0
BBX 8 7 0 0
BITMAP
3E
41
61
21
61
A1
41
ENDCHAR
STARTCHAR uni0E21
ENCODING 3617
SWIDTH 576 0
DWIDTH 8 0
BBX 7 7 1 0
BITMAP
42
A2
62
22
72
AA
44
ENDCHAR
STARTCHAR uni0E22
ENCODING 3618
SWIDTH 576 0
DWIDTH 8 0
BBX 7 7 1 0
BITMAP
42
A2
C2
62
82
82
7C
ENDCHAR
STARTCHAR uni0E23
ENCODING 3619
SWIDTH 576 0
DWIDTH 8 0
BBX 7 7 1 0
BITMAP
7A
84
F8
04
0C
14
08
ENDCHAR
STARTCHAR uni0E24
ENCODING 3620
SWIDTH 576 0
DWIDTH 8 0
BBX 7 9 1 -2
BITMAP
7C
82
C2
42
62
52
22
02
02
ENDCHAR
STARTCHAR uni0E25
ENCODING 3621
SWIDTH 576 0
DWIDTH 8 0
BBX 7 7 1 0
BITMAP
7C
82
72
8A
C6
A2
42
ENDCHAR
STARTCHAR uni0E26
ENCODING 3622
SWIDTH 576 0
DWIDTH 8 0
BBX 8 9 0 -2
BITMAP
3E
41
61
21
61
A1
41
01
01
ENDCHAR
STARTCHAR uni0E27
ENCODING 3623
SWIDTH 576 0
DWIDTH 8 0
BBX 7 7 1 0
BITMAP
7C
82
02
02
06
0A
04
ENDCHAR
STARTCHAR uni0E28
ENCODING 3624
SWIDTH 576 0
DWIDTH 8 0
BBX 7 8 1 0
BITMAP
02
7C
82
92
AA
52
82
82
ENDCHAR
STARTCHAR uni0E29
ENCODING 3625
SWIDTH 576 0
DWIDTH 8 0
BBX 8 7 0 0
BITMAP
41
A5
6B
27
21
21
1E
ENDCHAR
STARTCHAR uni0E2A
ENCODING 3626
SWIDTH 576 0
DWIDTH 8 0
BBX 7 8 1 0
BITMAP
02
7C
82
72
8A
C6
A2
42
ENDCHAR
STARTCHAR uni0E2B
ENCODING 3627
SWIDTH 576 0
DWIDTH 8 0
BBX 8 7 0 0
BITMAP
42
A5
62
25
29
31
21
ENDCHAR
STARTCHAR uni0E2C
ENCODING 3628
SWIDTH 576 0
DWIDTH 8 0
BBX 8 8 0 0
BITMAP
01
46
A1
6D
2D
33
33
21
ENDCHAR
STARTCHAR uni0E2D
ENCODING 3629
SWIDTH 576 0
DWIDTH 8 0
BBX 7 7 1 0
BITMAP
7C
82
42
A2
C2
82
7C
ENDCHAR
STARTCHAR uni0E2E
ENCODING 3630
SWIDTH 576 0
DWIDTH 8 0
BBX 7 8 1 0
BITMAP
02
7E
86
7A
42
A2
C2
7C
ENDCHAR
STARTCHAR uni0E2F
ENCODING 3631
SWIDTH 576 0
DWIDTH 8 0
BBX 7 7 1 0
BITMAP
46
AA
72
02
02
02
02
ENDCHAR
STARTCHAR uni0E30
ENCODING 3632
SWIDTH 576 0
DWIDTH 8 0
BBX 7 7 1 0
BITMAP
42
A4
78
00
42
A4
78
ENDCHAR
STARTCHAR uni0E31
ENCODING 3633
SWIDTH 576 0
DWIDTH 8 0
BBX 6 2 2 8
BITMAP
C0
FC
ENDCHAR
STARTCHAR uni0E32
ENCODING 3634
SWIDTH 576 0
DWIDTH 8 0
BBX 7 7 1 0
BITMAP
7C
82
02
02
02
02
02
ENDCHAR
STARTCHAR uni0E33
ENCODING 3635
SWIDTH 576 0
DWIDTH 8 0
BBX 8 9 0 0
BITMAP
40
A0
4E
11
01
01
01
01
01
ENDCHAR
STARTCHAR uni0E34
ENCODING 3636
SWIDTH 576 0
DWIDTH 8 0
BBX 7 1 1 8
BITMAP
FE
ENDCHAR
STARTCHAR uni0E35
ENCODING 3637
SWIDTH 576 0
DWIDTH 8 0
BBX 7 2 1 8
BITMAP
02
FE
ENDCHAR
STARTCHAR uni0E36
ENCODING 3638
SWIDTH 576 0
DWIDTH 8 0
BBX 7 2 1 8
BITMAP
06
FE
ENDCHAR
STARTCHAR uni0E37
ENCODING 3639
SWIDTH 576 0
DWIDTH 8 0
BBX 7 2 1 8
BITMAP
0A
FE
ENDCHAR
STARTCHAR uni0E38
ENCODING 3640
SWIDTH 576 0
DWIDTH 8 0
BBX 2 3 6 -3
BITMAP
C0
C0
40
ENDCHAR
STARTCHAR uni0E39
ENCODING 3641
SWIDTH 576 0
DWIDTH 8 0
BBX 4 3 4 -3
BITMAP
D0
D0
70
ENDCHAR
STARTCHAR uni0E3A
ENCODING 3642
SWIDTH 576 0
DWIDTH 8 0
BBX 2 2 6 -3
BITMAP
C0
C0
ENDCHAR
STARTCHAR uni0E3F
ENCODING 3647
SWIDTH 576 0
DWIDTH 8 0
BBX 7 10 1 0
BITMAP
10
FC
52
52
7C
52
52
52
FC
10
ENDCHAR
STARTCHAR uni0E40
ENCODING 3648
SWIDTH 576 0
DWIDTH 8 0
BBX 3 7 3 0
BITMAP
80
80
80
80
C0
A0
40
ENDCHAR
STARTCHAR uni0E41
ENCODING 3649
SWIDTH 576 0
DWIDTH 8 0
BBX 7 7 1 0
BITMAP
88
88
88
88
CC
AA
44
ENDCHAR
STARTCHAR uni0E42
ENCODING 3650
SWIDTH 576 0
DWIDTH 8 0
BBX 7 9 1 0
BITMAP
7A
84
F8
08
08
08
0C
0A
04
ENDCHAR
STARTCHAR uni0E43
ENCODING 3651
SWIDTH 576 0
DWIDTH 8 0
BBX 7 10 1 0
BITMAP
70
C8
A8
48
08
08
08
0C
0A
04
ENDCHAR
STARTCHAR uni0E44
ENCODING 3652
SWIDTH 576 0
DWIDTH 8 0
BBX 8 9 0 0
BITMAP
8C
54
24
04
04
04
06
05
02
ENDCHAR
STARTCHAR uni0E45
ENCODING 3653
SWIDTH 576 0
DWIDTH 8 0
BBX 7 9 1 -2
BITMAP
7C
82
02
02
02
02
02
02
02
ENDCHAR
STARTCHAR uni0E46
ENCODING 3654
SWIDTH 576 0
DWIDTH 8 0
BBX 7 10 1 -3
BITMAP
6C
92
C2
A2
42
02
02
02
02
04
ENDCHAR
STARTCHAR uni0E47
ENCODING 3655
SWIDTH 576 0
DWIDTH 8 0
BBX 7 4 1 8
BITMAP
02
7C
92
6C
ENDCHAR
STARTCHAR uni0E48
ENCODING 3656
SWIDTH 576 0
DWIDTH 8 0
BBX 1 2 6 10
BITMAP
80
80
ENDCHAR
STARTCHAR uni0E49
ENCODING 3657
SWIDTH 576 0
DWIDTH 8 0
BBX 6 2 2 10
BITMAP
44
F8
ENDCHAR
STARTCHAR uni0E4A
ENCODING 3658
SWIDTH 576 0
DWIDTH 8 0
BBX 7 2 1 10
BITMAP
DA
AC
ENDCHAR
STARTCHAR uni0E4B
ENCODING 3659
SWIDTH 576 0
DWIDTH 8 0
BBX 3 3 4 9
BITMAP
40
E0
40
ENDCHAR
STARTCHAR uni0E4C
ENCODING 3660
SWIDTH 576 0
DWIDTH 8 0
BBX 6 2 2 10
BITMAP
FC
C0
ENDCHAR
STARTCHAR uni0E4D
ENCODING 3661
SWIDTH 576 0
DWIDTH 8 0
BBX 2 2 4 8
BITMAP
C0
C0
ENDCHAR
STARTCHAR uni0E4E
ENCODING 3662
SWIDTH 576 0
DWIDTH 8 0
BBX 5 4 3 8
BITMAP
38
60
80
60
ENDCHAR
STARTCHAR uni0E4F
ENCODING 3663
SWIDTH 576 0
DWIDTH 8 0
BBX 7 7 1 0
BITMAP
38
44
92
AA
92
44
38
ENDCHAR
STARTCHAR uni0E50
ENCODING 3664
SWIDTH 576 0
DWIDTH 8 0
BBX 7 7 1 0
BITMAP
38
44
82
82
82
44
38
ENDCHAR
STARTCHAR uni0E51
ENCODING 3665
SWIDTH 576 0
DWIDTH 8 0
BBX 7 7 1 0
BITMAP
38
44
A2
D2
62
04
38
ENDCHAR
STARTCHAR uni0E52
ENCODING 3666
SWIDTH 576 0
DWIDTH 8 0
BBX 8 8 0 0
BITMAP
80
4A
55
59
55
49
41
3E
ENDCHAR
STARTCHAR uni0E53
ENCODING 3667
SWIDTH 576 0
DWIDTH 8 0
BBX 7 7 1 0
BITMAP
6C
92
92
92
C2
A2
42
ENDCHAR
STARTCHAR uni0E54
ENCODING 3668
SWIDTH 576 0
DWIDTH 8 0
BBX 7 7 1 0
BITMAP
3E
40
88
94
98
4C
3E
ENDCHAR
STARTCHAR uni0E55
ENCODING 3669
SWIDTH 576 0
DWIDTH 8 0
BBX 7 9 1 0
BITMAP
08
14
3E
40
88
94
98
4C
3E
ENDCHAR
STARTCHAR uni0E56
ENCODING 3670
SWIDTH 576 0
DWIDTH 8 0
BBX 8 8 0 0
BITMAP
80
5C
22
01
01
11
2A
1C
ENDCHAR
STARTCHAR uni0E57
ENCODING 3671
SWIDTH 576 0
DWIDTH 8 0
BBX 8 8 0 0
BITMAP
01
69
95
95
95
C5
A5
46
ENDCHAR
STARTCHAR uni0E58
ENCODING 3672
SWIDTH 576 0
DWIDTH 8 0
BBX 7 7 1 0
BITMAP
3E
40
84
8A
86
72
2C
ENDCHAR
STARTCHAR uni0E59
ENCODING 3673
SWIDTH 576 0
DWIDTH 8 0
BBX 7 7 1 0
BITMAP
04
6A
98
88
A8
54
24
ENDCHAR
STARTCHAR uni0E5A
ENCODING 3674
SWIDTH 576 0
DWIDTH 8 0
BBX 7 7 1 0
BITMAP
D4
EA
0A
0A
0A
0A
14
ENDCHAR
STARTCHAR uni0E5B
ENCODING 3675
SWIDTH 576 0
DWIDTH 8 0
BBX 7 6 1 0
BITMAP
40
A0
AA
AC
90
60
ENDCHAR
STARTCHAR uni0E81
ENCODING 3713
SWIDTH 576 0
DWIDTH 8 0
BBX 8 7 0 0
BITMAP
46
A9
71
21
61
A1
61
ENDCHAR
STARTCHAR uni0E82
ENCODING 3714
SWIDTH 576 0
DWIDTH 8 0
BBX 8 8 0 0
BITMAP
1C
62
A1
42
0C
70
8E
71
ENDCHAR
STARTCHAR uni0E84
ENCODING 3716
SWIDTH 576 0
DWIDTH 8 0
BBX 7 7 1 0
BITMAP
7C
82
42
32
42
A2
62
ENDCHAR
STARTCHAR uni0E87
ENCODING 3719
SWIDTH 576 0
DWIDTH 8 0
BBX 5 7 2 0
BITMAP
70
88
C8
08
08
88
70
ENDCHAR
STARTCHAR uni0E88
ENCODING 3720
SWIDTH 576 0
DWIDTH 8 0
BBX 7 7 1 0
BITMAP
3C
42
82
1A
06
02
04
ENDCHAR
STARTCHAR uni0E8A
ENCODING 3722
SWIDTH 576 0
DWIDTH 8 0
BBX 8 10 0 -3
BITMAP
7E
A1
41
06
78
87
79
01
01
01
ENDCHAR
STARTCHAR uni0E8D
ENCODING 3725
SWIDTH 576 0
DWIDTH 8 0
BBX 7 7 1 0
BITMAP
42
A2
C2
A2
42
82
7C
ENDCHAR
STARTCHAR uni0E94
ENCODING 3732
SWIDTH 576 0
DWIDTH 8 0
BBX 7 7 1 0
BITMAP
7C
82
82
82
C2
A2
42
ENDCHAR
STARTCHAR uni0E95
ENCODING 3733
SWIDTH 576 0
DWIDTH 8 0
BBX 7 7 1 0
BITMAP
6C
92
92
82
C2
A2
42
ENDCHAR
STARTCHAR uni0E96
ENCODING 3734
SWIDTH 576 0
DWIDTH 8 0
BBX 8 9 0 -2
BITMAP
44
AA
51
41
61
51
21
01
01
ENDCHAR
STARTCHAR uni0E97
ENCODING 3735
SWIDTH 576 0
DWIDTH 8 0
BBX 8 7 0 0
BITMAP
46
A9
69
29
49
49
31
ENDCHAR
STARTCHAR uni0E99
ENCODING 3737
SWIDTH 576 0
DWIDTH 8 0
BBX 8 7 0 0
BITMAP
41
A1
61
21
61
B1
6E
ENDCHAR
STARTCHAR uni0E9A
ENCODING 3738
SWIDTH 576 0
DWIDTH 8 0
BBX 8 7 0 0
BITMAP
41
A1
61
21
41
41
3E
ENDCHAR
STARTCHAR uni0E9B
ENCODING 3739
SWIDTH 576 0
DWIDTH 8 0
BBX 8 9 0 0
BITMAP
01
01
41
A1
61
21
41
22
1C
ENDCHAR
STARTCHAR uni0E9C
ENCODING 3740
SWIDTH 576 0
DWIDTH 8 0
BBX 8 7 0 0
BITMAP
45
AA
C6
82
92
92
6C
ENDCHAR
STARTCHAR uni0E9D
ENCODING 3741
SWIDTH 576 0
DWIDTH 8 0
BBX 7 9 1 0
BITMAP
02
02
42
A2
C2
82
92
92
6C
ENDCHAR
STARTCHAR uni0E9E
ENCODING 3742
SWIDTH 576 0
DWIDTH 8 0
BBX 8 7 0 0
BITMAP
41
A1
61
21
49
49
36
ENDCHAR
STARTCHAR uni0E9F
ENCODING 3743
SWIDTH 576 0
DWIDTH 8 0
BBX 8 8 0 0
BITMAP
01
41
A1
61
21
49
49
36
ENDCHAR
STARTCHAR uni0EA1
ENCODING 3745
SWIDTH 576 0
DWIDTH 8 0
BBX 8 7 0 0
BITMAP
21
21
21
21
71
A9
46
ENDCHAR
STARTCHAR uni0EA2
ENCODING 3746
SWIDTH 576 0
DWIDTH 8 0
BBX 7 9 1 0
BITMAP
02
02
42
A2
42
42
82
44
38
ENDCHAR
STARTCHAR uni0EA3
ENCODING 3747
SWIDTH 576 0
DWIDTH 8 0
BBX 8 7 0 0
BITMAP
7E
81
78
06
61
91
7E
ENDCHAR
STARTCHAR uni0EA5
ENCODING 3749
SWIDTH 576 0
DWIDTH 8 0
BBX 8 7 0 0
BITMAP
7C
82
01
01
71
A9
46
ENDCHAR
STARTCHAR uni0EA7
ENCODING 3751
SWIDTH 576 0
DWIDTH 8 0
BBX 6 7 1 0
BITMAP
78
84
04
04
44
A4
78
ENDCHAR
STARTCHAR uni0EAA
ENCODING 3754
SWIDTH 576 0
DWIDTH 8 0
BBX 7 8 1 0
BITMAP
72
8E
8A
72
02
62
B2
4C
ENDCHAR
STARTCHAR uni0EAB
ENCODING 3755
SWIDTH 576 0
DWIDTH 8 0
BBX 8 7 0 0
BITMAP
44
AA
AD
69
49
49
31
ENDCHAR
STARTCHAR uni0EAD
ENCODING 3757
SWIDTH 576 0
DWIDTH 8 0
BBX 7 7 1 0
BITMAP
7C
82
7E
02
42
A2
7C
ENDCHAR
STARTCHAR uni0EAE
ENCODING 3758
SWIDTH 576 0
DWIDTH 8 0
BBX 7 8 1 0
BITMAP
06
78
80
78
04
C2
A4
78
ENDCHAR
STARTCHAR uni0EAF
ENCODING 3759
SWIDTH 576 0
DWIDTH 8 0
BBX 8 9 0 0
BITMAP
20
50
A3
85
89
71
02
24
18
ENDCHAR
STARTCHAR uni0EB0
ENCODING 3760
SWIDTH 576 0
DWIDTH 8 0
BBX 7 7 1 0
BITMAP
42
A2
7C
00
42
A2
7C
ENDCHAR
STARTCHAR uni0EB1
ENCODING 3761
SWIDTH 576 0
DWIDTH 8 0
BBX 7 3 1 8
BITMAP
40
A2
7C
ENDCHAR
STARTCHAR uni0EB2
ENCODING 3762
SWIDTH 576 0
DWIDTH 8 0
BBX 5 7 1 0
BITMAP
70
A8
48
08
08
08
08
ENDCHAR
STARTCHAR uni0EB3
ENCODING 3763
SWIDTH 576 0
DWIDTH 8 0
BBX 7 9 0 0
BITMAP
40
A0
4C
16
0A
02
02
02
02
ENDCHAR
STARTCHAR uni0EB4
ENCODING 3764
SWIDTH 576 0
DWIDTH 8 0
BBX 7 4 1 8
BITMAP
7C
82
82
44
ENDCHAR
STARTCHAR uni0EB5
ENCODING 3765
SWIDTH 576 0
DWIDTH 8 0
BBX 7 4 1 8
BITMAP
78
84
84
4E
ENDCHAR
STARTCHAR uni0EB6
ENCODING 3766
SWIDTH 576 0
DWIDTH 8 0
BBX 7 4 1 8
BITMAP
7C
82
92
44
ENDCHAR
STARTCHAR uni0EB7
ENCODING 3767
SWIDTH 576 0
DWIDTH 8 0
BBX 8 4 0 8
BITMAP
7C
82
92
47
ENDCHAR
STARTCHAR uni0EB8
ENCODING 3768
SWIDTH 576 0
DWIDTH 8 0
BBX 2 3 3 -3
BITMAP
C0
C0
40
ENDCHAR
STARTCHAR uni0EB9
ENCODING 3769
SWIDTH 576 0
DWIDTH 8 0
BBX 4 3 2 -3
BITMAP
D0
50
20
ENDCHAR
STARTCHAR uni0EBB
ENCODING 3771
SWIDTH 576 0
DWIDTH 8 0
BBX 8 3 0 8
BITMAP
7E
91
60
ENDCHAR
STARTCHAR uni0EBC
ENCODING 3772
SWIDTH 576 0
DWIDTH 8 0
BBX 8 3 0 -3
BITMAP
78
97
60
ENDCHAR
STARTCHAR uni0EBD
ENCODING 3773
SWIDTH 576 0
DWIDTH 8 0
BBX 8 10 0 0
BITMAP
18
25
12
48
A4
62
22
22
22
1C
ENDCHAR
STARTCHAR uni0EC0
ENCODING 3776
SWIDTH 576 0
DWIDTH 8 0
BBX 3 8 2 0
BITMAP
60
80
80
80
80
C0
A0
40
ENDCHAR
STARTCHAR uni0EC1
ENCODING 3777
SWIDTH 576 0
DWIDTH 8 0
BBX 7 8 1 0
BITMAP
66
88
88
88
88
CC
AA
44
ENDCHAR
STARTCHAR uni0EC2
ENCODING 3778
SWIDTH 576 0
DWIDTH 8 0
BBX 6 10 1 0
BITMAP
70
88
88
60
10
10
10
18
14
18
ENDCHAR
STARTCHAR uni0EC3
ENCODING 3779
SWIDTH 576 0
DWIDTH 8 0
BBX 8 9 0 0
BITMAP
3C
52
92
64
04
04
06
05
06
ENDCHAR
STARTCHAR uni0EC4
ENCODING 3780
SWIDTH 576 0
DWIDTH 8 0
BBX 7 9 1 0
BITMAP
88
54
24
04
08
08
0C
0A
04
ENDCHAR
STARTCHAR uni0EC6
ENCODING 3782
SWIDTH 576 0
DWIDTH 8 0
BBX 7 7 1 0
BITMAP
74
AA
4A
02
02
82
7C
ENDCHAR
STARTCHAR uni0EC8
ENCODING 3784
SWIDTH 576 0
DWIDTH 8 0
BBX 1 3 4 8
BITMAP
80
80
80
ENDCHAR
STARTCHAR uni0EC9
ENCODING 3785
SWIDTH 576 0
DWIDTH 8 0
BBX 7 4 1 8
BITMAP
40
A0
62
FC
ENDCHAR
STARTCHAR uni0ECA
ENCODING 3786
SWIDTH 576 0
DWIDTH 8 0
BBX 8 4 0 8
BITMAP
6C
92
92
47
ENDCHAR
STARTCHAR uni0ECB
ENCODING 3787
SWIDTH 576 0
DWIDTH 8 0
BBX 5 5 2 7
BITMAP
20
20
F8
20
20
ENDCHAR
STARTCHAR uni0ECC
ENCODING 3788
SWIDTH 576 0
DWIDTH 8 0
BBX 7 3 1 9
BITMAP
70
AA
44
ENDCHAR
STARTCHAR uni0ECD
ENCODING 3789
SWIDTH 576 0
DWIDTH 8 0
BBX 4 4 3 8
BITMAP
60
90
90
60
ENDCHAR
STARTCHAR uni0ED0
ENCODING 3792
SWIDTH 576 0
DWIDTH 8 0
BBX 7 7 1 0
BITMAP
38
44
82
82
82
44
38
ENDCHAR
STARTCHAR uni0ED1
ENCODING 3793
SWIDTH 576 0
DWIDTH 8 0
BBX 7 7 1 0
BITMAP
38
44
A2
D2
62
04
38
ENDCHAR
STARTCHAR uni0ED2
ENCODING 3794
SWIDTH 576 0
DWIDTH 8 0
BBX 7 9 1 0
BITMAP
04
08
10
20
44
8A
86
42
3C
ENDCHAR
STARTCHAR uni0ED3
ENCODING 3795
SWIDTH 576 0
DWIDTH 8 0
BBX 8 10 0 0
BITMAP
18
25
12
08
24
22
22
62
A2
5C
ENDCHAR
STARTCHAR uni0ED4
ENCODING 3796
SWIDTH 576 0
DWIDTH 8 0
BBX 8 9 0 0
BITMAP
01
01
3E
40
88
94
8C
42
3F
ENDCHAR
STARTCHAR uni0ED5
ENCODING 3797
SWIDTH 576 0
DWIDTH 8 0
BBX 8 9 0 0
BITMAP
08
15
3E
40
88
94
9C
42
3F
ENDCHAR
STARTCHAR uni0ED6
ENCODING 3798
SWIDTH 576 0
DWIDTH 8 0
BBX 8 9 0 0
BITMAP
0D
12
4C
A2
C2
82
92
92
6C
ENDCHAR
STARTCHAR uni0ED7
ENCODING 3799
SWIDTH 576 0
DWIDTH 8 0
BBX 8 9 0 -2
BITMAP
46
A9
71
21
61
A1
61
01
01
ENDCHAR
STARTCHAR uni0ED8
ENCODING 3800
SWIDTH 576 0
DWIDTH 8 0
BBX 8 7 0 0
BITMAP
76
A9
49
01
3B
45
3A
ENDCHAR
STARTCHAR uni0ED9
ENCODING 3801
SWIDTH 576 0
DWIDTH 8 0
BBX 8 7 0 0
BITMAP
72
89
89
89
C9
A9
46
ENDCHAR
STARTCHAR uni0EDC
ENCODING 3804
SWIDTH 576 0
DWIDTH 8 0
BBX 8 7 0 0
BITMAP
48
B6
6A
2A
4A
4A
33
ENDCHAR
STARTCHAR uni0EDD
ENCODING 3805
SWIDTH 576 0
DWIDTH 8 0
BBX 8 7 0 0
BITMAP
48
B6
6A
2A
4E
5A
25
ENDCHAR
STARTCHAR uni10A0
ENCODING 4256
SWIDTH 576 0
DWIDTH 8 0
BBX 7 10 1 0
BITMAP
FC
22
40
80
80
80
80
80
42
3C
ENDCHAR
STARTCHAR uni10A1
ENCODING 4257
SWIDTH 576 0
DWIDTH 8 0
BBX 8 11 0 -1
BITMAP
48
88
88
88
98
68
08
08
08
0F
01
ENDCHAR
STARTCHAR uni10A2
ENCODING 4258
SWIDTH 576 0
DWIDTH 8 0
BBX 8 11 0 -1
BITMAP
F8
88
88
08
08
08
08
08
08
0F
01
ENDCHAR
STARTCHAR uni10A3
ENCODING 4259
SWIDTH 576 0
DWIDTH 8 0
BBX 7 11 1 0
BITMAP
80
FE
12
28
44
82
82
82
82
44
38
ENDCHAR
STARTCHAR uni10A4
ENCODING 4260
SWIDTH 576 0
DWIDTH 8 0
BBX 6 10 1 0
BITMAP
FC
84
84
04
04
04
04
04
04
04
ENDCHAR
STARTCHAR uni10A5
ENCODING 4261
SWIDTH 576 0
DWIDTH 8 0
BBX 8 10 0 0
BITMAP
F8
88
88
08
0F
09
08
08
08
08
ENDCHAR
STARTCHAR uni10A6
ENCODING 4262
SWIDTH 576 0
DWIDTH 8 0
BBX 7 10 1 0
BITMAP
E0
20
20
2C
32
22
22
22
22
1C
ENDCHAR
STARTCHAR uni10A7
ENCODING 4263
SWIDTH 576 0
DWIDTH 8 0
BBX 8 10 0 0
BITMAP
3C
44
84
84
87
85
84
84
44
3C
ENDCHAR
STARTCHAR uni10A8
ENCODING 4264
SWIDTH 576 0
DWIDTH 8 0
BBX 6 10 1 0
BITMAP
FC
04
04
04
04
04
04
04
04
04
ENDCHAR
STARTCHAR uni10A9
ENCODING 4265
SWIDTH 576 0
DWIDTH 8 0
BBX 7 10 1 0
BITMAP
80
80
BC
C2
82
82
86
7A
02
02
ENDCHAR
STARTCHAR uni10AA
ENCODING 4266
SWIDTH 576 0
DWIDTH 8 0
BBX 8 10 0 0
BITMAP
F0
90
10
16
19
11
11
11
11
0E
ENDCHAR
STARTCHAR uni10AB
ENCODING 4267
SWIDTH 576 0
DWIDTH 8 0
BBX 8 10 0 0
BITMAP
F8
08
08
08
7F
89
88
88
88
70
ENDCHAR
STARTCHAR uni10AC
ENCODING 4268
SWIDTH 576 0
DWIDTH 8 0
BBX 6 10 1 0
BITMAP
FC
80
80
80
FC
84
84
84
84
84
ENDCHAR
STARTCHAR uni10AD
ENCODING 4269
SWIDTH 576 0
DWIDTH 8 0
BBX 8 10 0 0
BITMAP
70
88
88
88
88
88
88
89
8D
72
ENDCHAR
STARTCHAR uni10AE
ENCODING 4270
SWIDTH 576 0
DWIDTH 8 0
BBX 8 10 0 0
BITMAP
E1
21
21
21
21
21
21
21
12
0C
ENDCHAR
STARTCHAR uni10AF
ENCODING 4271
SWIDTH 576 0
DWIDTH 8 0
BBX 7 10 1 0
BITMAP
E2
22
42
42
46
3A
02
02
02
02
ENDCHAR
STARTCHAR uni10B0
ENCODING 4272
SWIDTH 576 0
DWIDTH 8 0
BBX 8 10 0 0
BITMAP
08
08
08
0A
0D
09
89
88
88
70
ENDCHAR
STARTCHAR uni10B1
ENCODING 4273
SWIDTH 576 0
DWIDTH 8 0
BBX 6 10 1 0
BITMAP
80
80
80
80
80
88
84
84
84
78
ENDCHAR
STARTCHAR uni10B2
ENCODING 4274
SWIDTH 576 0
DWIDTH 8 0
BBX 6 10 1 0
BITMAP
F8
84
84
84
84
F8
80
80
80
FC
ENDCHAR
STARTCHAR uni10B3
ENCODING 4275
SWIDTH 576 0
DWIDTH 8 0
BBX 8 10 0 0
BITMAP
70
88
88
88
88
88
88
8A
8D
71
ENDCHAR
STARTCHAR uni10B4
ENCODING 4276
SWIDTH 576 0
DWIDTH 8 0
BBX 7 10 1 0
BITMAP
7C
92
92
92
92
7C
10
10
10
10
ENDCHAR
STARTCHAR uni10B5
ENCODING 4277
SWIDTH 576 0
DWIDTH 8 0
BBX 7 10 1 0
BITMAP
10
10
10
90
FE
12
10
10
10
10
ENDCHAR
STARTCHAR uni10B6
ENCODING 4278
SWIDTH 576 0
DWIDTH 8 0
BBX 6 10 1 0
BITMAP
78
84
84
84
84
84
84
84
84
84
ENDCHAR
STARTCHAR uni10B7
ENCODING 4279
SWIDTH 576 0
DWIDTH 8 0
BBX 6 10 1 0
BITMAP
44
84
84
84
8C
74
04
04
04
04
ENDCHAR
STARTCHAR uni10B8
ENCODING 4280
SWIDTH 576 0
DWIDTH 8 0
BBX 6 10 1 0
BITMAP
44
84
84
8C
74
04
84
84
84
78
ENDCHAR
STARTCHAR uni10B9
ENCODING 4281
SWIDTH 576 0
DWIDTH 8 0
BBX 6 10 1 0
BITMAP
80
80
80
80
FC
84
84
84
84
84
ENDCHAR
STARTCHAR uni10BA
ENCODING 4282
SWIDTH 576 0
DWIDTH 8 0
BBX 7 12 1 -2
BITMAP
3C
42
80
80
80
80
80
80
42
3E
04
08
ENDCHAR
STARTCHAR uni10BB
ENCODING 4283
SWIDTH 576 0
DWIDTH 8 0
BBX 8 10 0 0
BITMAP
08
08
08
08
7F
89
88
88
88
70
ENDCHAR
STARTCHAR uni10BC
ENCODING 4284
SWIDTH 576 0
DWIDTH 8 0
BBX 6 10 1 0
BITMAP
F8
84
84
84
F8
80
F0
88
90
80
ENDCHAR
STARTCHAR uni10BD
ENCODING 4285
SWIDTH 576 0
DWIDTH 8 0
BBX 7 10 1 0
BITMAP
38
44
44
40
30
0C
02
82
82
7C
ENDCHAR
STARTCHAR uni10BE
ENCODING 4286
SWIDTH 576 0
DWIDTH 8 0
BBX 6 11 1 -1
BITMAP
84
84
84
84
84
FC
80
80
80
FC
04
ENDCHAR
STARTCHAR uni10BF
ENCODING 4287
SWIDTH 576 0
DWIDTH 8 0
BBX 8 10 0 0
BITMAP
FF
41
22
14
08
14
22
40
80
80
ENDCHAR
STARTCHAR uni10C0
ENCODING 4288
SWIDTH 576 0
DWIDTH 8 0
BBX 8 10 0 0
BITMAP
F0
90
90
10
10
10
11
11
11
0E
ENDCHAR
STARTCHAR uni10C1
ENCODING 4289
SWIDTH 576 0
DWIDTH 8 0
BBX 6 10 1 0
BITMAP
80
80
80
E0
90
8C
80
80
80
80
ENDCHAR
STARTCHAR uni10C2
ENCODING 4290
SWIDTH 576 0
DWIDTH 8 0
BBX 7 10 1 0
BITMAP
B8
C4
02
02
02
02
02
82
44
38
ENDCHAR
STARTCHAR uni10C3
ENCODING 4291
SWIDTH 576 0
DWIDTH 8 0
BBX 6 10 1 0
BITMAP
04
44
84
84
8C
74
04
04
04
04
ENDCHAR
STARTCHAR uni10C4
ENCODING 4292
SWIDTH 576 0
DWIDTH 8 0
BBX 7 10 1 0
BITMAP
82
82
82
82
44
38
10
10
10
10
ENDCHAR
STARTCHAR uni10C5
ENCODING 4293
SWIDTH 576 0
DWIDTH 8 0
BBX 8 10 0 0
BITMAP
06
09
09
0E
08
7E
89
88
88
70
ENDCHAR
STARTCHAR uni10D0
ENCODING 4304
SWIDTH 576 0
DWIDTH 8 0
BBX 6 7 1 0
BITMAP
20
20
18
04
84
84
78
ENDCHAR
STARTCHAR uni10D1
ENCODING 4305
SWIDTH 576 0
DWIDTH 8 0
BBX 6 10 1 0
BITMAP
40
70
10
10
78
84
84
84
84
78
ENDCHAR
STARTCHAR uni10D2
ENCODING 4306
SWIDTH 576 0
DWIDTH 8 0
BBX 6 10 1 0
BITMAP
60
90
90
10
78
84
84
84
84
78
ENDCHAR
STARTCHAR uni10D3
ENCODING 4307
SWIDTH 576 0
DWIDTH 8 0
BBX 8 10 0 -3
BITMAP
6E
91
91
91
91
4E
20
70
8C
02
ENDCHAR
STARTCHAR uni10D4
ENCODING 4308
SWIDTH 576 0
DWIDTH 8 0
BBX 6 10 1 0
BITMAP
38
44
44
04
04
04
44
84
84
78
ENDCHAR
STARTCHAR uni10D5
ENCODING 4309
SWIDTH 576 0
DWIDTH 8 0
BBX 6 10 1 0
BITMAP
38
44
44
04
18
04
44
84
84
78
ENDCHAR
STARTCHAR uni10D6
ENCODING 4310
SWIDTH 576 0
DWIDTH 8 0
BBX 8 10 0 0
BITMAP
60
90
90
72
14
1E
11
11
11
0E
ENDCHAR
STARTCHAR uni10D7
ENCODING 4311
SWIDTH 576 0
DWIDTH 8 0
BBX 8 7 0 0
BITMAP
76
89
89
89
89
89
72
ENDCHAR
STARTCHAR uni10D8
ENCODING 4312
SWIDTH 576 0
DWIDTH 8 0
BBX 6 7 1 0
BITMAP
78
84
84
84
84
84
48
ENDCHAR
STARTCHAR uni10D9
ENCODING 4313
SWIDTH 576 0
DWIDTH 8 0
BBX 6 10 1 0
BITMAP
08
04
04
04
18
04
44
84
84
78
ENDCHAR
STARTCHAR uni10DA
ENCODING 4314
SWIDTH 576 0
DWIDTH 8 0
BBX 8 10 0 -3
BITMAP
6A
95
95
81
81
42
20
78
84
02
ENDCHAR
STARTCHAR uni10DB
ENCODING 4315
SWIDTH 576 0
DWIDTH 8 0
BBX 5 10 2 0
BITMAP
70
88
88
08
68
98
88
88
88
70
ENDCHAR
STARTCHAR uni10DC
ENCODING 4316
SWIDTH 576 0
DWIDTH 8 0
BBX 5 10 2 0
BITMAP
68
90
80
80
B0
C8
88
88
88
70
ENDCHAR
STARTCHAR uni10DD
ENCODING 4317
SWIDTH 576 0
DWIDTH 8 0
BBX 7 7 1 0
BITMAP
6C
92
92
92
82
82
44
ENDCHAR
STARTCHAR uni10DE
ENCODING 4318
SWIDTH 576 0
DWIDTH 8 0
BBX 6 10 1 0
BITMAP
20
18
04
04
18
04
44
84
84
78
ENDCHAR
STARTCHAR uni10DF
ENCODING 4319
SWIDTH 576 0
DWIDTH 8 0
BBX 7 10 1 0
BITMAP
06
3A
22
92
62
02
22
42
42
3C
ENDCHAR
STARTCHAR uni10E0
ENCODING 4320
SWIDTH 576 0
DWIDTH 8 0
BBX 7 10 1 0
BITMAP
04
08
70
80
EC
92
92
92
82
44
ENDCHAR
STARTCHAR uni10E1
ENCODING 4321
SWIDTH 576 0
DWIDTH 8 0
BBX 6 10 1 0
BITMAP
80
80
80
88
90
90
88
84
84
78
ENDCHAR
STARTCHAR uni10E2
ENCODING 4322
SWIDTH 576 0
DWIDTH 8 0
BBX 8 12 0 0
BITMAP
18
24
18
66
99
81
81
81
81
81
42
3C
ENDCHAR
STARTCHAR uni10E3
ENCODING 4323
SWIDTH 576 0
DWIDTH 8 0
BBX 7 10 1 0
BITMAP
6C
92
12
02
02
02
22
42
42
3C
ENDCHAR
STARTCHAR uni10E4
ENCODING 4324
SWIDTH 576 0
DWIDTH 8 0
BBX 7 10 1 0
BITMAP
6C
92
92
92
64
02
22
42
42
3C
ENDCHAR
STARTCHAR uni10E5
ENCODING 4325
SWIDTH 576 0
DWIDTH 8 0
BBX 6 12 1 0
BITMAP
04
04
04
3C
44
24
04
04
44
84
84
78
ENDCHAR
STARTCHAR uni10E6
ENCODING 4326
SWIDTH 576 0
DWIDTH 8 0
BBX 7 10 1 -3
BITMAP
6C
92
92
82
82
44
20
F0
0C
02
ENDCHAR
STARTCHAR uni10E7
ENCODING 4327
SWIDTH 576 0
DWIDTH 8 0
BBX 5 10 2 0
BITMAP
48
88
88
98
68
08
48
88
88
70
ENDCHAR
STARTCHAR uni10E8
ENCODING 4328
SWIDTH 576 0
DWIDTH 8 0
BBX 7 10 1 0
BITMAP
6C
92
92
02
1A
26
22
22
22
1C
ENDCHAR
STARTCHAR uni10E9
ENCODING 4329
SWIDTH 576 0
DWIDTH 8 0
BBX 5 10 2 0
BITMAP
60
90
E0
80
B0
C8
88
88
88
90
ENDCHAR
STARTCHAR uni10EA
ENCODING 4330
SWIDTH 576 0
DWIDTH 8 0
BBX 6 10 1 0
BITMAP
90
88
84
84
98
84
84
84
84
78
ENDCHAR
STARTCHAR uni10EB
ENCODING 4331
SWIDTH 576 0
DWIDTH 8 0
BBX 5 10 2 0
BITMAP
30
08
08
08
68
98
88
88
88
70
ENDCHAR
STARTCHAR uni10EC
ENCODING 4332
SWIDTH 576 0
DWIDTH 8 0
BBX 7 13 1 -3
BITMAP
6C
92
92
84
80
FE
82
44
44
28
28
10
10
ENDCHAR
STARTCHAR uni10ED
ENCODING 4333
SWIDTH 576 0
DWIDTH 8 0
BBX 7 13 1 -3
BITMAP
40
7C
04
08
6A
9C
9C
6A
08
44
84
84
78
ENDCHAR
STARTCHAR uni10EE
ENCODING 4334
SWIDTH 576 0
DWIDTH 8 0
BBX 5 10 2 0
BITMAP
80
80
80
90
A0
F0
88
88
88
70
ENDCHAR
STARTCHAR uni10EF
ENCODING 4335
SWIDTH 576 0
DWIDTH 8 0
BBX 8 9 0 -2
BITMAP
61
92
94
08
15
65
12
90
60
ENDCHAR
STARTCHAR uni10F0
ENCODING 4336
SWIDTH 576 0
DWIDTH 8 0
BBX 6 10 1 0
BITMAP
20
18
04
18
04
18
44
84
84
78
ENDCHAR
STARTCHAR uni10F1
ENCODING 4337
SWIDTH 576 0
DWIDTH 8 0
BBX 6 10 1 0
BITMAP
A0
98
84
98
84
98
84
84
84
78
ENDCHAR
STARTCHAR uni10F2
ENCODING 4338
SWIDTH 576 0
DWIDTH 8 0
BBX 7 7 1 0
BITMAP
38
44
44
44
28
38
C6
ENDCHAR
STARTCHAR uni10F3
ENCODING 4339
SWIDTH 576 0
DWIDTH 8 0
BBX 5 10 2 0
BITMAP
F8
08
10
20
30
08
08
08
10
E0
ENDCHAR
STARTCHAR uni10F4
ENCODING 4340
SWIDTH 576 0
DWIDTH 8 0
BBX 6 12 1 0
BITMAP
40
40
38
04
04
18
04
04
44
84
84
78
ENDCHAR
STARTCHAR uni10F5
ENCODING 4341
SWIDTH 576 0
DWIDTH 8 0
BBX 6 10 1 0
BITMAP
70
88
88
7C
08
7C
88
88
88
70
ENDCHAR
STARTCHAR uni10F6
ENCODING 4342
SWIDTH 576 0
DWIDTH 8 0
BBX 7 13 1 -3
BITMAP
20
10
10
7C
92
92
92
92
92
7C
10
10
08
ENDCHAR
STARTCHAR uni10F7
ENCODING 4343
SWIDTH 576 0
DWIDTH 8 0
BBX 6 10 1 0
BITMAP
70
88
08
10
20
40
88
84
84
78
ENDCHAR
STARTCHAR uni10F8
ENCODING 4344
SWIDTH 576 0
DWIDTH 8 0
BBX 5 10 2 0
BITMAP
90
88
88
C8
B0
80
90
88
88
70
ENDCHAR
STARTCHAR uni10FB
ENCODING 4347
SWIDTH 576 0
DWIDTH 8 0
BBX 7 7 1 0
BITMAP
40
E0
44
0E
44
E0
40
ENDCHAR
STARTCHAR uni1200
ENCODING 4608
SWIDTH 576 0
DWIDTH 8 0
BBX 7 10 1 0
BITMAP
C6
C6
C6
C6
C6
C6
CE
CC
FC
70
ENDCHAR
STARTCHAR uni1201
ENCODING 4609
SWIDTH 576 0
DWIDTH 8 0
BBX 8 10 0 0
BITMAP
C6
C6
C6
C6
C7
C6
CE
CC
FC
70
ENDCHAR
STARTCHAR uni1202
ENCODING 4610
SWIDTH 576 0
DWIDTH 8 0
BBX 8 11 0 -1
BITMAP
63
C3
C3
C6
7E
3C
0C
18
30
33
3F
ENDCHAR
STARTCHAR uni1203
ENCODING 4611
SWIDTH 576 0
DWIDTH 8 0
BBX 8 11 0 -1
BITMAP
63
C3
C3
C6
7E
3C
0C
18
30
30
30
ENDCHAR
STARTCHAR uni1204
ENCODING 4612
SWIDTH 576 0
DWIDTH 8 0
BBX 8 11 0 -1
BITMAP
63
C3
C3
C6
7E
3C
0C
18
1E
19
0E
ENDCHAR
STARTCHAR uni1205
ENCODING 4613
SWIDTH 576 0
DWIDTH 8 0
BBX 8 10 0 0
BITMAP
63
C3
C3
33
63
63
63
63
63
3E
ENDCHAR
STARTCHAR uni1206
ENCODING 4614
SWIDTH 576 0
DWIDTH 8 0
BBX 8 10 0 0
BITMAP
C7
C4
C7
C6
C6
C6
C6
C6
C6
7C
ENDCHAR
STARTCHAR uni1208
ENCODING 4616
SWIDTH 576 0
DWIDTH 8 0
BBX 7 10 1 0
BITMAP
0C
18
30
78
CC
C6
C6
C6
C6
C6
ENDCHAR
STARTCHAR uni1209
ENCODING 4617
SWIDTH 576 0
DWIDTH 8 0
BBX 8 10 0 0
BITMAP
0C
18
30
78
CC
C6
C7
C6
C6
C6
ENDCHAR
STARTCHAR uni120A
ENCODING 4618
SWIDTH 576 0
DWIDTH 8 0
BBX 8 10 0 0
BITMAP
0C
18
30
78
CC
C6
C6
C6
C6
C7
ENDCHAR
STARTCHAR uni120B
ENCODING 4619
SWIDTH 576 0
DWIDTH 8 0
BBX 7 10 1 0
BITMAP
0C
18
30
78
CC
C6
C6
06
06
06
ENDCHAR
STARTCHAR uni120C
ENCODING 4620
SWIDTH 576 0
DWIDTH 8 0
BBX 8 10 0 0
BITMAP
0C
18
30
78
CC
C6
C6
C7
C4
C7
ENDCHAR
STARTCHAR uni120D
ENCODING 4621
SWIDTH 576 0
DWIDTH 8 0
BBX 7 10 1 0
BITMAP
0C
18
30
78
CC
C6
C6
E6
96
E6
ENDCHAR
STARTCHAR uni120E
ENCODING 4622
SWIDTH 576 0
DWIDTH 8 0
BBX 8 10 0 0
BITMAP
0C
18
30
78
CC
C7
C4
C7
C6
C6
ENDCHAR
STARTCHAR uni120F
ENCODING 4623
SWIDTH 576 0
DWIDTH 8 0
BBX 8 12 0 -2
BITMAP
0C
18
30
78
CC
C6
C6
06
06
06
1F
10
ENDCHAR
STARTCHAR uni1210
ENCODING 4624
SWIDTH 576 0
DWIDTH 8 0
BBX 8 10 0 0
BITMAP
18
18
18
18
7E
DB
DB
DB
DB
DB
ENDCHAR
STARTCHAR uni1211
ENCODING 4625
SWIDTH 576 0
DWIDTH 8 0
BBX 8 10 0 0
BITMAP
18
18
18
18
7E
DB
DB
DB
DB
DB
ENDCHAR
STARTCHAR uni1212
ENCODING 4626
SWIDTH 576 0
DWIDTH 8 0
BBX 8 10 0 0
BITMAP
18
18
18
18
7E
DB
DB
DA
DA
DB
ENDCHAR
STARTCHAR uni1213
ENCODING 4627
SWIDTH 576 0
DWIDTH 8 0
BBX 8 10 0 0
BITMAP
18
18
18
18
7E
DB
DB
03
03
03
ENDCHAR
STARTCHAR uni1214
ENCODING 4628
SWIDTH 576 0
DWIDTH 8 0
BBX 8 10 0 0
BITMAP
18
18
18
18
7E
DB
DB
DA
DA
DB
ENDCHAR
STARTCHAR uni1215
ENCODING 4629
SWIDTH 576 0
DWIDTH 8 0
BBX 8 10 0 0
BITMAP
60
70
38
18
7E
DB
DB
DB
DB
DB
ENDCHAR
STARTCHAR uni1216
ENCODING 4630
SWIDTH 576 0
DWIDTH 8 0
BBX 8 10 0 0
BITMAP
18
18
18
18
7E
DB
DB
C0
C0
C0
ENDCHAR
STARTCHAR uni1217
ENCODING 4631
SWIDTH 576 0
DWIDTH 8 0
BBX 8 12 0 -2
BITMAP
18
18
18
18
7E
DB
DB
03
03
03
0F
08
ENDCHAR
STARTCHAR uni1218
ENCODING 4632
SWIDTH 576 0
DWIDTH 8 0
BBX 7 7 1 2
BITMAP
7C
AA
AA
AA
AA
AA
44
ENDCHAR
STARTCHAR uni1219
ENCODING 4633
SWIDTH 576 0
DWIDTH 8 0
BBX 8 7 0 2
BITMAP
7C
AA
AB
AA
AA
AA
44
ENDCHAR
STARTCHAR uni121A
ENCODING 4634
SWIDTH 576 0
DWIDTH 8 0
BBX 8 11 0 -1
BITMAP
7C
AA
AA
AA
AA
46
02
04
08
13
1F
ENDCHAR
STARTCHAR uni121B
ENCODING 4635
SWIDTH 576 0
DWIDTH 8 0
BBX 7 10 1 0
BITMAP
7C
AA
AA
AA
AA
46
02
04
04
04
ENDCHAR
STARTCHAR uni121C
ENCODING 4636
SWIDTH 576 0
DWIDTH 8 0
BBX 8 11 0 -1
BITMAP
7C
AA
AA
AA
AA
46
04
08
0E
09
0E
ENDCHAR
STARTCHAR uni121D
ENCODING 4637
SWIDTH 576 0
DWIDTH 8 0
BBX 7 10 1 0
BITMAP
7C
AA
AA
AA
AA
64
20
60
C0
80
ENDCHAR
STARTCHAR uni121E
ENCODING 4638
SWIDTH 576 0
DWIDTH 8 0
BBX 7 10 1 0
BITMAP
7C
AA
AA
AA
AA
64
20
20
20
20
ENDCHAR
STARTCHAR uni121F
ENCODING 4639
SWIDTH 576 0
DWIDTH 8 0
BBX 7 12 1 -2
BITMAP
7C
AA
AA
AA
AA
46
04
04
08
08
3E
22
ENDCHAR
STARTCHAR uni1220
ENCODING 4640
SWIDTH 576 0
DWIDTH 8 0
BBX 8 10 0 0
BITMAP
DB
DB
DB
DB
DB
DB
DE
D8
D8
70
ENDCHAR
STARTCHAR uni1221
ENCODING 4641
SWIDTH 576 0
DWIDTH 8 0
BBX 8 10 0 0
BITMAP
DB
DB
DB
DB
DB
DB
DE
D8
D8
70
ENDCHAR
STARTCHAR uni1222
ENCODING 4642
SWIDTH 576 0
DWIDTH 8 0
BBX 8 11 0 -1
BITMAP
DB
DB
DB
DB
DB
DB
7E
06
0C
0D
0F
ENDCHAR
STARTCHAR uni1223
ENCODING 4643
SWIDTH 576 0
DWIDTH 8 0
BBX 8 11 0 -1
BITMAP
DB
DB
DB
DB
DB
DB
7F
03
03
03
03
ENDCHAR
STARTCHAR uni1224
ENCODING 4644
SWIDTH 576 0
DWIDTH 8 0
BBX 8 11 0 -1
BITMAP
DB
DB
DB
DB
DB
DB
7F
03
03
04
03
ENDCHAR
STARTCHAR uni1225
ENCODING 4645
SWIDTH 576 0
DWIDTH 8 0
BBX 8 11 0 -1
BITMAP
6D
6D
6D
6D
6D
6D
7F
60
C0
C0
C0
ENDCHAR
STARTCHAR uni1226
ENCODING 4646
SWIDTH 576 0
DWIDTH 8 0
BBX 8 11 0 -1
BITMAP
DB
DB
DB
DB
DB
DB
7E
18
30
30
30
ENDCHAR
STARTCHAR uni1227
ENCODING 4647
SWIDTH 576 0
DWIDTH 8 0
BBX 8 12 0 -2
BITMAP
DB
DB
DB
DB
DB
DB
7F
03
03
03
0F
08
ENDCHAR
STARTCHAR uni1228
ENCODING 4648
SWIDTH 576 0
DWIDTH 8 0
BBX 8 10 0 0
BITMAP
18
18
18
30
60
C0
C0
E3
7F
3E
ENDCHAR
STARTCHAR uni1229
ENCODING 4649
SWIDTH 576 0
DWIDTH 8 0
BBX 8 10 0 0
BITMAP
18
18
30
60
C0
E0
7F
3F
0C
0C
ENDCHAR
STARTCHAR uni122A
ENCODING 4650
SWIDTH 576 0
DWIDTH 8 0
BBX 8 10 0 0
BITMAP
18
18
18
30
60
C6
C3
E3
7F
3E
ENDCHAR
STARTCHAR uni122B
ENCODING 4651
SWIDTH 576 0
DWIDTH 8 0
BBX 8 10 0 0
BITMAP
18
18
18
30
60
C0
C3
E7
7C
38
ENDCHAR
STARTCHAR uni122C
ENCODING 4652
SWIDTH 576 0
DWIDTH 8 0
BBX 8 10 0 0
BITMAP
18
18
18
30
60
C0
C0
E7
7C
3F
ENDCHAR
STARTCHAR uni122D
ENCODING 4653
SWIDTH 576 0
DWIDTH 8 0
BBX 8 10 0 0
BITMAP
3C
7E
C6
C0
C0
C0
C0
C3
FF
7E
ENDCHAR
STARTCHAR uni122E
ENCODING 4654
SWIDTH 576 0
DWIDTH 8 0
BBX 8 10 0 0
BITMAP
3E
79
C6
C0
C0
C0
C0
C3
FF
7E
ENDCHAR
STARTCHAR uni122F
ENCODING 4655
SWIDTH 576 0
DWIDTH 8 0
BBX 8 11 0 0
BITMAP
42
7E
18
18
30
60
C0
C3
E7
7C
38
ENDCHAR
STARTCHAR uni1230
ENCODING 4656
SWIDTH 576 0
DWIDTH 8 0
BBX 7 10 1 0
BITMAP
10
10
38
7C
C6
C6
C6
C6
C6
C6
ENDCHAR
STARTCHAR uni1231
ENCODING 4657
SWIDTH 576 0
DWIDTH 8 0
BBX 8 10 0 0
BITMAP
10
10
38
7C
C6
C7
C6
C6
C6
C6
ENDCHAR
STARTCHAR uni1232
ENCODING 4658
SWIDTH 576 0
DWIDTH 8 0
BBX 8 10 0 0
BITMAP
10
10
38
7C
C6
C6
C6
C6
C6
C7
ENDCHAR
STARTCHAR uni1233
ENCODING 4659
SWIDTH 576 0
DWIDTH 8 0
BBX 7 10 1 0
BITMAP
10
10
38
7C
C6
C6
C6
06
06
06
ENDCHAR
STARTCHAR uni1234
ENCODING 4660
SWIDTH 576 0
DWIDTH 8 0
BBX 8 10 0 0
BITMAP
10
10
38
7C
C6
C6
C6
C7
C4
C7
ENDCHAR
STARTCHAR uni1235
ENCODING 4661
SWIDTH 576 0
DWIDTH 8 0
BBX 7 10 1 0
BITMAP
60
30
38
7C
C6
C6
C6
C6
C6
C6
ENDCHAR
STARTCHAR uni1236
ENCODING 4662
SWIDTH 576 0
DWIDTH 8 0
BBX 7 10 1 0
BITMAP
10
10
38
7C
C6
C6
C6
C0
C0
C0
ENDCHAR
STARTCHAR uni1237
ENCODING 4663
SWIDTH 576 0
DWIDTH 8 0
BBX 8 12 0 -2
BITMAP
10
10
38
7C
C6
C6
C6
06
06
06
1F
10
ENDCHAR
STARTCHAR uni1238
ENCODING 4664
SWIDTH 576 0
DWIDTH 8 0
BBX 7 10 1 0
BITMAP
7C
10
38
7C
C6
C6
C6
C6
C6
C6
ENDCHAR
STARTCHAR uni1239
ENCODING 4665
SWIDTH 576 0
DWIDTH 8 0
BBX 8 10 0 0
BITMAP
7C
10
38
7C
C6
C7
C6
C6
C6
C6
ENDCHAR
STARTCHAR uni123A
ENCODING 4666
SWIDTH 576 0
DWIDTH 8 0
BBX 8 10 0 0
BITMAP
7C
10
38
7C
C6
C6
C6
C6
C6
C7
ENDCHAR
STARTCHAR uni123B
ENCODING 4667
SWIDTH 576 0
DWIDTH 8 0
BBX 7 10 1 0
BITMAP
7C
10
38
7C
C6
C6
C6
06
06
06
ENDCHAR
STARTCHAR uni123C
ENCODING 4668
SWIDTH 576 0
DWIDTH 8 0
BBX 8 10 0 0
BITMAP
7C
10
38
7C
C6
C6
C6
C7
C4
C7
ENDCHAR
STARTCHAR uni123D
ENCODING 4669
SWIDTH 576 0
DWIDTH 8 0
BBX 8 10 0 0
BITMAP
FC
30
1C
3E
63
63
63
63
63
63
ENDCHAR
STARTCHAR uni123E
ENCODING 4670
SWIDTH 576 0
DWIDTH 8 0
BBX 7 10 1 0
BITMAP
7C
10
38
7C
C6
C6
C6
C0
C0
C0
ENDCHAR
STARTCHAR uni123F
ENCODING 4671
SWIDTH 576 0
DWIDTH 8 0
BBX 8 12 0 -2
BITMAP
7C
10
38
7C
C6
C6
C6
06
06
06
1F
10
ENDCHAR
STARTCHAR uni1240
ENCODING 4672
SWIDTH 576 0
DWIDTH 8 0
BBX 8 10 0 0
BITMAP
18
18
18
7E
DB
DB
7E
18
18
18
ENDCHAR
STARTCHAR uni1241
ENCODING 4673
SWIDTH 576 0
DWIDTH 8 0
BBX 8 10 0 0
BITMAP
18
18
7E
DB
DB
7E
18
1F
1B
18
ENDCHAR
STARTCHAR uni1242
ENCODING 4674
SWIDTH 576 0
DWIDTH 8 0
BBX 8 10 0 0
BITMAP
18
18
18
7E
DB
DB
7E
18
1B
1F
ENDCHAR
STARTCHAR uni1243
ENCODING 4675
SWIDTH 576 0
DWIDTH 8 0
BBX 8 10 0 0
BITMAP
18
18
18
7E
DB
DB
7E
18
30
60
ENDCHAR
STARTCHAR uni1244
ENCODING 4676
SWIDTH 576 0
DWIDTH 8 0
BBX 8 10 0 0
BITMAP
18
18
7E
DB
DB
7E
18
1E
19
1E
ENDCHAR
STARTCHAR uni1245
ENCODING 4677
SWIDTH 576 0
DWIDTH 8 0
BBX 8 10 0 0
BITMAP
C0
78
18
7E
DB
DB
7E
18
18
18
ENDCHAR
STARTCHAR uni1246
ENCODING 4678
SWIDTH 576 0
DWIDTH 8 0
BBX 8 10 0 0
BITMAP
3C
66
3C
18
7E
DB
DB
7E
18
18
ENDCHAR
STARTCHAR uni1248
ENCODING 4680
SWIDTH 576 0
DWIDTH 8 0
BBX 8 10 0 0
BITMAP
18
18
7E
DB
DB
7E
1F
1C
1B
18
ENDCHAR
STARTCHAR uni124A
ENCODING 4682
SWIDTH 576 0
DWIDTH 8 0
BBX 8 10 0 0
BITMAP
18
18
18
7E
DB
DB
7E
18
18
18
ENDCHAR
STARTCHAR uni124B
ENCODING 4683
SWIDTH 576 0
DWIDTH 8 0
BBX 8 12 0 -2
BITMAP
18
18
18
7E
DB
DB
7E
18
18
18
7E
42
ENDCHAR
STARTCHAR uni124C
ENCODING 4684
SWIDTH 576 0
DWIDTH 8 0
BBX 8 12 0 -2
BITMAP
18
18
18
7E
DB
DB
7E
18
1E
19
7E
40
ENDCHAR
STARTCHAR uni124D
ENCODING 4685
SWIDTH 576 0
DWIDTH 8 0
BBX 8 10 0 0
BITMAP
18
18
18
7E
DB
DB
7E
18
18
18
ENDCHAR
STARTCHAR uni1250
ENCODING 4688
SWIDTH 576 0
DWIDTH 8 0
BBX 8 10 0 0
BITMAP
7E
18
18
7E
DB
DB
7E
18
18
18
ENDCHAR
STARTCHAR uni1251
ENCODING 4689
SWIDTH 576 0
DWIDTH 8 0
BBX 8 10 0 0
BITMAP
7E
18
7E
DB
DB
7E
18
1F
1B
18
ENDCHAR
STARTCHAR uni1252
ENCODING 4690
SWIDTH 576 0
DWIDTH 8 0
BBX 8 10 0 0
BITMAP
7E
18
18
7E
DB
DB
7E
18
1B
1F
ENDCHAR
STARTCHAR uni1253
ENCODING 4691
SWIDTH 576 0
DWIDTH 8 0
BBX 8 10 0 0
BITMAP
7E
18
18
7E
DB
DB
7E
18
30
60
ENDCHAR
STARTCHAR uni1254
ENCODING 4692
SWIDTH 576 0
DWIDTH 8 0
BBX 8 10 0 0
BITMAP
7E
18
7E
DB
DB
7E
18
1E
19
1E
ENDCHAR
STARTCHAR uni1255
ENCODING 4693
SWIDTH 576 0
DWIDTH 8 0
BBX 8 10 0 0
BITMAP
FC
30
38
18
7E
DB
DB
7E
18
18
ENDCHAR
STARTCHAR uni1256
ENCODING 4694
SWIDTH 576 0
DWIDTH 8 0
BBX 8 10 0 0
BITMAP
7E
24
3C
18
7E
DB
DB
7E
18
18
ENDCHAR
STARTCHAR uni1258
ENCODING 4696
SWIDTH 576 0
DWIDTH 8 0
BBX 8 10 0 0
BITMAP
7E
18
7E
DB
DB
7E
1F
1C
1B
18
ENDCHAR
STARTCHAR uni125A
ENCODING 4698
SWIDTH 576 0
DWIDTH 8 0
BBX 8 10 0 0
BITMAP
7E
18
18
7E
DB
DB
7E
18
18
18
ENDCHAR
STARTCHAR uni125B
ENCODING 4699
SWIDTH 576 0
DWIDTH 8 0
BBX 8 12 0 -2
BITMAP
7E
18
18
7E
DB
DB
7E
18
18
18
7E
42
ENDCHAR
STARTCHAR uni125C
ENCODING 4700
SWIDTH 576 0
DWIDTH 8 0
BBX 8 12 0 -2
BITMAP
7E
18
18
7E
DB
DB
7E
18
1E
19
7E
40
ENDCHAR
STARTCHAR uni125D
ENCODING 4701
SWIDTH 576 0
DWIDTH 8 0
BBX 8 10 0 0
BITMAP
7E
18
18
7E
DB
DB
7E
18
18
18
ENDCHAR
STARTCHAR uni1260
ENCODING 4704
SWIDTH 576 0
DWIDTH 8 0
BBX 7 10 1 0
BITMAP
3C
46
C6
C6
C6
C6
C6
C6
C6
C6
ENDCHAR
STARTCHAR uni1261
ENCODING 4705
SWIDTH 576 0
DWIDTH 8 0
BBX 8 10 0 0
BITMAP
3C
46
C6
C6
C6
C7
C6
C6
C6
C6
ENDCHAR
STARTCHAR uni1262
ENCODING 4706
SWIDTH 576 0
DWIDTH 8 0
BBX 8 10 0 0
BITMAP
3C
46
C6
C6
C6
C6
C6
C6
C6
C7
ENDCHAR
STARTCHAR uni1263
ENCODING 4707
SWIDTH 576 0
DWIDTH 8 0
BBX 7 10 1 0
BITMAP
3C
46
C6
C6
C6
C6
06
06
06
06
ENDCHAR
STARTCHAR uni1264
ENCODING 4708
SWIDTH 576 0
DWIDTH 8 0
BBX 8 10 0 0
BITMAP
3C
46
C6
C6
C6
C6
C6
C7
C4
C7
ENDCHAR
STARTCHAR uni1265
ENCODING 4709
SWIDTH 576 0
DWIDTH 8 0
BBX 8 10 0 0
BITMAP
0E
13
33
33
33
F3
B3
33
33
33
ENDCHAR
STARTCHAR uni1266
ENCODING 4710
SWIDTH 576 0
DWIDTH 8 0
BBX 7 10 1 0
BITMAP
3C
46
C6
C6
C6
C6
C0
C0
C0
C0
ENDCHAR
STARTCHAR uni1267
ENCODING 4711
SWIDTH 576 0
DWIDTH 8 0
BBX 8 12 0 -2
BITMAP
3C
46
C6
C6
C6
C6
06
06
06
06
1F
10
ENDCHAR
STARTCHAR uni1268
ENCODING 4712
SWIDTH 576 0
DWIDTH 8 0
BBX 7 10 1 0
BITMAP
7E
00
3C
46
C6
C6
C6
C6
C6
C6
ENDCHAR
STARTCHAR uni1269
ENCODING 4713
SWIDTH 576 0
DWIDTH 8 0
BBX 8 10 0 0
BITMAP
7E
00
3C
46
C6
C7
C6
C6
C6
C6
ENDCHAR
STARTCHAR uni126A
ENCODING 4714
SWIDTH 576 0
DWIDTH 8 0
BBX 8 10 0 0
BITMAP
7E
00
3C
46
C6
C6
C6
C6
C6
C7
ENDCHAR
STARTCHAR uni126B
ENCODING 4715
SWIDTH 576 0
DWIDTH 8 0
BBX 7 10 1 0
BITMAP
7E
00
3C
46
C6
C6
C6
06
06
06
ENDCHAR
STARTCHAR uni126C
ENCODING 4716
SWIDTH 576 0
DWIDTH 8 0
BBX 8 10 0 0
BITMAP
7E
00
3C
46
C6
C6
C6
C7
C4
C7
ENDCHAR
STARTCHAR uni126D
ENCODING 4717
SWIDTH 576 0
DWIDTH 8 0
BBX 8 10 0 0
BITMAP
3F
00
0E
13
33
F3
B3
33
33
33
ENDCHAR
STARTCHAR uni126E
ENCODING 4718
SWIDTH 576 0
DWIDTH 8 0
BBX 7 10 1 0
BITMAP
7E
00
3C
46
C6
C6
C6
C0
C0
C0
ENDCHAR
STARTCHAR uni126F
ENCODING 4719
SWIDTH 576 0
DWIDTH 8 0
BBX 8 12 0 -2
BITMAP
7E
00
3C
46
C6
C6
C6
06
06
06
1F
10
ENDCHAR
STARTCHAR uni1270
ENCODING 4720
SWIDTH 576 0
DWIDTH 8 0
BBX 8 10 0 0
BITMAP
18
18
18
18
FF
99
18
18
18
18
ENDCHAR
STARTCHAR uni1271
ENCODING 4721
SWIDTH 576 0
DWIDTH 8 0
BBX 8 10 0 0
BITMAP
18
18
18
FF
99
18
1F
1B
18
18
ENDCHAR
STARTCHAR uni1272
ENCODING 4722
SWIDTH 576 0
DWIDTH 8 0
BBX 8 10 0 0
BITMAP
18
18
18
18
FF
99
18
18
1B
1F
ENDCHAR
STARTCHAR uni1273
ENCODING 4723
SWIDTH 576 0
DWIDTH 8 0
BBX 8 10 0 0
BITMAP
18
18
18
18
FF
99
18
18
30
60
ENDCHAR
STARTCHAR uni1274
ENCODING 4724
SWIDTH 576 0
DWIDTH 8 0
BBX 8 10 0 0
BITMAP
18
18
18
18
FF
99
18
1E
19
1E
ENDCHAR
STARTCHAR uni1275
ENCODING 4725
SWIDTH 576 0
DWIDTH 8 0
BBX 8 10 0 0
BITMAP
60
70
38
18
FF
99
18
18
18
18
ENDCHAR
STARTCHAR uni1276
ENCODING 4726
SWIDTH 576 0
DWIDTH 8 0
BBX 8 10 0 0
BITMAP
3C
66
3C
18
FF
99
18
18
18
18
ENDCHAR
STARTCHAR uni1277
ENCODING 4727
SWIDTH 576 0
DWIDTH 8 0
BBX 8 12 0 -2
BITMAP
18
18
18
18
FF
99
18
18
18
18
7E
42
ENDCHAR
STARTCHAR uni1278
ENCODING 4728
SWIDTH 576 0
DWIDTH 8 0
BBX 8 10 0 0
BITMAP
FF
99
18
18
FF
99
18
18
18
18
ENDCHAR
STARTCHAR uni1279
ENCODING 4729
SWIDTH 576 0
DWIDTH 8 0
BBX 8 10 0 0
BITMAP
FF
99
18
FF
99
18
1F
1B
18
18
ENDCHAR
STARTCHAR uni127A
ENCODING 4730
SWIDTH 576 0
DWIDTH 8 0
BBX 8 10 0 0
BITMAP
FF
99
18
18
FF
99
18
18
1B
1F
ENDCHAR
STARTCHAR uni127B
ENCODING 4731
SWIDTH 576 0
DWIDTH 8 0
BBX 8 10 0 0
BITMAP
FF
99
18
18
FF
99
18
18
30
60
ENDCHAR
STARTCHAR uni127C
ENCODING 4732
SWIDTH 576 0
DWIDTH 8 0
BBX 8 10 0 0
BITMAP
FF
99
18
18
FF
99
18
1E
19
1E
ENDCHAR
STARTCHAR uni127D
ENCODING 4733
SWIDTH 576 0
DWIDTH 8 0
BBX 8 10 0 0
BITMAP
FE
B2
10
18
FF
99
18
18
18
18
ENDCHAR
STARTCHAR uni127E
ENCODING 4734
SWIDTH 576 0
DWIDTH 8 0
BBX 8 10 0 0
BITMAP
FF
A5
3C
18
FF
99
18
18
18
18
ENDCHAR
STARTCHAR uni127F
ENCODING 4735
SWIDTH 576 0
DWIDTH 8 0
BBX 8 12 0 -2
BITMAP
FF
99
18
18
FF
99
18
18
18
18
7E
42
ENDCHAR
STARTCHAR uni1280
ENCODING 4736
SWIDTH 576 0
DWIDTH 8 0
BBX 7 10 1 0
BITMAP
18
18
F8
CE
06
06
06
06
06
06
ENDCHAR
STARTCHAR uni1281
ENCODING 4737
SWIDTH 576 0
DWIDTH 8 0
BBX 8 10 0 0
BITMAP
18
18
F8
CE
06
07
06
06
06
06
ENDCHAR
STARTCHAR uni1282
ENCODING 4738
SWIDTH 576 0
DWIDTH 8 0
BBX 8 10 0 0
BITMAP
18
18
F8
CE
06
06
06
06
06
07
ENDCHAR
STARTCHAR uni1283
ENCODING 4739
SWIDTH 576 0
DWIDTH 8 0
BBX 7 10 1 0
BITMAP
18
18
F8
CE
06
06
06
0C
18
30
ENDCHAR
STARTCHAR uni1284
ENCODING 4740
SWIDTH 576 0
DWIDTH 8 0
BBX 8 10 0 0
BITMAP
18
18
F8
CE
06
06
06
07
04
07
ENDCHAR
STARTCHAR uni1285
ENCODING 4741
SWIDTH 576 0
DWIDTH 8 0
BBX 8 10 0 0
BITMAP
0C
0C
3C
67
C3
C3
03
03
03
03
ENDCHAR
STARTCHAR uni1286
ENCODING 4742
SWIDTH 576 0
DWIDTH 8 0
BBX 8 10 0 0
BITMAP
07
0C
1B
F8
CE
06
06
06
06
06
ENDCHAR
STARTCHAR uni1288
ENCODING 4744
SWIDTH 576 0
DWIDTH 8 0
BBX 8 10 0 0
BITMAP
18
18
F8
CE
06
07
04
07
06
06
ENDCHAR
STARTCHAR uni128A
ENCODING 4746
SWIDTH 576 0
DWIDTH 8 0
BBX 8 10 0 0
BITMAP
30
30
F0
DD
0D
0F
0D
0C
0C
0C
ENDCHAR
STARTCHAR uni128B
ENCODING 4747
SWIDTH 576 0
DWIDTH 8 0
BBX 8 12 0 -2
BITMAP
18
18
F8
CE
06
06
06
06
06
06
1F
10
ENDCHAR
STARTCHAR uni128C
ENCODING 4748
SWIDTH 576 0
DWIDTH 8 0
BBX 8 12 0 -2
BITMAP
18
18
F8
CE
06
06
06
06
07
04
1F
10
ENDCHAR
STARTCHAR uni128D
ENCODING 4749
SWIDTH 576 0
DWIDTH 8 0
BBX 8 10 0 0
BITMAP
30
31
F1
DF
0C
0C
0C
0C
0C
0C
ENDCHAR
STARTCHAR uni1290
ENCODING 4752
SWIDTH 576 0
DWIDTH 8 0
BBX 5 10 2 0
BITMAP
C0
C0
C0
F8
18
18
18
18
18
18
ENDCHAR
STARTCHAR uni1291
ENCODING 4753
SWIDTH 576 0
DWIDTH 8 0
BBX 8 10 0 0
BITMAP
C0
C0
C0
F8
18
1F
1B
18
18
18
ENDCHAR
STARTCHAR uni1292
ENCODING 4754
SWIDTH 576 0
DWIDTH 8 0
BBX 8 10 0 0
BITMAP
C0
C0
C0
F8
18
18
18
18
1B
1F
ENDCHAR
STARTCHAR uni1293
ENCODING 4755
SWIDTH 576 0
DWIDTH 8 0
BBX 7 10 1 0
BITMAP
7C
C6
C6
C0
78
18
18
18
18
18
ENDCHAR
STARTCHAR uni1294
ENCODING 4756
SWIDTH 576 0
DWIDTH 8 0
BBX 8 10 0 0
BITMAP
C0
C0
C0
F8
18
18
18
1E
19
1E
ENDCHAR
STARTCHAR uni1295
ENCODING 4757
SWIDTH 576 0
DWIDTH 8 0
BBX 8 10 0 0
BITMAP
FC
CC
CC
0F
03
03
03
03
03
03
ENDCHAR
STARTCHAR uni1296
ENCODING 4758
SWIDTH 576 0
DWIDTH 8 0
BBX 7 10 1 0
BITMAP
7C
D2
CC
C0
78
18
18
18
18
18
ENDCHAR
STARTCHAR uni1297
ENCODING 4759
SWIDTH 576 0
DWIDTH 8 0
BBX 7 12 1 -2
BITMAP
7C
C6
C6
C0
78
18
18
18
18
18
7E
42
ENDCHAR
STARTCHAR uni1298
ENCODING 4760
SWIDTH 576 0
DWIDTH 8 0
BBX 7 10 1 0
BITMAP
FC
30
30
3E
06
06
06
06
06
06
ENDCHAR
STARTCHAR uni1299
ENCODING 4761
SWIDTH 576 0
DWIDTH 8 0
BBX 8 10 0 0
BITMAP
FC
30
30
3C
0C
0F
0D
0C
0C
0C
ENDCHAR
STARTCHAR uni129A
ENCODING 4762
SWIDTH 576 0
DWIDTH 8 0
BBX 8 10 0 0
BITMAP
FC
30
30
3C
0C
0C
0C
0C
0D
0F
ENDCHAR
STARTCHAR uni129B
ENCODING 4763
SWIDTH 576 0
DWIDTH 8 0
BBX 7 10 1 0
BITMAP
7C
10
7C
C6
C6
C0
78
18
18
18
ENDCHAR
STARTCHAR uni129C
ENCODING 4764
SWIDTH 576 0
DWIDTH 8 0
BBX 8 10 0 0
BITMAP
FC
30
30
3E
06
06
06
07
04
07
ENDCHAR
STARTCHAR uni129D
ENCODING 4765
SWIDTH 576 0
DWIDTH 8 0
BBX 8 10 0 0
BITMAP
FE
30
FC
CC
CF
03
03
03
03
03
ENDCHAR
STARTCHAR uni129E
ENCODING 4766
SWIDTH 576 0
DWIDTH 8 0
BBX 7 10 1 0
BITMAP
7C
10
7C
D2
CC
C0
78
18
18
18
ENDCHAR
STARTCHAR uni129F
ENCODING 4767
SWIDTH 576 0
DWIDTH 8 0
BBX 7 12 1 -2
BITMAP
7C
10
7C
C6
C6
C0
78
18
18
18
7E
42
ENDCHAR
STARTCHAR uni12A0
ENCODING 4768
SWIDTH 576 0
DWIDTH 8 0
BBX 7 10 1 0
BITMAP
C0
C0
70
30
78
CC
C6
C6
C6
C6
ENDCHAR
STARTCHAR uni12A1
ENCODING 4769
SWIDTH 576 0
DWIDTH 8 0
BBX 8 10 0 0
BITMAP
C0
C0
70
30
78
CC
C7
C6
C6
C6
ENDCHAR
STARTCHAR uni12A2
ENCODING 4770
SWIDTH 576 0
DWIDTH 8 0
BBX 8 10 0 0
BITMAP
C0
C0
70
30
78
CC
C6
C6
C6
C7
ENDCHAR
STARTCHAR uni12A3
ENCODING 4771
SWIDTH 576 0
DWIDTH 8 0
BBX 7 10 1 0
BITMAP
C0
C0
70
30
78
CC
C6
06
06
06
ENDCHAR
STARTCHAR uni12A4
ENCODING 4772
SWIDTH 576 0
DWIDTH 8 0
BBX 8 10 0 0
BITMAP
C0
C0
70
30
78
CC
C6
C7
C4
C7
ENDCHAR
STARTCHAR uni12A5
ENCODING 4773
SWIDTH 576 0
DWIDTH 8 0
BBX 7 10 1 0
BITMAP
E0
70
38
30
78
CC
C6
C6
C6
C6
ENDCHAR
STARTCHAR uni12A6
ENCODING 4774
SWIDTH 576 0
DWIDTH 8 0
BBX 7 10 1 0
BITMAP
C0
C0
70
30
78
CC
C6
C6
C0
C0
ENDCHAR
STARTCHAR uni12A7
ENCODING 4775
SWIDTH 576 0
DWIDTH 8 0
BBX 8 10 0 0
BITMAP
84
FC
30
38
18
3C
66
63
63
63
ENDCHAR
STARTCHAR uni12A8
ENCODING 4776
SWIDTH 576 0
DWIDTH 8 0
BBX 7 10 1 0
BITMAP
80
80
BC
66
66
66
66
66
66
66
ENDCHAR
STARTCHAR uni12A9
ENCODING 4777
SWIDTH 576 0
DWIDTH 8 0
BBX 8 10 0 0
BITMAP
80
80
BC
66
66
67
66
66
66
66
ENDCHAR
STARTCHAR uni12AA
ENCODING 4778
SWIDTH 576 0
DWIDTH 8 0
BBX 8 10 0 0
BITMAP
80
80
BC
66
66
66
66
66
66
67
ENDCHAR
STARTCHAR uni12AB
ENCODING 4779
SWIDTH 576 0
DWIDTH 8 0
BBX 7 10 1 0
BITMAP
80
80
BC
66
66
66
66
06
06
06
ENDCHAR
STARTCHAR uni12AC
ENCODING 4780
SWIDTH 576 0
DWIDTH 8 0
BBX 8 10 0 0
BITMAP
80
80
BC
66
66
66
66
67
64
67
ENDCHAR
STARTCHAR uni12AD
ENCODING 4781
SWIDTH 576 0
DWIDTH 8 0
BBX 7 10 1 0
BITMAP
80
80
BC
66
66
76
36
36
36
36
ENDCHAR
STARTCHAR uni12AE
ENCODING 4782
SWIDTH 576 0
DWIDTH 8 0
BBX 7 10 1 0
BITMAP
80
80
BC
66
66
66
66
60
60
60
ENDCHAR
STARTCHAR uni12B0
ENCODING 4784
SWIDTH 576 0
DWIDTH 8 0
BBX 8 10 0 0
BITMAP
80
80
BC
66
67
64
67
66
66
66
ENDCHAR
STARTCHAR uni12B2
ENCODING 4786
SWIDTH 576 0
DWIDTH 8 0
BBX 8 10 0 0
BITMAP
80
80
B8
6C
6D
6D
6F
6C
6C
6C
ENDCHAR
STARTCHAR uni12B3
ENCODING 4787
SWIDTH 576 0
DWIDTH 8 0
BBX 8 12 0 -2
BITMAP
80
80
BC
66
66
66
66
06
06
06
1F
10
ENDCHAR
STARTCHAR uni12B4
ENCODING 4788
SWIDTH 576 0
DWIDTH 8 0
BBX 8 12 0 -2
BITMAP
80
80
BC
66
66
66
66
06
07
04
1F
10
ENDCHAR
STARTCHAR uni12B5
ENCODING 4789
SWIDTH 576 0
DWIDTH 8 0
BBX 8 10 0 0
BITMAP
81
81
BD
66
66
66
66
66
66
66
ENDCHAR
STARTCHAR uni12B8
ENCODING 4792
SWIDTH 576 0
DWIDTH 8 0
BBX 7 11 1 0
BITMAP
30
E0
80
BC
66
66
66
66
66
66
66
ENDCHAR
STARTCHAR uni12B9
ENCODING 4793
SWIDTH 576 0
DWIDTH 8 0
BBX 8 11 0 0
BITMAP
30
E0
80
BC
66
66
67
66
66
66
66
ENDCHAR
STARTCHAR uni12BA
ENCODING 4794
SWIDTH 576 0
DWIDTH 8 0
BBX 8 11 0 0
BITMAP
30
E0
80
BC
66
66
66
66
66
66
67
ENDCHAR
STARTCHAR uni12BB
ENCODING 4795
SWIDTH 576 0
DWIDTH 8 0
BBX 7 11 1 0
BITMAP
30
E0
80
BC
66
66
66
66
06
06
06
ENDCHAR
STARTCHAR uni12BC
ENCODING 4796
SWIDTH 576 0
DWIDTH 8 0
BBX 8 11 0 0
BITMAP
30
E0
80
BC
66
66
66
66
67
64
67
ENDCHAR
STARTCHAR uni12BD
ENCODING 4797
SWIDTH 576 0
DWIDTH 8 0
BBX 7 11 1 0
BITMAP
30
E0
80
BC
66
66
76
36
36
36
36
ENDCHAR
STARTCHAR uni12BE
ENCODING 4798
SWIDTH 576 0
DWIDTH 8 0
BBX 7 11 1 0
BITMAP
30
E0
80
BC
66
66
66
66
60
60
60
ENDCHAR
STARTCHAR uni12C0
ENCODING 4800
SWIDTH 576 0
DWIDTH 8 0
BBX 8 11 0 0
BITMAP
30
E0
80
BC
66
67
64
67
66
66
66
ENDCHAR
STARTCHAR uni12C2
ENCODING 4802
SWIDTH 576 0
DWIDTH 8 0
BBX 8 11 0 0
BITMAP
30
E0
80
B8
6C
6D
6D
6F
6C
6C
6C
ENDCHAR
STARTCHAR uni12C3
ENCODING 4803
SWIDTH 576 0
DWIDTH 8 0
BBX 8 13 0 -2
BITMAP
30
E0
80
BC
66
66
66
66
06
06
06
1F
10
ENDCHAR
STARTCHAR uni12C4
ENCODING 4804
SWIDTH 576 0
DWIDTH 8 0
BBX 8 13 0 -2
BITMAP
30
E0
80
BC
66
66
66
66
06
07
04
1F
10
ENDCHAR
STARTCHAR uni12C5
ENCODING 4805
SWIDTH 576 0
DWIDTH 8 0
BBX 8 11 0 0
BITMAP
30
E1
81
BD
66
66
66
66
66
66
66
ENDCHAR
STARTCHAR uni12C8
ENCODING 4808
SWIDTH 576 0
DWIDTH 8 0
BBX 7 8 1 1
BITMAP
38
54
92
92
92
92
54
38
ENDCHAR
STARTCHAR uni12C9
ENCODING 4809
SWIDTH 576 0
DWIDTH 8 0
BBX 8 9 0 0
BITMAP
38
54
92
92
92
92
54
3F
01
ENDCHAR
STARTCHAR uni12CA
ENCODING 4810
SWIDTH 576 0
DWIDTH 8 0
BBX 7 10 1 0
BITMAP
38
54
92
92
54
38
10
30
66
7E
ENDCHAR
STARTCHAR uni12CB
ENCODING 4811
SWIDTH 576 0
DWIDTH 8 0
BBX 7 10 1 0
BITMAP
38
54
92
92
54
38
10
10
10
10
ENDCHAR
STARTCHAR uni12CC
ENCODING 4812
SWIDTH 576 0
DWIDTH 8 0
BBX 7 10 1 0
BITMAP
38
54
92
92
54
38
10
1C
12
1C
ENDCHAR
STARTCHAR uni12CD
ENCODING 4813
SWIDTH 576 0
DWIDTH 8 0
BBX 8 8 0 1
BITMAP
38
54
92
93
92
92
54
38
ENDCHAR
STARTCHAR uni12CE
ENCODING 4814
SWIDTH 576 0
DWIDTH 8 0
BBX 7 10 1 0
BITMAP
38
54
92
92
54
38
10
30
60
40
ENDCHAR
STARTCHAR uni12D0
ENCODING 4816
SWIDTH 576 0
DWIDTH 8 0
BBX 7 10 0 0
BITMAP
0C
36
C6
C6
C6
C6
C6
C6
DE
60
ENDCHAR
STARTCHAR uni12D1
ENCODING 4817
SWIDTH 576 0
DWIDTH 8 0
BBX 8 10 0 0
BITMAP
0C
36
C6
C6
C7
C6
C6
C6
DE
60
ENDCHAR
STARTCHAR uni12D2
ENCODING 4818
SWIDTH 576 0
DWIDTH 8 0
BBX 8 10 0 0
BITMAP
7C
C6
C6
C6
7F
03
06
0C
19
1F
ENDCHAR
STARTCHAR uni12D3
ENCODING 4819
SWIDTH 576 0
DWIDTH 8 0
BBX 8 10 0 0
BITMAP
7C
C6
C6
C6
7F
03
06
0C
18
18
ENDCHAR
STARTCHAR uni12D4
ENCODING 4820
SWIDTH 576 0
DWIDTH 8 0
BBX 8 10 0 0
BITMAP
7C
C6
C6
C6
7F
03
06
0E
19
1E
ENDCHAR
STARTCHAR uni12D5
ENCODING 4821
SWIDTH 576 0
DWIDTH 8 0
BBX 7 10 1 0
BITMAP
18
18
3C
C6
C6
C6
C6
C6
DE
60
ENDCHAR
STARTCHAR uni12D6
ENCODING 4822
SWIDTH 576 0
DWIDTH 8 0
BBX 7 10 1 0
BITMAP
7C
C6
C6
C6
7C
60
60
C0
C0
C0
ENDCHAR
STARTCHAR uni12D8
ENCODING 4824
SWIDTH 576 0
DWIDTH 8 0
BBX 6 10 1 0
BITMAP
CC
CC
CC
FC
CC
CC
CC
CC
CC
CC
ENDCHAR
STARTCHAR uni12D9
ENCODING 4825
SWIDTH 576 0
DWIDTH 8 0
BBX 8 10 0 0
BITMAP
CC
CC
CC
FC
CC
CF
CD
CC
CC
CC
ENDCHAR
STARTCHAR uni12DA
ENCODING 4826
SWIDTH 576 0
DWIDTH 8 0
BBX 8 10 0 0
BITMAP
CC
CC
CC
FC
CC
CC
CC
CC
CD
CF
ENDCHAR
STARTCHAR uni12DB
ENCODING 4827
SWIDTH 576 0
DWIDTH 8 0
BBX 6 10 1 0
BITMAP
CC
CC
CC
FC
CC
CC
CC
0C
0C
0C
ENDCHAR
STARTCHAR uni12DC
ENCODING 4828
SWIDTH 576 0
DWIDTH 8 0
BBX 8 10 0 0
BITMAP
CC
CC
CC
FC
CC
CC
CC
CE
C9
CE
ENDCHAR
STARTCHAR uni12DD
ENCODING 4829
SWIDTH 576 0
DWIDTH 8 0
BBX 8 11 0 0
BITMAP
F8
23
33
33
3F
33
33
33
33
33
33
ENDCHAR
STARTCHAR uni12DE
ENCODING 4830
SWIDTH 576 0
DWIDTH 8 0
BBX 6 10 1 0
BITMAP
CC
CC
CC
FC
CC
CC
CC
C0
C0
C0
ENDCHAR
STARTCHAR uni12DF
ENCODING 4831
SWIDTH 576 0
DWIDTH 8 0
BBX 8 12 0 -2
BITMAP
CC
CC
CC
FC
CC
CC
CC
0C
0C
0C
3F
21
ENDCHAR
STARTCHAR uni12E0
ENCODING 4832
SWIDTH 576 0
DWIDTH 8 0
BBX 8 10 0 0
BITMAP
E7
66
66
7E
66
66
66
66
66
66
ENDCHAR
STARTCHAR uni12E1
ENCODING 4833
SWIDTH 576 0
DWIDTH 8 0
BBX 8 10 0 0
BITMAP
E7
66
66
7E
66
67
66
66
66
66
ENDCHAR
STARTCHAR uni12E2
ENCODING 4834
SWIDTH 576 0
DWIDTH 8 0
BBX 8 10 0 0
BITMAP
E7
66
66
7E
66
66
66
66
66
67
ENDCHAR
STARTCHAR uni12E3
ENCODING 4835
SWIDTH 576 0
DWIDTH 8 0
BBX 8 10 0 0
BITMAP
E7
66
66
7E
66
66
66
06
06
06
ENDCHAR
STARTCHAR uni12E4
ENCODING 4836
SWIDTH 576 0
DWIDTH 8 0
BBX 8 10 0 0
BITMAP
E7
66
66
7E
66
66
66
67
64
67
ENDCHAR
STARTCHAR uni12E5
ENCODING 4837
SWIDTH 576 0
DWIDTH 8 0
BBX 8 11 0 0
BITMAP
F8
23
73
33
3F
33
33
33
33
33
33
ENDCHAR
STARTCHAR uni12E6
ENCODING 4838
SWIDTH 576 0
DWIDTH 8 0
BBX 8 10 0 0
BITMAP
E7
66
66
7E
66
66
66
60
60
60
ENDCHAR
STARTCHAR uni12E7
ENCODING 4839
SWIDTH 576 0
DWIDTH 8 0
BBX 8 12 0 -2
BITMAP
E7
66
66
7E
66
66
66
06
06
06
1F
10
ENDCHAR
STARTCHAR uni12E8
ENCODING 4840
SWIDTH 576 0
DWIDTH 8 0
BBX 7 10 1 0
BITMAP
38
6C
C6
C6
66
3C
18
18
18
18
ENDCHAR
STARTCHAR uni12E9
ENCODING 4841
SWIDTH 576 0
DWIDTH 8 0
BBX 8 10 0 0
BITMAP
38
6C
C6
C6
66
3C
18
1F
1B
18
ENDCHAR
STARTCHAR uni12EA
ENCODING 4842
SWIDTH 576 0
DWIDTH 8 0
BBX 8 10 0 0
BITMAP
38
6C
C6
C6
66
3C
19
1F
19
18
ENDCHAR
STARTCHAR uni12EB
ENCODING 4843
SWIDTH 576 0
DWIDTH 8 0
BBX 7 10 1 0
BITMAP
38
6C
C6
C6
66
3C
18
18
30
60
ENDCHAR
STARTCHAR uni12EC
ENCODING 4844
SWIDTH 576 0
DWIDTH 8 0
BBX 8 10 0 0
BITMAP
38
6C
C6
66
3C
18
1E
19
1E
18
ENDCHAR
STARTCHAR uni12ED
ENCODING 4845
SWIDTH 576 0
DWIDTH 8 0
BBX 8 10 0 0
BITMAP
38
6C
C6
66
3C
19
1B
7E
C0
C0
ENDCHAR
STARTCHAR uni12EE
ENCODING 4846
SWIDTH 576 0
DWIDTH 8 0
BBX 8 10 0 0
BITMAP
38
6C
C6
C7
66
3C
18
18
18
18
ENDCHAR
STARTCHAR uni12F0
ENCODING 4848
SWIDTH 576 0
DWIDTH 8 0
BBX 8 10 0 0
BITMAP
3E
63
63
66
38
30
18
7E
C3
C3
ENDCHAR
STARTCHAR uni12F1
ENCODING 4849
SWIDTH 576 0
DWIDTH 8 0
BBX 8 10 0 0
BITMAP
3E
63
63
66
38
30
18
7E
C3
C3
ENDCHAR
STARTCHAR uni12F2
ENCODING 4850
SWIDTH 576 0
DWIDTH 8 0
BBX 8 10 0 0
BITMAP
3E
63
63
66
38
30
18
7C
C6
C7
ENDCHAR
STARTCHAR uni12F3
ENCODING 4851
SWIDTH 576 0
DWIDTH 8 0
BBX 7 10 1 0
BITMAP
7C
C6
C6
CC
70
60
30
FC
86
06
ENDCHAR
STARTCHAR uni12F4
ENCODING 4852
SWIDTH 576 0
DWIDTH 8 0
BBX 8 10 0 0
BITMAP
3E
63
63
66
38
30
18
7F
C4
C7
ENDCHAR
STARTCHAR uni12F5
ENCODING 4853
SWIDTH 576 0
DWIDTH 8 0
BBX 8 10 0 0
BITMAP
3E
63
63
66
38
30
18
7E
C3
C3
ENDCHAR
STARTCHAR uni12F6
ENCODING 4854
SWIDTH 576 0
DWIDTH 8 0
BBX 8 10 0 0
BITMAP
3E
63
63
66
38
30
18
7E
C2
C0
ENDCHAR
STARTCHAR uni12F7
ENCODING 4855
SWIDTH 576 0
DWIDTH 8 0
BBX 8 12 0 -2
BITMAP
7C
C6
C6
CC
70
60
30
FC
86
06
1F
10
ENDCHAR
STARTCHAR uni12F8
ENCODING 4856
SWIDTH 576 0
DWIDTH 8 0
BBX 8 10 0 0
BITMAP
3E
63
7F
66
38
30
18
7E
C3
C3
ENDCHAR
STARTCHAR uni12F9
ENCODING 4857
SWIDTH 576 0
DWIDTH 8 0
BBX 8 10 0 0
BITMAP
3E
63
7F
66
38
30
18
7E
C3
C3
ENDCHAR
STARTCHAR uni12FA
ENCODING 4858
SWIDTH 576 0
DWIDTH 8 0
BBX 8 10 0 0
BITMAP
3E
63
7F
66
38
30
18
7C
C6
C7
ENDCHAR
STARTCHAR uni12FB
ENCODING 4859
SWIDTH 576 0
DWIDTH 8 0
BBX 7 10 1 0
BITMAP
7C
C6
FE
CC
70
60
30
FC
86
06
ENDCHAR
STARTCHAR uni12FC
ENCODING 4860
SWIDTH 576 0
DWIDTH 8 0
BBX 8 10 0 0
BITMAP
3E
63
7F
66
38
30
18
7F
C4
C7
ENDCHAR
STARTCHAR uni12FD
ENCODING 4861
SWIDTH 576 0
DWIDTH 8 0
BBX 8 10 0 0
BITMAP
3E
63
7F
66
38
30
18
7E
C3
C3
ENDCHAR
STARTCHAR uni12FE
ENCODING 4862
SWIDTH 576 0
DWIDTH 8 0
BBX 8 10 0 0
BITMAP
3E
63
7F
66
38
30
18
7E
C2
C0
ENDCHAR
STARTCHAR uni12FF
ENCODING 4863
SWIDTH 576 0
DWIDTH 8 0
BBX 8 12 0 -2
BITMAP
7C
C6
FE
CC
70
60
30
FC
86
06
1F
10
ENDCHAR
STARTCHAR uni1300
ENCODING 4864
SWIDTH 576 0
DWIDTH 8 0
BBX 8 10 0 0
BITMAP
7F
08
3E
63
66
38
18
7E
C3
C3
ENDCHAR
STARTCHAR uni1301
ENCODING 4865
SWIDTH 576 0
DWIDTH 8 0
BBX 8 10 0 0
BITMAP
7F
08
3E
63
66
38
18
7E
C3
C3
ENDCHAR
STARTCHAR uni1302
ENCODING 4866
SWIDTH 576 0
DWIDTH 8 0
BBX 8 10 0 0
BITMAP
7F
08
3E
63
66
38
18
7C
C6
C7
ENDCHAR
STARTCHAR uni1303
ENCODING 4867
SWIDTH 576 0
DWIDTH 8 0
BBX 7 10 1 0
BITMAP
FE
10
7C
C6
CC
70
30
FC
86
06
ENDCHAR
STARTCHAR uni1304
ENCODING 4868
SWIDTH 576 0
DWIDTH 8 0
BBX 8 10 0 0
BITMAP
7F
08
3E
63
66
38
18
7F
C4
C7
ENDCHAR
STARTCHAR uni1305
ENCODING 4869
SWIDTH 576 0
DWIDTH 8 0
BBX 8 10 0 0
BITMAP
7F
08
3E
63
66
38
18
7E
C3
C3
ENDCHAR
STARTCHAR uni1306
ENCODING 4870
SWIDTH 576 0
DWIDTH 8 0
BBX 8 10 0 0
BITMAP
7F
08
3E
63
66
38
18
7E
C2
C0
ENDCHAR
STARTCHAR uni1307
ENCODING 4871
SWIDTH 576 0
DWIDTH 8 0
BBX 7 11 1 -1
BITMAP
FE
10
7C
C6
CC
70
30
FC
84
1E
10
ENDCHAR
STARTCHAR uni1308
ENCODING 4872
SWIDTH 576 0
DWIDTH 8 0
BBX 6 10 1 0
BITMAP
F8
0C
0C
0C
0C
0C
0C
0C
0C
0C
ENDCHAR
STARTCHAR uni1309
ENCODING 4873
SWIDTH 576 0
DWIDTH 8 0
BBX 8 10 0 0
BITMAP
F8
0C
0C
0C
0F
0D
0C
0C
0C
0C
ENDCHAR
STARTCHAR uni130A
ENCODING 4874
SWIDTH 576 0
DWIDTH 8 0
BBX 8 10 0 0
BITMAP
F8
0C
0C
0C
0C
0C
0C
0C
0D
0F
ENDCHAR
ENDFONT
